<?xml version="1.0" encoding="UTF-8"?>
<svg version="1.1" viewBox="0 0 2000 2000" width="500" height="500" xmlns="http://www.w3.org/2000/svg">
<path transform="translate(1311,532)" d="m0 0h18l9 4 8 9 5 13 8 33 10 44 1 5v16l-4 9-6 7-8 4-13 4-66 15-116 26-68 16-56 13-95 22-119 27-29 8-2 2 10 11 3 5h111l210-1 160-2h77l14 2 6 4 7 8 4 10 1 13v68l-1 14-5 10-4 4h-2l-1 68v328l-1 22-3 12-6 9-7 5-11 2h-703l-12-3-8-6-4-5-3-8-1-6-1-16v-389l-14-13-4-8-1-7v-87l2-9 2-6-6-8-6-18-10-43-7-34v-15l4-9 4-6 9-6 21-6 41-9 47-11 81-18 74-18 67-15 94-22 96-22 139-32 45-11z" fill="#565656"/>
<path transform="translate(1311,532)" d="m0 0h18l9 4 8 9 5 13 8 33 10 44 1 5v16l-4 9-6 7-8 4-13 4-66 15-116 26-68 16-56 13-95 22-119 27-29 8-2 2 10 11 3 5h111l210-1 160-2h77l14 2 6 4 7 8 4 10 1 13v68l-1 14-5 10-4 4h-2l-1 68v328l-1 22-3 12-6 9-7 5-11 2h-703l-12-3-8-6-4-5-3-8-1-6-1-16v-389l-14-13-4-8-1-7v-87l2-9 2-6-6-8-6-18-10-43-7-34v-15l4-9 4-6 9-6 21-6 41-9 47-11 81-18 74-18 67-15 94-22 96-22 139-32 45-11zm27 432-16 1h-51l-25 1h-109l-71 1-117 1h-173l-116 1-13-1-10 1-2 2v367l1 42 5 5 10 1 141 1 331-1h181l34-1 18-1 3-3 1-17 1-235v-141l-1-18-1-4-4-2z" fill="#222"/>
<path transform="translate(1319,543)" d="m0 0h8l7 4 3 5 3 8 3 9 3 15 1 6 1 7 1 5h2l2 14 1 9 3 8 1 7-1 6v8l-3 5-5 5-15 4-17 1-9 2-21 4-41 9-11 3-3 2h-3l-1 2-9 4-12 2-5 2-12 2-12 3-13 3-25 5-6 1-10-1-11 2-13 3-44 10-13 4-10 5-17 4-5 2-28 6-8 3-10 1-16 5h-14l-45 9-11 3-15 3-10 3-5 2v2l-10 4-11 1-7 3-8 1-7 3-14 2-3 1h-15l-3-2v-2h-2l-6-9-1-7 7-5 10-25 7-17 6-17 6-15 1-6-14 3-66 15-7 4-4 5-6-1-6-3-7-2h-17l-9 3-9 5-5 5-5 8-1 10-1 80-3 6-6 2v2h-14l-7-3v-2h-2l-2-3-3 5 1 2v11l-3 5-2 16v51l4 28 2 11 7 6v5l-4-2-8-9-2-5-1-7v-87l2-9 2-6-6-8-6-18-5-21v-4h3l2 10v2l4 2 2 7 2 2 4 1-1-3-1-16-2-1-2-12-1-7-2-4-1-12-2-1-1-3-1-11-4-10 1-11 5-8 6-4 21-6 16-5 10-1 13-3 11-2 9-2 16-4 2-1 21-2 7-2 10-2 9-2 8-2 7-2 8-1 2-2 15-2 7-3 13-3 6-1 10-2 6-2 10-2 7-2 13-3 16-4 21-4h10l16-3 31-7 18-5 14-4 17-5 14-4 18-5 14-3 9-2 7-2 11-2 15-2 16-4 2-1 10-1 9-3 8-1 11-3 13-3 1-1 14-3 12-3 5-2 8-1 3-1 24-6 15-3 16-5 8-1 6-2 4-1 40-8z" fill="#565656"/>
<path transform="translate(1323,835)" d="m0 0h42l6 2 1 4h2l1 6h2l1 8 1 3v66l-1 4-1 13-7 8-4 2-12-1h-36l-24 1h-27l-9 1-60 1h-30l-2-1h-92l-47 1h-44l-14-1-70 1-29 2-32 1h-125l-38 2h-46l-10-4-2-4h-2l-1-2-1-66v-28l2-8 1-2h2v-2h2v-2l12-2v2l5 1 3 2 1 3 1 17v31l4 11 6 7 12 5 7 3 8 10 2 1h86l-2-6-1-6 4-1 53-1 11-4h2v-2h2v-2h2l2-4 5-8 4 2 4 9 8 11 5 8 5 4 90 1-3-8-19-29-11-17-9-14-6-1h-78l-8-7-6-7-2-4v-4l9-2h63l22-1 186-1h171l10-1z" fill="#565656"/>
<path transform="translate(630,838)" d="m0 0h2v2l5 1 3 2 1 3 1 17v31l4 11 6 7 12 5 7 3 8 10 2 1h86l-2-6-1-6 4-1 53-1 11-4h2v-2h2v-2h2l2-4 5-8 4 2 4 9 8 11 5 8 5 4 90 1-3-8-19-29-11-17-10-15-6-7-7-4-3-2v-5l6-2 47-1h52l8 1 5 3-3 10-1 7 10 15 29 44 7 9v2l9 3 2 5 1 6-3 3-78 1-18 1-76 1-29 2-32 1h-125l-38 2h-46l-10-4-2-4h-2l-1-2-1-66v-28l2-8 1-2h2v-2h2v-2z" fill="#555"/>
<path transform="translate(672,723)" d="m0 0h16l9 5 9 9 7 9 13 15 9 11 12 13 9 11 11 13 10 11 9 11 12 14 8 10 11 12 10 13 2 5v7l-4 8-8 2h-148l-7-1-5-5-1-3-1-11-1-110v-28l2-10 6-7z" fill="#565656"/>
<path transform="translate(1079,603)" d="m0 0h8l2 6-2 6-7 7-4 7-8 23-16 45-2 6 1 18h-2v2l-11 8-18 5-27 6-26 6-19 4h-6l-5-6 3-6h2l2-4 6-7 11-28 20-52v-6l-2-6 1-6h2v-2l8-5 26-7 45-10z" fill="#FEFEFE"/>
<path transform="translate(1266,560)" d="m0 0h9l1 3-4 11-5 5-3 4-9 25-10 29-5 15-3 11 1 5v10l-10 9-16 5-72 16h-6l-5-3-2-1 1-5 5-5 8-10 6-15 7-18 7-20 9-26v-5l-4-9 3-5 10-6 45-11z" fill="#FDFDFD"/>
<path transform="translate(954,1042)" d="m0 0h3l-1 9-4 31-2 21 27 3 10 2-1 3-11 7-4 3h-2l-1 3h-11l-7-1-2 5-7 4-14 7h-3v-20h-13l-10 4-9 5h-4l-1-12-2-1-20-2 1 9v20l-3 3-14 8-5 3-4-1-1-45-20-3-15-2 3 33 4 20 1 3v13l-3 3-16 8h-6l-6-21-1-4-4-57-1-2-20-4-17-3-6-2 1-4 15-10 5-3 12 1 9 2 5-1 7-8 7-5 10-1 3 4v10l-1 6 30 5 9-1 19-9h3v15l20 2-1-18-1-11 6-4 17-8 4 1 2 44 13 1 1-23 3-18 2-6 17-8z" fill="#FEFEFE"/>
<path transform="translate(955,842)" d="m0 0h52l8 1 5 3-3 10-1 7 10 15 29 44 7 9v2l9 3 2 5 1 6-3 3-94 1-4-2v-2l-4-2v-3h-3l-4-9-1-4-12-19-10-15-11-17-10-15-6-7-7-4-3-2v-5l6-2z" fill="#FEFEFE"/>
<path transform="translate(891,646)" d="m0 0h7l2 2 1 5-3 6h-2l-2 4-6 7-13 35-11 29-5 15 1 14-10 10-4 3-21 5-28 6-15 4h-7l-3-2v-2h-2l-4-7 1-6 4-5 9-23 14-36 8-21v-6l-3-1-1-4-8 1-5-1-14 1h-7l-1-2 21-6 45-11 53-12z" fill="#FEFEFE"/>
<path transform="translate(1099,841)" d="m0 0h95l13 2v4l-3 4h-2v7l-2 1 1 4 7 10 12 18 10 14 12 17 6 8 8 6 4 5-1 5-2 2-61 1h-28l-12-6-3-5v-9l-11-18-7-10-12-19-13-21-8-6-7-1-1-9z" fill="#FEFEFE"/>
<path transform="translate(676,726)" d="m0 0h8l9 3 7 6 9 11 11 13 9 11 10 13 8 9 8 15 3 5v6l-4 6-5 4-9 7-10 3-11 9-17 8h-4l1 3-1 2 2 1 3 12-4 8-9 5-10-3-6-5-4-11-5-17-3-12-1-11-2-52v-38l3-5 6-4z" fill="#FEFEFE"/>
<path transform="translate(974,647)" d="m0 0h5l-1 7-22 58-7 16-3 3-30 7-54 12h-1l1-8 9-23 6-17 12-30 5-6 14-4 44-10z" fill="#020202"/>
<path transform="translate(1161,604)" d="m0 0h7l-1 7-13 36-12 32-5 8-43 10-36 8h-6l1-7 13-37 5-13 6-17 5-8 8-3 28-6z" fill="#010101"/>
<path transform="translate(1030,861)" d="m0 0h77l5 4 5 6 12 19 11 17 10 15 1 7-1 1-44 1h-45l-9-12-27-41-7-10-1-6z" fill="#030303"/>
<path transform="translate(1206,860)" d="m0 0h85l5 5 7 10 28 42 6 10-1 2h-88l-6-5-8-12-4-8-14-20-14-21v-2z" fill="#020202"/>
<path transform="translate(1282,840)" d="m0 0h83l5 3 2 2 1 5 1 14v71l-3 9-5 3-10 1-8-3-6-5-3-11-5-9-20-30-7-11-7-10-7-9-5-5-3-1v-2l-4-2-5-2 1-5z" fill="#FEFEFE"/>
<path transform="translate(847,864)" d="m0 0h71l5 5 34 52 4 7v4h-90l-6-5-12-18-3-4-3-7-1-11-6-16v-6z" fill="#030303"/>
<path transform="translate(714,687)" d="m0 0h7l3 5-4 7h-2l-2 4-5 5-3 4-6-1-8-3-7-1h-13l-11 2-11 6-6 7h-2l-4 12-1 11-1 75-3 4-9 3h-6l-7-4-4-9-13-57-5-24v-15l6-4 24-6 42-10 41-9z" fill="#FEFEFE"/>
<path transform="translate(1314,569)" d="m0 0 3 2 4 15 9 40 2 10v5l-6 3-70 15-13 3h-3v-7l11-31 9-26 6-16 5-3 37-9z" fill="#030303"/>
<path transform="translate(1143,1166)" d="m0 0 3 1 2 19 1 13 19-9 8-3h5l5 8 9 17 4 4 5-1 20-12 14-7 12-2v3l-9 8-12 8-10 3-10 6-13 10-9 6-5 3h-8l-5-4-5-5-1 7-4 9-7 11-6 5-9 4-7-1-6-7-2-14-2-30-3-27v-7l9-6 11-6z" fill="#FEFEFE"/>
<path transform="translate(797,688)" d="m0 0 3 1-2 8-9 24-12 31-6 15-7 4-7 1-9-9-11-14-5-5v-2l-3-1-9-12v-2h-2l-6-8-1-4 5-6 13-4 31-7 17-4h3v-2z" fill="#010101"/>
<path transform="translate(626,846)" d="m0 0h11l1 2 1 48 4 11 5 6 12 6 9 3 8 10 10 7 5 5-1 5-4 3-31 1h-22l-10-1-5-4-2-4-1-44v-43l2-8z" fill="#FEFEFE"/>
<path transform="translate(846,900)" d="m0 0h2l16 24 7 9 7 2v2l3 2 3 6v4h-2v2l-63 1h-32l-10-5-1-3-3-1-4-15-2-7 6-1h45l10-2 8-4 7-9z" fill="#FEFEFE"/>
<path transform="translate(988,1200)" d="m0 0 4 1v7l9-1 10 4 5 3 7-1 12-9 8-4h9l19 5 18 4 5 5-6 7-14 8-5 1-31-6h-6l-8 7-8 5-10 4-9-1-10-4-6-3-6 3-3 1h-8l-1-2-1-10v-10l8-5 16-8z" fill="#FEFEFE"/>
<path transform="translate(936,1189)" d="m0 0h4l4 25 1 11-5 5-16 9-2 1h-6l-1-2-2-17-2-18 8-5z" fill="#FEFEFE"/>
<path transform="translate(690,919)" d="m0 0h63l9 1 1 3h2l1 7-1 1h-67l-18-1-3-3-1-6 1-1z" fill="#010101"/>
<path transform="translate(1344,618)" d="m0 0h3l4 13 3 15-1 8-5 5-12 4h-7l-3-4v-6h2l2-6 4-6 4-17 5-5z" fill="#FEFEFE"/>
<path transform="translate(784,855)" d="m0 0 6 2 6 4 2 5 1 4-4 8-5 6h-8l-6-2-4-5-2-6 1-9 6-5z" fill="#FEFEFE"/>
<path transform="translate(1119,713)" d="m0 0h7v3l-9 3-19 4-16 4-11 2-4 2-18 3-6-1 3-3h2v-2l47-11 11-2 11-1z" fill="#060606"/>
<path transform="translate(1156,605)" d="m0 0h5l-4 2-29 7-19 4-24 6-4 4-9 24-15 41-1-4 12-33 9-25 5-8 8-3 28-6z" fill="#212121"/>
<path transform="translate(1334,923)" d="m0 0 3 4-1 2h-88l-1-2h87z" fill="#212121"/>
<path transform="translate(1150,926)" d="m0 0 1 3-1 1-44 1h-45l-1-2 61-1 28-1z" fill="#222"/>
<path transform="translate(1138,683)" d="m0 0v3l-9 3-48 11-23 5h-6l1-7 2-5 1 3-2 7 20-4 39-9 22-5z" fill="#212121"/>
<path transform="translate(765,925)" d="m0 0 2 1 1 5-1 1h-86v-2h84z" fill="#212121"/>
<path transform="translate(1150,926)" d="m0 0 1 3-1 1h-31l2-2 28-1z" fill="#212121"/>
<path transform="translate(604,840)" d="m0 0 2 1-3 5-2 8-2 1 1-9z" fill="#616161"/>
</svg>
