<?xml version="1.0" encoding="UTF-8"?>
<svg version="1.1" viewBox="0 0 2000 2000" width="500" height="500" xmlns="http://www.w3.org/2000/svg">
<path transform="translate(951,869)" d="m0 0h404l8 3 4 7v432l-5 6-3 2-50 1h-648l-10-1-7-5-2-6v-353l4 2 9 8 8 5 15 6 13 3 10 1h12l19-3 12-5 19-9 19-10 30-15 2 1-11 19-8 14h71l5-8 28-48 11-19h-12l3-3 16-8 31-16zm14 27-14 24-15 26-15 25v2h72l6-9 6-11 13-22 11-19 8-14-1-2zm196 0-70 1-16 28-10 17-17 29-1 2h72l6-8 12-21 16-27 11-19-1-2zm125 0-68 1-8 13-30 52-6 11h72l4-5 9-16 28-48 3-5v-3zm52 11-14 24-14 25-9 15v2h39v-66zm-359 142-194 1-6 4-3 6v174l4 6 6 3h438l6-4 3-4 1-4v-171l-4-7-4-3z" fill="white"/>
<path transform="translate(1281,520)" d="m0 0h8l6 4 6 9 16 32 12 23 20 40 3 8-1 7-7 8-124 62-19 10-22 11-19 10-78 39-23 11-17 9-23 11-17 9-134 67-19 10-110 55-17 6-18 2-14-2-16-6-12-7-11-11-9-14-6-16-2-13 1-15 5-17 9-16 5-6 13-10 18-10 128-64 19-10 22-11 19-10 224-112 19-10 15-8 118-59 19-10zm0 35-3 9-22 90-2 10 6-2 54-27 5-3-1-4-29-58-7-15zm-65 29-72 36-2 7-25 100-1 6 5-1 68-34 3-7 14-57 12-48v-2zm-138 69-21 10-19 10-32 16-3 9-25 102-1 3 6-2 64-32 5-3 16-64 12-49zm-138 70-23 11-46 23-4 3-13 52-13 54-1 6 5-1 66-33 4-4 10-42 16-65zm-139 69-16 8-5 3 8 15 5 9 2 1 9-36zm-48 24-19 10-15 8-32 16-9 6-8 8-6 12-2 8v9l2 11 7 14 7 7 7 5 10 4 5 1h13l13-4 16-8 23-12 26-13 5-2 1-3-14-27-10-19-14-27-3-4z" fill="white"/>
<path transform="translate(717,849)" d="m0 0h10l10 3 9 7 6 8 3 8v15l-5 10-7 8-12 6-12 1-9-2-9-6-6-7-4-8-1-3v-14l4-10 9-10 9-5zm4 19-7 3-3 3-2 4v8l4 6 3 3 3 1h7l5-3 5-6v-9l-3-5-5-4z" fill="white"/>
<path transform="translate(814,937)" d="m0 0" fill="white"/>
</svg>
