<?xml version="1.0" encoding="UTF-8"?>
<svg version="1.1" viewBox="0 0 2000 2000" width="500" height="500" xmlns="http://www.w3.org/2000/svg">
<path transform="translate(1113,615)" d="m0 0h15l10 4 9 8 6 12 1 9-3 13-16 41-22 57-17 44-16 41-19 49-22 57-57 147-17 44-57 147-5 12-7 9-6 5-5 2-8 1h-10l-9-3-8-6-6-9-3-10 1-10 10-27 9-23 19-49 16-41 22-57 16-41 15-39 19-49 14-36 17-44 11-28 13-34 19-49 16-41 17-44 16-41 6-11 7-6 5-3z" fill="#2B8F78"/>
<path transform="translate(1163,735)" d="m0 0h11l10 4 13 10 10 8 18 14 15 12 13 10 28 22 13 10 16 13 16 12 16 13 13 10 18 14 15 12 13 10 10 8 13 10 14 11 8 7 5 8 2 10-1 13-7 12-8 8-17 13-18 14-15 12-17 13-16 13-13 10-14 11-13 10-10 8-18 14-13 10-15 12-17 13-15 12-13 10-16 13-16 11-11 3-11-1-9-4-8-7-6-11-1-11 3-12 6-8 9-8 42-33 15-12 17-13 17-14 13-10 14-11 15-12 13-10 16-13 17-13 16-13 17-13 3-2v-2l-17-13-16-13-13-10-14-11-15-12-13-10-28-22-18-14-15-12-17-13-16-13-12-9-15-12-14-11-6-8-4-11 1-13 5-10 8-8 9-4z" fill="#2B8F78"/>
<path transform="translate(825,735)" d="m0 0h13l11 4 9 8 6 12v16l-5 10-6 7-17 13-18 14-15 12-17 13-16 13-13 10-14 11-18 14-14 11-10 8-13 10-14 11-15 12-14 11-12 9h-2v3l4 2 16 13 17 13 11 9 18 14 16 13 16 12 12 10 13 10 15 12 28 22 10 8 18 14 16 13 13 10 6 7 4 10v13l-4 10-6 8-7 5-11 3h-7l-11-3-19-14-16-13-13-10-16-13-12-9-42-33-13-10-15-12-14-11-13-10-28-22-15-12-13-10-28-22-8-8-5-10-1-4v-13l3-8 4-6 10-9 14-11 18-14 42-33 18-14 28-22 18-14 14-11 15-12 13-10 56-44 16-12z" fill="#2B8F78"/>
</svg>
