<?xml version="1.0" encoding="UTF-8"?>
<svg version="1.1" viewBox="0 0 2000 2000" width="500" height="500" xmlns="http://www.w3.org/2000/svg">
<path transform="translate(0)" d="m0 0h2e3v2e3h-2e3z" />
<path transform="translate(1043,659)" d="m0 0 7 1 4 4 1 8-9 24-17 44-14 36-34 88-12 31-6 12-7 2-8-2-3-4v-9l10-27 9-24 11-28 16-41 10-26 17-44 11-28 6-14 3-2z" fill="#2D557D"/>
<path transform="translate(1058,701)" d="m0 0 9 2 14 12 13 10 11 8v2l4 2 16 12 16 13 16 12 4 6v8l-7 8-13 10-18 14-42 33-12 9-6 4h-6l-7-6-1-8 4-6 11-9 17-13 16-13 12-9 15-12 7-5-2-4-11-8-15-12-14-11-26-20-10-8-4-6v-7l3-5z" fill="#2D557D"/>
<path transform="translate(940,701)" d="m0 0 7 1 4 5 1 8-4 6-8 7-13 10-28 22-26 20-2 1v5l14 11 10 8 12 9 16 13 9 7 13 10 6 7 1 5-4 7-6 3h-5l-11-8-16-13-12-9-16-13-12-9-18-14-10-8-2-3v-9l4-6 70-55 18-14z" fill="#2D557D"/>
<path transform="translate(1015 1e3)" d="m0 0h14l4 2 4 8 16 43 8 23 3 7-1 1h-13l-3-2-5-15-3-3h-31l-3 3-6 15-3 2h-67v-83h15l1 3v63l1 1 34 1 3 3 1 2 3 1 3-12 8-22 11-29 4-10z" fill="#00FD78"/>
<path transform="translate(737 1e3)" d="m0 0h23l19 1 10 5 6 7 3 10-1 11-4 8-6 5-3 2 1 7 8 13 7 12v3h-13l-7-9-11-18-5-4-11-1-4 1-1 30-1 1h-14l-1-7 1-76z" fill="#00FD78"/>
<path transform="translate(1283 1e3)" d="m0 0h26l16 1 10 4 7 8 3 9v9l-3 7-7 8-4 3 1 7 13 21 2 3v4h-12l-5-4-11-18-6-8-7-2h-10l-1 32h-14l-1-1v-82z" fill="#00FD78"/>
<path transform="translate(1070 1e3)" d="m0 0h16l5 5 8 16 16 36 4 4v-60h16l1 10-1 72-2 1h-19l-3-5-13-30-8-18-5-8-1 2-1 59h-14l-1-1v-82z" fill="#00FD78"/>
<path transform="translate(806 1e3)" d="m0 0h50l4 2v8l-1 6-38 1v14l1 2 33 1 1 1 1 12-1 2h-34l-1 1v17l1 1h25l12 1 1 3v11l-1 1h-54l-1-5v-77z" fill="#00FD78"/>
<path transform="translate(1221 1e3)" d="m0 0h46l7 2v13l-1 1-37 1-1 1v10l1 5 26 1 8 1 1 1v11l-1 2h-35v17l1 2 37 1 2 4-1 10-1 1h-53l-1-1v-82z" fill="#00FD78"/>
<path transform="translate(870 1e3)" d="m0 0h43l8 1 1 1v12l-1 2-37 1-1 1v13l1 2 24 1 11 1v13l-1 1h-35v17l1 2 37 1 1 1v13l-1 1h-53l-1-1v-81z" fill="#00FD78"/>
<path transform="translate(1042,664)" d="m0 0h6l1 1v8l-6 15-10 26-19 49-8 20-20 52-10 25-6 17-10 24-3 3h-5l-2-2 1-9 11-27 17-44 12-32 5-12 15-39 8-21 12-31 8-20z" fill="#00FD78"/>
<path transform="translate(1058,706)" d="m0 0 8 3 17 14 13 10 15 12 13 10 14 11 13 10 5 5v6l-13 11-12 9-16 13-13 10-15 12-13 10-13 9-5-1-1-2v-6l14-11 18-14 15-12 13-10 15-12 10-7h2l-2-4-16-12-15-12-28-22-18-14-7-6-2-3 1-5z" fill="#00FD78"/>
<path transform="translate(942,706)" d="m0 0 4 2v6l-5 6-13 10-18 14-28 22h-2v2l-19 14v4l11 8 13 10 15 12 13 10 25 20 9 7-1 5-2 2h-7l-11-9-10-8-13-10-16-13-30-23-12-9-1-1v-5l5-5 10-8 17-13 15-12 28-22 17-13z" fill="#00FD78"/>
<path transform="translate(1180,999)" d="m0 0h10l9 2 10 5 1 1-1 8-2 5-7-1-6-3h-16l-10 4-6 7-3 7-1 10 3 11 6 8 7 5 12 1 12-2 4-2 5 1 3 7v5l-6 4-6 2-7 1h-15l-10-3-11-7-7-8-5-11-2-10v-10l4-14 6-9 9-8 13-5z" fill="#00FD78"/>
<path transform="translate(674 1e3)" d="m0 0h47l6 2v8l-2 6h-37v18h33l2 1v12l-2 2h-32l-1 2-1 32-2 1h-12l-1-1v-82z" fill="#00FD78"/>
<path transform="translate(1296,1016)" d="m0 0h22l9 3 2 4v8l-5 6-2 1-9 1h-16l-2-3v-18z" />
<path transform="translate(749,1016)" d="m0 0h21l9 3 3 4-1 10-5 4-10 2h-15l-3-3v-19z" />
<path transform="translate(1022,1019)" d="m0 0 3 1 4 8 6 17v4h-23l1-8 5-12z" />
</svg>
