<?xml version="1.0" encoding="UTF-8"?>
<svg version="1.1" viewBox="0 0 2000 2000" width="500" height="500" xmlns="http://www.w3.org/2000/svg">
<path transform="translate(979,619)" d="m0 0h38l26 2 27 4 26 5 27 8 25 10 10 5v2l2 1v4l6-3 28 14 21 13 13 10 10 8 7 6 11 9 9 8v2l3 1 7 8 10 10 3 5-3 1-2 5-1 1 5-1 2-4 4 2 13 16 5 8 7 10 9 15 4 7-3 9-2 2 5-4 4 2 5 8 8 15 11 27 9 29 5 22 5 28 2 18v14h-3l3 2 1 12-1 10v2 28l-2 6h-7l-2 10 7 1 1 4-3 8h-2l3 5-5 25-5 15h-2l1 5-8 24-12 27-12 23-10 16-4 1-3 9-6 9-9 13-3 2-8-6h-2l1 5 7 3-2 4-6 8h-2l-2 4-4 3-8 2h-6l-1 2 4 2-1 3-2 1-1 6-8 8-13 10-6 1 1-5-4-8-5-1-1 7-3 1-7-5 2-6 4-4 7 1 1-2v-13h5l1 4 1 11 2 5 2-1-1-7-1-6 4-4h2l2 11 2 1v2h7l1-10-4-1 1 7-4-2-2-8-4-3 1-5-3-1-2 4h-2l-2-3-3-1v2l-11-1-7 1-3 5 4-2 8 1 2 1-1 3-9 2h-5l-3-3-1 2 4 2v3l-6-1-4-6h-6l-5 1-4-2 1-7 9 1v-5l5-2-4-2h-4l-1 3-9 2-5 1-1-6h-2l-4 10h10l-1 5-7 1 6 4v5l-7 7h-3l-1-7v8l3 1h9l4-3 5 1 6 7v2l8 4v2l-4 3 3 3 7 1-1 6-5 6-3 1-13-2 2 4-1 9 4 1-1 4-9 7-15 7-25 11-22 8-7-1-1 3-10 4-34 8-21 3-5 1-3-3v2l-6 2h-4l-1-2-1 2-9 1-2-4-6-5v-5l3-3 11-3h-6l-3-2-1 4-3 2h-5v-5l5-2 3 1v-2l-11 1-1 5h-3v-2h-8l-5-2v-6l8-7-1-5-5-1-5-4-1 10-1 7-4 1-5-2 3 9v2l-3 1-3-4v-7h-8l-2-1v2l8 1 1 7 2 2 2 8-1 3 2 1-1 4-4-1-5 1-51-8-2-1-1-11h-2v-2l-3-1-7-7-10 1-6 4h-2l-2 6-7-2v-4l7-1 5-7 1-6h2l2-5 3-2 14 1 3-1 3-7-3-3-6 2v2l-6 5-4-1 2-6-4-1-2 4-3 5-5 4-7-2 3-9 1-2-4 1-1 11h-3l-6-5-1-7v-3l-5 7v5l-4 10 1 5 5 2 3 2v2l-6-1-7-4-4-2-2-3 1-5 5-2v-1h-5l-3-4-5 1-1 4 1 4-4 1-16-8-2-2-7-2-1-1 1-8-1-5-5 4-1 3-5-1-1-7-7-1-1-3 1-1 10-1 1-2h4l-1-5-4-8v-2l4-3-5-1v6h-2l2 3-1 6-2 2-11 1-4-2 1 5-5-2-7-5-1-3 5-1-3-7-2-3-4-2v-3l5-1 1-5-4-1-1 5-2 1v4l-5 2v3l-4-2-9-7-8-7v-2l-4-2-7-7 2-4h-2l-2 2-9-10-12-14v-2l6-3 3-4-1-3h-3v-2h-4v2l-7 1h-2l-7-9-7-11-9-14-10-18-5-10 1-4 2-2 1-8-8 3-3-3-7-20v-3h4v-4l-5-1-1-4h-2l-4-11 2-3-4-5-4-12 1-5 2-2-1-5-4-2-2-5-3-21 1-2h2l-3-4-1-4v-11l1-1h7l2 1v2h2l-4-6-1-5v-8l5-2-2-5-6-8-2-5-3-3v-12l1-3v-9l2-5 4 1-1 12-2 2h2l1-2 1-10 3-2h2v-2l-7-3h-4l2-17 5-26 8-30 3-6h2v2h6l-6-7 5-15 11-25 13-24 14-23 13-17 9-11 11-12 9-10 15-15 10-8 15-13 18-13 20-13 14-8 10-5h4l1 4 8 1-2-9 4-3 9-3 3 1 2-4 12-5h3l1 4h2l1-6 24-7 24-6 24-4zm-39 10 1 2 1-2zm-14 3v2h2v-2zm-18 5-4 3 1 4 6-1v-6zm20 6-3 2 1 3 5-2v-3zm37 6-2 4 4-2v-2zm17 1-1 5 4-1-2-4zm-97 2v3h2v-3zm152 6m-189 1-2 1v3l5 1 1 3h9l5-1-2-5-5-1-3 3-4 1-2-5zm64 4-2 7 2 9h2v-2l5-1 2-2 1-7-6-4zm-25 1 1 2h2v-2zm10 0v3h2v-3zm55 0 1 3 2-3zm-68 0-5 1 2 4 4-3zm209 5v2h2v-2zm-143 2-2 4 4-1zm27 2v2h3v-2zm-122 3m44 0 1 3h3l-1-3zm-43 1 1 3h2v2l4 2 1 3-7 1-1 4 5 4 6-1 2-7h4v7l5 1 6-5v-2h-7l-5-10-8 2-6-4zm149 0v2h2v-2zm80-1-5 3-4 4 2 4 3 1 3-1 3-7-1-4zm-182 3m28 0-2 2v6l4 1 2-5-1-4zm-21 0-6 1 1 5 6-2 1-4zm-20 2-3 5 3-1 1-4zm135 0-7 6 2 4 4 3 3-1 1-4 3-1-2-1-2-6zm-119 7-5 3-2 4h5l4-3 4-2v-2zm54 0v2l2-1zm-43 1m89 0-1 5h3l-1-5zm-117 2-1 8h3v-8zm15 5v6h4l-2-6zm157 1v5h2v-5zm-67 3m-121 5 1 4 3 3h2l-2-4h-2l-1-3zm124 0v4l3-1v-3zm23 0v4l4-2-1-2zm88 1-3 2v2h6l4 1 1-2zm116 1-2 2 1 4 2 2h4l-1-4-2-4zm-174 2-1 4 5 1 1-5zm-180 3-1 4 2 1 2 5 3-1-1-4zm9 0m4 1 1 3 2-1v-2zm11 0-1 5h2v-5zm190 3-1 5 4-1 1-3zm158 0-1 3 3 1 2-1v-2zm-469 1v2l3-1zm256 0v2h2v-2zm48 4v7h7l3-1v-2h-5v-2h-2v-2zm-164 1-1 4h3v-4zm233 4 1 9 1 2h3l1-3-4-7zm-89 1v2h2v-2zm-31 1-3 4 4-1zm-149 2v5h2l-1-5zm26 2 1 3 7 2v-4zm118 0-2 3 4-2zm-204 1 2 4 4 2-1-3zm104 0v4l3-1-1-3zm81 2-1 3h2zm-62 1-1 3 2 4h2v-7zm75 0-2 1v3l4-2 1-2zm250 0-1 4 4-1v-3zm-132 1v3h2v-3zm-103 3-1 3h4v-2zm-269 2-1 4h4l-1-4zm116 2v3h2v-3zm-16 1-4 3-8 3-3 6-1-1h-7l-5 10 4 1 6 1 2-4 3 1 1 5 7-1 1 3h7l2-2-1-5h-8l-2-2 5-1 5-3-2-14zm133 0m-80 3-1 3 3-1zm15 0-1 3 2 3 3-3-1-3zm-40 1v7l-16 4 2 4 3 1 6-1 5 4 6-1 1-6-4-6 1-5zm207 2-1 4 5-1-1-3zm40 0-1 3 3 2 2-1-1-4zm-263 2v2l3 1-1-3zm180 0 2 4 4 2 1-5-1-1zm-273 3-7 9 6 7 5 3 3-1 3-5h3v6h3l-2-9-3-3h-6l-2 4h-6l4-6v-2h2l-1-3zm145 5 1 3h2v-3zm16 0v4h2v-4zm85 0-1 2h2zm-98 3v3l3-1v-2zm152 0-4 4-1 5 2 4 3 2h6l5-4-1-7-4-4zm203 0-2 3 5-1 1-2zm-221 1m55 0-2 6-6 2 2 7-9 3-20 8-28 11-34 13-30 12-44 18-5 1-18 8-31 12-5 8-4 8-2 8-1 165-5 1-2 5h-2l1 3h8v52l-15-2h-26l-12 2-19 9-11 8-10 9-5 8-2 1v-2l-4 1-1 4 3 3-2 7-2 13-2 2-3 2v2l5-1 2 6 5 13 10 14 13 10 14 7 10 4 2 3 5-2 13 1 4 1 1 5 3-1v-4h3l1 5-3 1-1 6 6 2 3 5 4 2v-4h2l2-5v-3l-8-1-1-4-1-5 8 4 3 3 1-4h7l9 3 2-6-3-3v-3l10-5 12-9 9-7 8-2v2l6 5 3 2-5 3-2 5-6 7v2l4-2 8-2-2 5-6 4-3 1 1 3 5-1 5-5 3-2-1-6-1-2h-3l1-2h3l2 2 5-2 5 1 5-3v-6l-5-7-7-1-5-6h-3l-1-3-6-1 2-12 2-15 4-7-4-2v-131l3-3v-5l-3-2v-71l6-1 11-5h5l4-4v6l1 2 4-1 3-4-2-1-1-4 6-2 13-6 6-1h3 4v3h3v-3l-2-1v-3l15-7 19-8 8-3 11-5 6-3 5-1v3l4-1-3-4 10-3 29-12 1 93-5 1v2l4 1v13l-8 2 3 5v3l5-1 1 9v36l1 4-3-3h-5l-1 5h-10l4-2-1-4-6 2-1 4h-19l-6 1v-2l5-1 4-3v-5l-4-1-1 5h-8v4l2 4-4 2-5 2 4-5-1-2h-3l-2 4-6-1-2 2-11-1v4l-2-1-2-4-3 1-3 5v2l8 1 1 6-12 11-2 1-1-5-6-2 2 4 3 4-2 6-4 7-3 8h-8v2l7 1-4 13 1 6 4 1 4 12 7 11 9 9 12 9 6 4 9 2 16 4 9 1h13l13-2 16-5 14-7 11-9 8-9 7-14 2-12 1-88v-12l6 2v2l5 5-2 5 2 3 5-1 2-9 6-4-4-8-3 1v2h-3l-1-4-2-2-3 6-4-4-3-5v-4l4 1 2-4-1-3-6-1v-29l5 4-2-5-3-1 1-7-1-9 1-3-1-2v-12l2-5 2-2h-5l1-5v-39l6-1v-3h-6l-1-68 3-1-2-9-6-10-8-8-12-5-3-1-4-6-3-7zm-163 10-2 5 3-2zm-99 1-7 4 1 4h7l3-1 4 4h4l-1-4-2-3h-6l-2-4zm4 1m13 0v3l3-1v-2zm9 0-1 3 3 1v-4zm411 0v2l4-1zm10 0-5 3 1 2 9-4v-1zm-465 3 1 3 6-1-2-2zm53 0-1 2 3 5h3v-6zm60 0-1 3h2l1-3zm109 4-4 5 2 7 6-1 3-3-2-6zm-134 1v2h2v-2zm330-1-4 2 1 5h5v-2h2l1-3zm-411 3-3 2v2h5zm30 1-1 4h3l-1-4zm27 0-2 6 4-1v-5zm72 0v4l6-1v-2zm308 2-1 3h2zm-424 2 1 4 4-1 1-2zm436 1 1 7v3l4-1 2-5h-4l-1-4zm-249 2-3 2 2 5h3l3-2-1-5zm133 2v2l4 3 2-1-4-4zm133 0 1 2zm-453 2-2 1 1 7-4 3v2l-3 1 1 3h2l1 3 3-1 4-7 2-9zm56 1-2 6h4l1-5zm252 1m-209 3-2 4 4-2v-2zm-115 1-2 5 4-1h3l-1-4zm44 0v2h6v-2zm428 0v5h10l-3-3-4-2zm-443 3-1 3h5v-3zm60 0-2 3 5 1 2-1v-2zm-87 2 1 2zm111 1-1 5 2-1zm243 0-3 3 1 1h5l-1-4zm-29 2-1 2-3 2 6 5 3-1v-3h2l-1-3-3-2zm133 3v3h2v-3zm-428 1-5 9v12l7 1-1 6h2v2l7-1 1-5-2-13-3-7zm-41 4-3 5v2h3l1-3 9-1v-3zm32 0-4 2-11 1-2 2 6 3 7 2v-3l4-1 3-3v-3zm417 0v2h2v-2zm28 0 2 2 3-2zm6 0v2l3-1zm-414 2-1 12 3 1 1-3-1-3 1-2h4v8l7-1-1-4h-2l-2-6-4-2zm-85 1-1 2 4 6-1 3-2 1v3l6 1 3-4v-3l-4-2-3-6zm130 0-1 2h2zm303 4-2 1 2 4h3v-4zm-518 1-5 1 3 8 4-1 6-3v-5zm198 0v2l4-1zm-100 2-1 4h4l-2-4zm31 0-3 5-1 3 5-1 3-3-1-3zm378 1-1 3h2zm19 0v3h2v-3zm-408 1-2 4-3 2v4l4-1 4-6v-3zm40 0-1 3 1 3h3l-1-5zm-52 1 1 4 5 2v-2l-4-4zm348 1v3h2v-3zm89 1v4l9-1 1-2-9-1zm-444 4-3 3-7 2 1 5h5l4-6 2-1-1-3zm81 0-3 3v4l-4 2v2h7l2-6 3-3v-2zm-132 4-2 3 3 5 1 4-4 1v3h2l1 9v6l4-1 1-3 4 2 2 2 4 1 1 2h-8l-3 1-1 7 5-2h8v2l10-1-2-3 3-1-2-4-6-4-2 2-6-4-4-2h-3l3-5 3-2-3-3 1-5 5-3-2-6-1-1zm87 0-3 2v3l9-2v-3zm455 1v7l2 1 3-2-3-6zm-432 3v3h2v-3zm-213 1-1 5 1 1-7 3v1l11 2 4 1 3-5 1-3-1-2-4 2-3 2-1-7zm151 0v6l3 1 3-3 4-1-1-3zm24 0-1 3 6-1v-2zm11 0-1 1v5l3-1-1-5zm303 0-1 5 4 1 1-5zm-317 1m354 0-1 2 2 2zm-355 1-2 2 1 4 2-3zm27 1-3 1v2h5l1-3zm355 1m-564 1m553 1-1 3h2zm-374 2-1 4h-2l1 3 5-1v-3h-2zm25 2-1 3-4 2 1 3 10 1v-4zm-206 1-2 2-2 6-3 3 2 5 5 4 1-1 1-7h6l2-2v-3l3-1-2-2-4 2-5-5zm199 2 2 2v-2zm-34 5v4l3-1v-3zm-178 3m159 0m363 2-1 4 5 1v-5zm157 0 2 4 3 5-1 6h2l2-6-2-8zm-20 1 1 3h2v-3zm-8 2v4l3-1-1-3zm-445 2m305 1m-416 6v2l4-1zm7 4-1 4-2 2 2 1h11v-2l-6-2zm57 1 1 3v-3zm522 2-6 3 1 3 4-2 2-4zm-598 3-1 4 3 1-1-5zm145 3m-121 3-1 3-2 2 2 3 5 1 3-5-1-3zm-10 1m-4 1v3l2 2h3l-1-4zm450 0 1 4 5-1-2-3zm-408 1-1 5 1 2 5-1 3 12h-2v2l5 1-1-11-2-5h2l-1-3-4-2zm-16 2 1 3v-3zm47 0-1 2h4v-2zm-119 2-1 4 3 8 5 5 3 1 4-2-1-5h-5l-3-3-2-7zm105 0-1 4h2l1-3zm7 0v5h2l1-4zm285 1-1 3h6v-3zm-345 1 2 5v4l5-1 2-1-1-4zm428 0v2l3-1zm-440 4-1 6 2 3-1 5h6l-3-12-1-2zm28 0v2h2v-2zm288 0-1 3 2 3 3-1-2-5zm-278 2-3 1v3l4 2 2 4 3 3 3-1v-2l-3-1v-3l3-2-2-4zm34 1v3h3v-3zm-63 1v2h2v-2zm91 0v2h2v-2zm228 0 1 2 4-1v-1zm113 4-1 4 2 1 1-5zm12 0m-547 2-1 3 2 5-1 7 4-1-1 3-4 1v7l3 3 6-1 1-7-3-3-2-11v-5zm114 0 2 4v-4zm39 1 1 3h2l-1-3zm218-1-2 1 1 4 4 2-2-7zm-247 2-1 2v7l1 2 5-1 4-1 1 4 3-1v-6l-5-5zm21-1-3 3 4-1zm373 1-3 3 5-1 1-2zm-431 1-3 6-5 2v1l15 2 10 6 2-1v-3h2v-4l-5-1-2-2-7 1-3-6zm315 0v2h2v-2zm164 0 2 4 3 1v-2h-2l-1-3zm-459 1 1 5 5-1 1-3zm30 1m245 0v2l2-1zm248 0v3h2l-1-3zm-566 0-3 3v7h4l3-2h5v-3l-8-5zm369 1 1 4 3-3zm13 0 1 2 1-2zm-407 3v3l5 1v-3zm100 1 5 7 3 1-2-7zm251 0v2h3v-2zm-404 1m648 0-4 3v2l6-3v-2zm-647 1m360 0-4 2 1 4 4-2 1-4zm-358 1 1 2 2-1zm61 0-4 3v-2h-2l-1 4 1 4 5 2 6-1 7 6 5 3h4l3-4v-3l-5-3-4 1v2l-6-2-4-6-3-1v-3zm65 0-2 3-1 5-3 3 5 7 4-2-1-5-2-3 2-2v-5zm223 1v5l3 2 1 6h2v-7l-2-5zm72 0-1 7-2 2 2 2h3v-10zm26 0m0 2-2 4-3 1v2l9-3v-3zm-357 1-2 3 3 3 1 4 6 1-2-4-4-3zm315 0v3h2l-1-3zm-355 1v2l4 1v-3zm108 0m435 0m-444 2-2 3 3 9 2-4h2l1-5zm8 0v2l2-1zm309 0-2 3h4l-1-3zm-303 1-1 4 3 9h-3v2l5 1 12-2 1-4-1-2-6-3h-2l-1-5zm-76 1-1 2h2zm72 0m-52 1-3 3v3h2l1 3 4 2 2 5h3v-9l-4-4-3 2 1-5zm282 2-1 4h3l1-3zm-248 1-5 4-1 6 2 8-2 4 4 1 6-9v-4h-2l-1-7 1-3zm497 0-1 5h2v-5zm-209 1v7h2l1-5-1-2zm-387 3-1 5 3 3h2v2l7 4h10l6 1-1-3-7-2-9 1-2-8zm21 0-2 2 4 3 2-1-1-4zm318 0v5l1 1h6l-2-4zm64 0v5h2l1-5zm6 0 2 2 4-1zm111 0-1 2 4-1zm95 0v3l1 3 5 4 2-3-1-2h3v-3l-6 1-2-3zm23 0m-528 3-1 4h8v-2l-5-2zm309 0m92 0v3l4-1-1-2zm-547 1-3 2 1 3h4l3-4zm368 0m92-1-4 2 1 1h5v-3zm271 1 4 2 3-1v-1zm-719 1v3 3 3l5-3 6 2 5 1-1-4-2-2zm71 1-9 5-1 5 4-1 1-3 7 1 1-5-1-2zm13 2 2 5 3 1-1-5zm295 0m198 0 3 2 4-1zm-446 1-2 15-1 2-4 2 4 4 5 2h3v-3l7-1-1 5 2 2v-2l7-2v-3l2-1-1-1h-6l1-5-5-1-3 4-4-4v-10zm-24 2-1 6 4 1 3-2-3-5zm440 0v3l2 1 2 7h2l1-8-3-3zm-384 1-4 4-1 8 1 2 5-1 8-4-4-6-3-3zm348 0-1 2h3v-2zm96 1 1 4 5 1-1-3h-2v-2zm-556 2 1 6 2-1-1-4zm100 1m172 0v7l4-2-2-5zm32 0v2h2v-2zm16 0v2h2v-2zm20 2v3h2l-1-3zm-299 1v3l2 3v2l-3 1 1 4 3-3 4-5-5-5zm315 0-1 7 4 1 2 7 7-2-1-4-8-5-1-4zm120 0v4h3l1-3zm132 0v2h2v-2zm-584 1v2l4-1zm235 0v2l3-1zm73 0v2h2v-2zm60 0-1 3-3 1v2l7-2-1-4zm124 0v2h2v-2zm24 0v4h2v-4zm-531 0-3 3 3 3h4l-1-4h-2zm270 0-3 2 7 2-2-4zm32 1-1 2 3-1zm72 0-3 2v3h3l3-4zm277 0v2l3-1zm-600 2-2 1v4l4-1v-4zm327 0m237 0v3h2v-3zm-680 1-6 3v3l6 1h3v-2l3 1 2 7h3l-1-9-5-2v-2zm33 0-2 5 5 2 2-3-3-4zm487 0 1 4 2-1v-3zm120 0v2h3v-2zm-555 1-4 4 5 5 4-4-1-4zm645 1m-687 1 2 5h2l-1-5zm497 0v3h2v-3zm-483 1-1 3 3-1v-2zm68 0 1 2 1-2zm199 2 1 4 1-4zm118 0-3 1-1 7-2 4 5 1 1-7 3-1v-5zm-333 1-1 2 3-1zm317 0v3l1 1h5l-1-4zm-72 1 1 2h2v-2zm213 0v3l3 1 1 2h3l-1-5-1-1zm41 0v2h2v-2zm11 0 1 2 1-2zm-597 1-5 4 7 1 1-4zm50 0v2h4v-2zm44 0v4h2v-4zm268 0-3 4 3 1 2-5zm149 1-2 2 1 4 6-2-1-3zm-544 1v3h5l4 2 4-2v-3zm139 0v3l3-1-1-2zm176 0-10 5v2l5 1v-3l7-2v-3zm245 0-2 4 3 1 1-5zm-462 1 1 4 2-4zm589 0 1 2 1-2zm-639 1-3 4h4l2-4zm12 1v4l5 1 4 3h4l-1-5-3-3-3 1v2zm525 0m-437 1-1 4 5 4 7-1v-4h2v-2l-5 1-5-2zm261 0 1 3h2v-2zm-394 1-1 6h4l-1-6zm204 0v2h2v-2zm113 0 3 6h2l-1-4zm88 0-1 5h2l1-5zm6 0m163 0 1 2h2v-2zm22 0-6 6 2 4 3-1 1-2h7l4-3-4-1h-2l-1-3zm-504 1 1 5h1v-5zm320 0 1 5 1-4zm-252 1-3 3-5-1-1 2 1 5 6-1 5-5v-3zm-48 1-1 3 1 3h2v-2l5-1v-2zm184 0m240 0-3 5 1 2 5-1-1-6zm-462 0-3 1v2h5l-1-3zm550 1 1 5 4-2 2-2-1-1zm45 2-1 4h5v-2zm-576 1 1 6h4l3 6 2-1-1-4-5-6zm251 0 1 3 1-3zm205 0-1 3 4-1-1-2zm15 0-1 4 4-1v-3zm-205 1-4 4 2 6 2-1 1-2 7-1-1-5-1-1zm37 0 1 4 1-3zm24 0v2l4-1zm-275 3-1 3 4 2-2-5zm301-1-2 1v4h2l1-5zm-450 2-1 2h4v-2zm48-1-3 2v7l5-3v-2l7-1v-2zm88 0-5 1v2l5 1 3-1v-2zm184 1-2 6 2 4 3-1v-7l-1-2zm119 0v3h3v-3zm181 0v2h2v-2zm32 0v2h2v-2zm65 0 1 2zm-595 1-2 2 1 3 3-5zm187 0-2 6 1 2h3v-2l5-1-1-3-3-2zm91 1 1 5 3 2h3l-1-5-2-2zm17 0-2 4 6 5h2v2l4-1 5-1h3v-3l-5-3h-6l-5-3zm-348 1-1 3h3v-3zm11 0v3h2l1-3zm15 0-3 3-5 3 2 4 7 1v-3l4-1 1-2zm284 0-3 3-4 2-1 4 1 2 10 1v2h3l-1-5-2-4 1-4zm165 0-1 3 4-1-1-2zm12 0-1 2 4 3 4-1v-4zm-543 1-1 1v5l2 1 1-7zm19 0v2h2v-2zm537 0-1 2h2zm-417 2-1 3 4 1v-4zm211 0-3 7-1 4 1 1h6l1-7-3-5zm213 1v2h2v-2zm140 0-1 3h10l-4-3zm-719 1-1 4 4 2v-3zm233 0-2 3v6l4-1v-2h2l-2-6zm167-1-5 2v12l8 4 4 5h2l-2-11-4-5-5-1 4-5zm187 1-1 3 3 3 2-1-2-5zm17 0-9 9 5 1 5-8zm11 0v2h2v-2zm43 0-1 5 4-3v-2zm-611 1-1 4 4 1-1-5zm98 0v3l3-3zm206-1-4 3v2h-4v-2l-5-1-3 1-1 4h4l1 4 5 2 3-6 6-5v-2zm378 2m-652 0-2 1v5l5-1-2-5zm49 1v3l3 2-1 3-2 1v2l7 1 1-6-1-5-1-1zm330 0-3 2v2l-4 1v2l-4 1v3l5 2h4v-8l4-3v-2zm95 0v4l7-1v-3zm16 0-2 5-11 4-3 2v4l4 1 6-2 2 2 5-1-1-7 5-3v-2l2-1-4-2zm163 0 1 3h2l-1-3zm-615 1 1 2 1-2zm27 0-3 2 1 4 3-1 1-5zm-35 1 1 2zm-56 2 1 3v-3zm282 0-2 3 3-1zm-314 1v4l5 2-3-6zm304 0v3h2v-3zm320 0-5 5-5 3v2h-2l1 4h2v5l-2 1 1 4 4-1v2h-2l1 5 5-4v-2l-3-2-1-9 6-2 4-1-2-10zm52 0v6l3 2-1-7zm-277 2-2 4 1 1h5v-5zm-231 2v2h2v-2zm251-1-7 2v4h4v-2h3l1 2 4-1-1-5zm245 1v2h2v-2zm24 0-1 7 4-4 1-3zm8-1-2 1 2 5 4 3-1-6zm13 1 1 2h5v-2zm-542 2m-170 1-1 3h2zm-16 1v3zm43 0 4 5h3v-2l-3-3zm140-1-4 2 5 1 2-3zm392 1 1 2zm39 1m-624 1 1 7 3 3 2-1-2-6 2-1zm141 0-1 4 3 1v-4zm291 1v3h4v-3zm150 0-1 4 3 3 8 2 12-2-1-3-4-1v-2l-6 2-3-3h-2v4h-4zm133 0-2 3 3-1zm-399 1-1 2 4-1zm84-1-4 2v1l8 2 4 4 1 4 7-2-4-5-8-4zm209 1 1 2zm77 0m11 0v2l3-1zm-522 1v2h3v-2zm-14 1v4h3l1 5 3-2-2-5-2-2zm568 0-3 6v2h10l-4-3-2-5zm-550 1-1 4 1 4v2l5-1 8-3 1-5h-3l-3-1zm170 0v3h2v-3zm94 0v3h6l-3-3zm-361 1m64 0 1 4 5-1-2-3zm162-1-4 2 6 2 1-4zm19 1-1 3h-2l2 4 4 2v-3h-2l2-4zm286 0 2 2v-2zm7 0 1 4 3 2h3v-2l-3-1-1-3zm-552 2-3 3v4l5-1 1-5zm84 1m213 0-1 3h3v-3zm28 0 1 2h2v-2zm-240 1m437 0 1 2zm43 0 2 2v-2zm-477 1m285 1 1 4 1-4zm150 0-2 1-5 1 1 3 3 1 5 6h6l-1-2 1-3v-6zm32 0m-266 1v4l3-1v-3zm28 0-3 3-1 3 4 2 13-1v-2l-8-2-3-3zm-364 1v3h2v-3zm210 0v2h-2l1 4 4-4v-2zm386 0v3l3 3 6 3 3 4 2-1-5-8-4-4zm-520 3 1 3 3-2zm309 0-1 3h7l-3-3zm-353 1v2h2v-2zm32 0v2h2v-2zm68 0v2h2v-2zm68-1-2 2h3zm417 1-1 1v5l3-1-1-5zm-626 1m574 0-2 4h3l1-2zm-577 1 1 4 2-1v-3zm96 1-1 6 1 1h6l-2-4zm-80 1v4h2v-4zm112 0 4 4 2-1-4-3zm60 0v3l3 1v-4zm13 0-2 3 4 4 2 4 1-4-1-3v-3zm168 0-4 3v3h5v-6zm231 0-4 3v3l4-2 3-1-1-3zm-303 1 1 2 1-2zm-228 1m-81 1-1 5h3l1-3-1-2zm236 0v3h2l-1-3zm379 0 1 3 4-1-3-2zm92 0v3l4 1-1-3zm-584 1-4 3 1 7 3-1 1-2h2l2 4 2-1-1-5-3-5zm23 0-4 3-6-1 1 4 6 5 3-1 2-5 2-2v-3zm14 0 1 4 4 3 4-1-1-3-6-2zm154 1-4 2 1 3-3 1v2l10-1 2-4-1-3zm50 2-4 5 6 3 1-2-2-6zm347 0m-40 1-3 4 1 2 5-4v-2zm41 0v2h2v-2zm9 0-2 4 3 3 1-4 3-1v-2zm11 0 2 2v-2zm-547 1-1 5h3l2-2 2 2h3l-1-3zm-129 1v3h3l-1-3zm327 0m-165 1 3 3 3-1zm163 0-5 4 1 3 5-4 1-3zm231 0-3 4 1 3h5l-1-6zm-536 1v2h2v-2zm132-2-1 1-7 1v3h2v-2h3v2h-2l-3 5v2l3-1v-2l5-1 2-4 3-2zm25 2-1 1-1 7-4 6 5 1 3-2 1-6 3-1-3-2h2v-4zm420 0 1 2 1-2zm43 0v2h2v-2zm-535 2-1 7v9h5l1-3h-2l3-9-1-3zm-125 1-1 3h5v-2zm69 0-1 3 3-1v-2zm560 0v3l2-3zm-541 1m244 0v2h2v-2zm344 0-4 4v2l3 3 1 2h2v-11zm-346 3m272 0-2 1-1 10 3 1-2 5v4h2l3-5 2-2 1-5 4-1-7-8zm-429 1v2l3-1zm3 0m161 0m305 0-5 4v3l4-1 3-4v-2zm-429 3m-117 1v3l3-1v-2zm41 0-1 2h4v-2zm11 0 1 5 4 1 1-2h-3l-1-4zm-85 1-1 4h3l-1-4zm93 0m135 1-3 3v4l3-1v-2l4-2-1-2zm329-2-2 8-2 5 6 8-2 5 7 1h3l5-3 1 5h2l2-6 2-1v-3l-4 1v3l-2-2-2-1 1-6 9-3 1 3 4 1 2-4 7-1 2-3 3-2-4-3-5 1-7 6-7-1-2 1-1-2-3 5-2 2-4 1-1-4h-2l-2-9-1-2zm-460 3v2l3-1zm165 0m-212 1m67 0m131 0-3 3 1 3 5-6zm-214 3-1 2h2zm580 0-1 3h2zm-681 1m574 0v3l4-1v-2zm94 0-1 2-3 1v4l5-1 4 2-2-5zm-6 2m-538 2 1 2 4-1zm92 0 2 2v-2zm116 0-2 6-3 1 1 4 4-1 7-8-2-2zm227 0-3 6-2 2 1 6 11 8 2 4 3-1v-6l2-1v-7l-4-2-3-3-6-2 3-1-1-3zm145 0-1 3 4-1v-2zm-560 1m-69 1-2 4 4-1v-3zm54 0 4 8 2-2-1-4zm175 1v3h5v-2zm269 0 2 7 5 4 5 1v-3l-6-1-2-7zm128 0m-713 1-2 2-6 2 1 5 1 1h6v-3l1-7zm29 0v2l3-1zm656 0m26 0m-503 2-1 4h4l-1-4zm484 1-1 3h3l-1-3zm-672 1m131 0 1 2h2v-2zm-99 2-1 4 3 1 2-1-2-4zm509 1-5 4-4 3v4h2l-1 11 2 1h9v-4l3-6v-10h-2l-1-3zm-480 1m56 0-5 5 6 1 3-5zm4 0m160 0m27 0v2l4-1zm-220 1-2 5-2 4 4-2v-2l3-1-1-4zm73 0v2h2l1 3 3-1-2-4zm-173 1v7l-1 2-3 1v2l5 3 3-8-1-4-1-3zm20 1-8 17v2l6-1-1-2h-2l2-4 6 1-1-8 2-4zm15 0v3l4-1-1-2zm72 0v3h3v-3zm550 0 2 4 1 3 5-2 2-4zm-541 1 1 2zm-77 2m1 1m12 0-1 3h4l-1-3zm-11 1 4 2 2-2zm47 0v2h2v-2zm591 1m-20 1m18 0-1 1v6h2l1-7zm-20 1-3 3 4-1 1-2zm40 0-2 4 3-1zm-592 0-2 1v2h4l-1-3zm-117 2-3 5 2 1 3-1v-5zm656-1-2 2-9 1-2 4v4l-7-1-4-2v2h-8l-2 2v6l-2 1-2 6 5-1h12l6 1 1-6h6l2-1-1-9 5 2 1-2v-5l3-2v-2zm50 3-6 5v2l-4 1-2-1-4 2v6l1 2-1 8 1 5 6 2 1-7 1-1v-5l4-2-4-2 5-7 3-3v-5zm-10 1v3h2v-3zm-628 4v5l5 1v-2l-2-1-1-3zm524 0v5h3v-5zm-277 2-2 4 5-1v-3zm358 0m-621 2v2h2v-2zm88 0 2 2 1-2zm472 0 3 4 4-2v-2zm-295 2m-225 2 1 3 3-1v-2zm12 0-1 2h3v-2zm600 0-1 4 3-3zm-17 3-2 3 4-1v-2zm-389 1v2l-3 1-1 5 2 2 7-1 4-2-1-4-5-3zm312 1-3 3 1 2 4-1v-2h3v-2zm-522 2-1 3h6l1-3zm-18 1 1 2h3v-2zm546 0m-273 4-1 3-3 3 2 1 4-2 1-5zm336-1-3 1v2l5-1v-2zm-643 5-1 3 4 1 1-4zm310 0 1 2 2-2zm-30 1m193 2 1 7-2 2v14l-5 2v3l7 6h2v2l3 2h3l-1-4-5-3 1-12 3-3 2-1v-2l-7-1 1-4h2l1-3-3-5zm-177 1 1 3-3 4v2l-6-2-1 4 1 3 7 2 4 2-2-6 11 2 2-1v-2h-7v-4l3-1v-2l-2-1-1-3zm316-13-2 6h-3l-1-2-2 5 3 7 1 3 4 2-4 2-5 3-8 2 3-5-1-3h-10l-1 4v2l-2 1-2-5-2-2-4 1 2 3v4l-2 1-1-6h-3l-2-6-5-1-3 3-4 1-2 2-1 9 6 3 3 2h10l4 6 2 6h2l3-11 6-4v5h2v-2l10 2h7l3-7v-3l7 1 3 7 1 4-3 6 4 2 2-3v-4l4-2v-3l-7-6v-2l5-1v-2l-10-2-1-3h-2v-6l2-3-1-5h-4l1-6zm51 12-3 4-14 1v3h13l2 2 5-9zm-383 13-1 2-3 1v3h7v-6zm351 0-1 2 5 1v-3zm-617 2-2 2 1 4 4-3-1-3zm634 1-3 4h-10v6l5-2 7 5 3-1-1-4h-2v-4l6-1 1-3zm-664 4-1 3 4-1-1-2zm285-5-2 3 1 2h2l1 10 8 6v3l-4 5-7 1-2 7-3 3 1 4 1-3h5l1-1 1-7 1-1h8l4-2 5 5v2l-6 1 2 1v2l-2 1 4 7h3v-5l2-1h-2l3-5v-2l4 1 5-2v-9l-3-1 2-5-1-3-3 3-7 2 3 2 1 6-5-3-3-10 3 1 4-3-2-2-2-6-3-3-4 2 1 2h2l-2 5-3 1v5l-4-4-5-10-2-5zm35 5v4l3-1v-2zm16-1-4 2-1 3-2 2 10 1 2-1v-2l-2-2-1-3zm-289 5-1 3h4v-3zm-27 1-6 4 1 3 3-1 5-6zm274 4m294 3-3 8-3 4 1 5 4 3 1 5h4l-1-6h-2l3-7 3-6v-2l-5-4zm67-1v2l-7-1 1 3h2l-2 5-2 1 1 5 1 2h-9l1-7-3-1-2 1-1 5 2 4-5 1-3-4h-2l1-6-4-1v7l-3 1-5-1v4h-5l-2-6-4-5-4 2 5 3 1 6-1 3 2 9-4 2 2 4 3 4v2l-12 1 1 8 1 5 3 2 6-1 6-8 1-3v-8h3l2 9 6 3 1 1h5l4-5 1-5-1-3 3-6h3l2 3h3l-1-4-2-7v-6h6 4l3-14 2-2v-3zm-331 2m284 3-1 3h3l-1-3zm-595 1m71 0 1 2 1-2zm-40 1-4 4v2l6-1v-4zm9 0m5 0-3 2 2 3h6l-2-5zm541 3m-268 2-4 2v2l5 2 3-2-1-4zm268 2-1 4 2 3h3l-2-5zm-495 2v2l2-1zm169 1-2 4h2l1-4zm-229 1 1 3 1-3zm32 0v2h2v-2zm16 0v2l5 2-2-4zm239 1-2 5h2l1 3h2l1-6zm-277 2-2 2 1 1h5v-2zm14 1v2h2v-2zm276 2-1 3 3 6h-2v3l8-4-1-3h-5v-5zm165 0-5 5 1 2 4-1 4-3-1-3zm-494 2 2 2v-2zm60 0 2 3 2-1-1-2zm234 0 2 1 2 7-1 6-1 5h7l5-1 3 3-1-5-4-1 1-3-3-5-4-1v-4l3-1-4-1zm108 0v2l5 1-2-3zm68 0v2h6v-2zm-193 1v4l3 1-1-4zm-275 1m461 0 1 3 3-1zm-399 1 1 3h3l-1-3zm256 0 1 3 6 1 1-3zm89 0v3h5v-2zm-383 1-1 2 5 1-3-3zm7 0-1 5 3 1v-5zm552 0v2h-2v3l4-2-1-3zm-575 4v2l3 1 2-1v-2zm391 0-9 7v2l9-2 5-5v-2zm-366 2m255 0-2 5 3-1 1-3zm-273 1-4 5 1 4 3-5 2-1-1-3zm264 0 1 6 2-1-2-5zm-199 1v4l6-2v-2zm275 0v2l4-1zm-317 1-3 1v4l4-1 2-3zm200 1-2 3 5-1v-2zm183 0 1 5 3-1-1-4zm-374 2v2l4-2zm194 0m134-1-2 2 4 1 1-2zm40 1-1 5-6 2-7 1 2 4 5-1-3 6 1 4 5-1 5 1 1-3 2-1-2-2v-3l5-3-1-3h-2l-1-6zm80 0v2l5 1-1-3zm-261 1m-2 1-1 1v10l-2 5-6 1-4-1-2 3 1 1h7l2 4h3l1-2 5-2v-2l-4-1 2-4 3-1-1-4h-3l1-8zm189 1m14 0v3l3-1-1-2zm9 0-1 1v5l4 1 1-6zm-337 1 1 2 1-2zm169 1-5 5 2 4 4 4 4 1 3-1-1-6-2-5zm-53 2v2h2v-2zm76-1-4 2v1l7 1zm-39 2m136 0-1 2h3v-2zm-13 2-1 3h3l1-3zm66 0 2 7h2v-5zm-329 1-2 3 5 2v-4zm182 0 1 3h2l-1-3zm33 0-1 4 3 2 1-5zm-246 1-1 2h4v-2zm262 0 1 4 2 1-1-5zm24 0v5h3l-1-5zm89 2 2 4 3-1v-2zm-169 1v2h2v-2zm68 0-1 3 6 2 1-4-1-1zm-47 1v3l4 1 2-3-1-1zm114 0-1 8v3l2 7h5l1-2-1-10-3-6zm-375 1m388 0-2 3 1 4 4-1v-5zm-385 1 1 8 4 6 6-1-2-4-5-4-2-5zm396 0-2 6 1 4 5-3-1-5zm-406 1-2 2 1 4 2-2zm375 0v3l3-1-1-2zm-32 4-5 4-1 2-4 1v-2l-3-1-4 5v5l5 2 7 1 2-6 2-5 4-2-1-4zm-288 1 1 2 5-1v-1zm41 0m90 0-3 7 1 3 2-1v-2l2 1 2 9 3 3 4-1 5-4 2-1v-6l-3-5-10-2zm45 0v2h2v-2zm23 0v3l3-1v-2zm237 0v2l4-1zm-60 2v5h2l1 3 4-1-4-3-2-4zm-272 1-1 3h3v-3zm89 0v2l3 1-1-3zm-216 1m49 0-1 2h3v-2zm142 0v2h2v-2zm123 0v2h3v-2zm-51 1-1 3 3-1v-2zm108 0-2 5-3-2h-3l1 4 3 8h2v5l4 1 1-2 5 1 7 6 3-3-3-2 1-3 3-2-7-4-1-3h-7l-2-9zm66 0m-218 2v9l4-2-1-5zm-188 1v2l2-1zm8 0v2h2v-2zm28 0-6 5 1 5 6 1 2-4-1-7zm20 0-4 4 1 10 4 8 5 1 1-7v-4l-4-4 1-5 1-3zm112 0 1 3 2-2zm-215 3-1 2h2zm195 1 1 2 1-2zm216 0-1 9-1 5h4l1-13zm-193 1-1 5 4 4 5 1 1-4 2-1-10-5zm136 0-6 4 1 5 4-1 6-4-2-4zm21 0v2h-3l2 5h2l1 3 4 1-2-5-3-6zm-252 2m28 0-1 3 3 1 3-1v-2zm-136 1v3l3 3 4-1 3-3h-4zm307 0m13 0v2h2v-2zm-277 0-5 1h-4v2h-2l-3 6 3 3 3-1v-4h5v-3l4-1 1-3zm265 1v3l2-1zm-337 2 1 3h3l-1-3zm156 0 1 3h3v10l-2 2h5l1-3v-8l-3-4zm24 0-2 1 1 3 4 2v-5zm23 0-1 2h3v-2zm14 0-5 4 1 4 4 6h2l-1-6h-2l4-7zm33 0-1 3 3-1zm80 0-2 3 4-1zm-289 1-1 3 3 2v-4zm135 0m183 0 1 2zm-186 1-1 6-3 1 3 1 4-4v-4zm-76 2-2 5 3 2h3l-2-6zm144 0v6h5v-2h-3zm11 0-1 5-3 1-1 5h-6l-2 2 3 3 5-2 4-5 1-3 3-2-1-4zm106 0-1 4h2zm-220 1v2h2v-2zm128 0v2l3-1zm-181 1v4h-2v2l10-1 2 1-1-3-7-1v-2zm418 0m-492 2v3h4v-3zm286 0-1 3h4v-2zm204 0v2l2-1zm-397 1 1 2 3-1zm6 1-3 3 1 3-1 4-3 1-1-4h-3l-2 6 2 3v5l5 2-1 6 1 3 4 4 3-1v-5l-4-4 1-8-3-1v-3l9-1-1-6 2-3zm90 0-5 5 3 5 3 3 5-2 2-1 1-5-4-4zm-12 1 1 6 3-3-1-3zm41 1-3 5-5 9-1 1 1 7 5 3 8-3 1-4 3-3v-3l-5-3-1-3 1-5zm-184 1v2h2v-2zm33 0v2l4 1-1-3zm5 0m70 0m116 0 1 4 1-4zm48 0v2h2v-2zm-79 2m-218 1-2 1v2l3 1 2-1-1-3zm117 0v3h3v-3zm229 0 1 2 7 1-1-2zm-305 1v2h2v-2zm84 0m141 0-1 5 3-3v-2zm127 0 1 2 1-2zm-344 1 1 2 1-2zm60 0m51 0m224 0-3 4 1 1h5l1-2-1-3zm-225 1-2 3 3-1zm-140 1v2l5 2 1 2h2v-5zm45 0 1 3 1-3zm-31 1 1 4 2 3 3-3zm217 0m33 0-2 2 3 3h2l1-5zm78 0m-260 1 1 2zm-40 3-3 2 2 4h4l-1-6zm109 0m171 0v2h2v-2zm11-1-3 1v2h6l-1-3zm54 3-1 4 2-1zm-372 1v3zm39 0v3h2l-1-3zm28 0v3h2v-3zm13 0-1 4h2l2 4 5-1-2-4zm115 1v2h2v-2zm105-1-2 1v2l4-1zm44-1-9 2-1 5 1 5-4 1h-2l-1-3-5 1v8h2l1-5 8 2v2h2v2l5-1 1-9 3-5v-5zm-81 3v5l2-1v-4zm-111 1-1 1v6h3l1-2-2-5zm45 0m-58 1 1 3v-3zm59 0v2l2-1zm-67 2 1 2zm69 0 2 4 1 6h2l2 4 4-4-1-2h-3l-4-8zm23 2v2h2v-2zm144 0-1 3 4 1-1-4zm-377 1 1 3h2v-3zm52 0v2l3 1-1-3zm86-1-5 2-1-1h-10v2l10 1 7 4h10l1-3-4-3h-2v-2zm115 1v2l5 3 1-5zm-216 1-1 2 3 1 1 3 4-1-1-3zm-3 2-1 4 3-4zm155 0-2 7 4-1v-6zm192 0v2l6 1v-2zm-208 1v3l3-1-1-2zm28 0v4l4-1v-3zm22 0-1 2h4v-2zm100 0v4l2 3h2l-1-6zm-142 3v2l3-1zm-124 1 1 7h2l-1-7zm313 0v2h2v-2zm6 1-1 2 2 3h2v-4zm-339 1v4l5 3v-2l5 1 2 2h5l-3-3-6-3zm96 0-4 2 1 5 3 3h5l6-7v-2l-7-1zm58 0 2 4h6l-1 5-8 6-2 2-2 4-7 3 2 5 3 3 4-1 2-5h3l-2 7 2 4 7 3v-15l-4-1h-3v-8l3-1v-2l4-1 3-4 2-7-2-1v2zm-77 1-1 3 3-1v-2zm193 0v2l5 3-1 6 3 2 2 11-4 5v7l4 3 6-1 2-1v-5l-5-6v-6l1-3-3-1v-4l2-1-1-4-4-1-2-5zm60 0-3 4-3 1v3h10l1-2-3-6zm-279 1-1 3 1 5 3-3v-5zm86 0m-77 4 2 2v-2zm112 0 3 2 2-1zm8 0-2 6 5-2 6-3v-1zm10 0v2l3-1zm102 0 2 2 4-1v-1zm-144 1-1 7 4 1-1-7zm-126 2v6l4 1 1-5-1-2zm118 0-2 5h-2l-3-1-1 5 4 3 5-2 1-3 3-1-4-6zm-104 1 1 2h2v-2zm-35 0-2 1v4h3v-5zm340 1-2 2v3h7l3 1v-3l-5-3zm-217 2-4 4-2 1v2l5-2 3-4zm147 0-3 3 4-1 1-2zm-99 1-1 5-1 2 5-1 8 7h3l-4-6-6-5-1-2zm82 0v2h-2l1 5 4 5 1 3h-2l2 4 2 3 3-1 1-5-4-4-1-4 1-3-4-5zm57 0-1 2h4v-2zm-123 1-2 7 4 3v3l-3 3v7h4l1-1 7-1-4-7v-4h-3v-6l1-3zm100 3-1 2h3v-2zm-276 3v3h5v-3zm29 0v3h2l-1-3zm159 1v3l3-1v-2zm-63 6v2l2-1zm-41 2v2h2v-2zm29 0-1 2h4v-2zm188 0m17 1 1 5 4-1-2-4zm-126 6-1 6 4-3-1-3zm-101 2 2 2v-2zm25 0 1 4 1-2zm-30 6 2 4 2-3zm34 1 4 6 3-1-1-4-1-1zm72 0m44 1 3 5h3l-1-3zm-141 1v3h3v-2zm145 10v2l3-1z" fill="#2FABE2"/>
<path transform="translate(625,926)" d="m0 0 2 3 1 4 2 1h3l9 1 2 2h3l-1 4h-3v7l2 2h6l-2 1v5l3 1-2 3 2 3-2 3 5-3 6 2 1 3h2v6l4-1 5 1 1-2 3 3-1 6h-2l-1-3-5 1-4 4-12-3-2-1v-2l-6 2-8-1v2l-4 4v5 2l5 2 7 3 2-1 1 5-2 1 1 2-1 2h-2v2l-3 3v8l1 2 7 1 1 2h2l1-2 7 1 1 5-4 1v4l3-1 2-3h5l-2-5 7-7 1 1v-5l4 2 7 1 2 5-3 2 3 2 1 6 3 2v2h-2v2l6 1-1 6 1 5 9-1 2-5 1-2 4 8 3-1-1-5h2v-2l4-1v-3h-11l-1-2-2 1-1-3-2-2 4-4h4l1-3v-1l-2-2 5-2 4 1 1 5 9 1 8-4v-2l7 2 3 6 4-1 5-3v2l3-2h5v3l3 1 3 6 1 4h2l3 5 3 4 4 1-2 2-10 3h-3l-3 3-4 2-7 2-2 1v8l3 1-1 7v1 2l3 1h-3v2h-5l14 3v2l4-1 1 3 5 1 2 2 6 1h4l-1 5 3 3-8 1-2-1h-7l-4 1-4-1-1-1-3 2-5-1-2-2-4-1v7l3 1-3 1-1 5 7-1 3 2h5l1 3 6-1v-2l-5-2-2 1v-3h8l1-1 7-1 2-1 6 2 9-2 2-5 5-1h7v-4l-2-1 3-3h6l-1-8 5-1 22 1 2 1 2-6 11-4 4-2 3-1-2 5-1 1 4 1 2-1 2-6 6-4 4-1 1-3 4-1 1 1v52l-4 1-12-2h-26l-12 2-19 9-11 8-9 8-6 9h-2v-2l-3 1-1 4 3 3-2 7-3 16-4 1-1 2 6-2 3 11 7 14 8 10 13 9 12 6 10 4 2 3h10l1 2h-3v2h4v-3l4 1-2 1 3 4 2 1v5h-2v3h-5l-5-1h-6v-2h-4l-1 4-7-2v2h-2v-2l-2-1-1-4-11 2-3-1-1 3-8-1 1 5-5 1 1 3-2 2h-5l-1-3-5 1 1 3 2 2-6-1v-3l-2-1 1-1-3-1v-3l-4-1v-2l3-2-8-3 1 3-3 2 5 1-1 4-5-1-1-3-1 6-4-1 1-5h2l-4-6-5-7 7-1v-2l-7 1v-2l-11 2v-2l-3 1 2 2-6-1-10-3-5-1v-2l3-2-4-1v-2h-3v-2h-4v2l-7 1h-2l-7-9-7-11-9-14-10-18-5-10 1-4 2-2 1-8-8 3-3-3-7-20v-3h4v-4l-5-1-1-4h-2l-4-11 2-3-4-5-4-12 1-5 2-2-1-5-4-2-2-5-3-21 1-2h2l-3-4-1-4v-11l1-1h7l2 1v2h2l-4-6-1-5v-8l5-2-2-5-6-8-2-5-3-3v-12l1-3v-9l2-5 4 1-1 12-2 2h2l1-2 1-10 3-2h2v-2l-7-3h-4l2-17zm7 10 1 2 2-1zm6 21-3 2 1 3h4l3-4zm4 72v3zm-10 2 1 7 3 3 2-1-2-6 2-1zm21 14v3h2v-3zm76 3 1 3 3-2zm-44 1v2h2v-2zm32 0v2h2v-2zm-73 1m-3 1 1 4 2-1v-3zm96 1-1 6 1 1h6l-2-4zm-80 1v4h2v-4zm53 2m-81 1-1 5h3l1-3-1-2zm56 7v3h3l-1-3zm20 2v2h2v-2zm-40 3-1 3h5v-2zm69 0-1 3 3-1v-2zm144 8m-150 2-1 4h3l-1-4zm117 3m-184 4m216 4 2 2v-2zm-141 2-2 4 4-1v-3zm-87 2-2 2-6 2 1 5 1 1h6v-3l1-7zm29 0v2l3-1zm179 2-1 4h4l-1-4zm-188 2m32 2-1 4 3 1 2-1-2-4zm29 2m100 1v2h2l1 3 3-1-2-4zm-173 1v7l-1 2-3 1v2l5 3 3-8-1-4-1-3zm20 1-8 17v2l6-1-1-2h-2l2-4 6 1-1-8 2-4zm15 0v3l4-1-1-2zm4 3m1 1m12 0-1 3h4l-1-3zm-11 1 4 2 2-2zm-53 5-3 5 2 1 3-1v-5zm68 7v5l5 1v-2l-2-1-1-3zm-16 4v2h2v-2zm88 0 2 2 1-2zm-48 4 1 3 3-1v-2zm12 0-1 2h3v-2zm-16 7-1 3h6l1-3zm-18 1 1 2h3v-2zm-34 8-1 3 4 1 1-4zm14 18-2 2 1 4 4-3-1-3zm-30 5-1 3 4-1-1-2zm47 4-1 3h4v-3zm-27 1-6 4 1 3 3-1 5-6zm-7 12m71 0 1 2 1-2zm-40 1-4 4v2l6-1v-4zm9 0m5 0-3 2 2 3h6l-2-5zm46 9v2l2-1zm-60 2 1 3 1-3zm32 0v2h2v-2zm16 0v2l5 2-2-4zm-38 3-2 2 1 1h5v-2zm14 1v2h2v-2zm-53 4 2 2v-2zm60 0 2 3 2-1-1-2zm-58 2m62 1 1 3h3l-1-3zm-38 1-1 2 5 1-3-3zm7 0-1 5 3 1v-5zm-23 4v2l3 1 2-1v-2zm25 2m-18 1-4 5 1 4 3-5 2-1-1-3zm65 1v4l6-2v-2zm-42 1-3 1v4l4-1 2-3zm9 3v2l4-2zm60 4 1 2 1-2zm13 7-2 3 5 2v-4zm-31 1-1 2h4v-2zm14 12 1 2 5-1v-1z" fill="#2FABE2"/>
<path transform="translate(989,1139)" d="m0 0 3 1 1 5h-2v3h-2l1 4h2l2 7 7 8-3 2-2 4 7 1v2l-7-1 1 7 2 2v5l4 2-1 7h2v2l-7-1-3 4h2l3 3 1-4 5-1v-2l7 2 1 3 3 2v2h-5v-5h-2l1 5 1 4h-2l-1 3-9-4-2-1-1 4h-2v2h2l1 4 2-2v6l3 1v10l1 2-5 1 4 2v3l-5-2-1 12-1 3v9l2 1 5 3v7h2l-1 7h2v4l-5 1-2-7h2l-1-9h-2l1 5h-2l-2 3-3 1-1 7v2l10 8 2 4v1l4 1v2h-2l2 5h-3l-1 3h-3v2h5l-1 3 4-1 4 1 2 6-1 2 1 5 5 1v3 2h-2l1 9 4 1 1 3-3 4 6 1v2l-2 2-3 1-3-2-1 4-3 2h-5v-5l5-2 3 1v-2l-11 1-1 5h-3v-2h-8l-5-2v-6l8-7-1-5-5-1-5-4-1 10-1 7-4 1-5-2 3 9v2l-3 1-3-4v-7h-8l-2-1v2l8 1 1 7 2 2 2 8-1 3 2 1-1 4-4-1-5 1-51-8-2-1-1-11h-2v-2l-3-1-7-7-10 1-6 4h-2l-2 6-7-2v-4l7-1 5-7 1-6h2l2-5 3-2 14 1 3-1 3-7-3-3-6 2v2l-6 5-4-1 2-6-4-1-2 4-3 5-5 4-7-2 3-9 1-2-4 1-1 11h-3l-6-5-1-7v-3l-5 7v5l-4 10 1 5 5 2 3 2v2l-6-1-7-4-4-2-2-3 1-5 5-2v-1h-5l-3-4-5 1-1 4 1 4-4 1-16-8-2-2-7-2-1-1 1-8-1-5-5 4-1 3-5-1-1-7-7-1-1-3 1-1 10-1 1-2h4l-1-5-4-8v-2l4-3-5-1v6h-2l2 3-1 6-2 2-11 1-4-2 1 5-5-2-7-5-1-3 5-1-3-7-2-3-4-2v-3l5-1 1-5-4-1-1 5-2 1v4l-5 2v3l-4-2-9-7-8-7v-2l-4-2-7-7 2-4h-2l-2 2-9-10-12-14v-2l6-3 4-4 3-2 3 1-5 3h-2l2 2 5 1 8 2h3l4-1h4l8-1-1 3 7-1v2l-6 2 8 10-1 4h-2v3l4 1v-8l2 2 1 3h4l1-3h-5l-1-2 3-2v-2l6 1 3 2v2h-4v2h5l-1 4 4 1 2 4h1v-3h2l1-2 4 1-1 3 6-2-1-3 3-1h3l-1-5h8v-3l7 1 10-1 1 7h2v-2l7 1 1-3 11 1v2h2l1-2 6 2v-3h2l-1-5-3-1-1-4 1-1-3-1v3h-4v-2l2-1-7-1 2-2 13 1h5v6h2l1-5 4 1 1 6h-4l-1 6h5l4 6 3 2 1-3h2l1-5 1-3h-6l-2-1-3-6 1-4 8 4 2 3 4-4 7 1 6 2 2-5-3-3 1-4 10-5 12-9 9-7 2-1h6v2l3 1 3 3 4 2-4 4h-2l-1 5-7 9 6-4h6l-1 5-7 5h-3l1 2h5l2-4 4-3h2l-2-8h-3l1-3 4 1h2l4-1 5 1 5-2-2-7-3-5-7-1-5-6-3-1-1-2-7-2 2-10 4 3-2-5 3-3 13 1 1-3v-14h-2l-1-5 4-1-1 5h2l2 7v3l6 4 3 4-6 7h-7v6l-4 4v3l1-2 5-1 2-9h9l4-2 6 6-1 2-4 2v4l2 5 3 1v-8l3-5 9-1-1-9-2-1 1-7-3 3-4 2 1 1v6l-4-1-3-5-1-7 4-1 2-1-2-2-2-6-2-2-3 1v2h2l-1 5-4 1 1 5h-3l-9-15v-6l7 1 4-4 6-2 1 4v3l7 1 4 3-2-3v-3l3-1 10 2v-2l-5 1-3-3 1-3h3v-2l-3-1v-3l-4 1-2-2h5v-4h3l1-4zm-1 2-1 3-3 3 2 1 4-2 1-5zm-27 20-1 2-3 1v3h7v-6zm24 7v4l3-1v-2zm-26 9m30 4m7 10-4 2v2l5 2 3-2-1-4zm-58 5-2 4h2l1-4zm36 9 2 1 2 7-1 6-1 5h7l5-1 3 3-1-5-4-1 1-3-3-5-4-1v-4l3-1-4-1zm-17 1v4l3 1-1-4zm43 2 1 3 6 1 1-3zm-30 7-2 5 3-1 1-3zm-9 1 1 6 2-1-2-5zm-41 3-2 3 5-1v-2zm3 2m-7 1m-2 1-1 1v10l-2 5-6 1-4-1-2 3 1 1h7l2 4h3l1-2 5-2v-2l-4-1 2-4 3-1-1-4h-3l1-8zm44 3-5 5 2 4 4 4 4 1 3-1-1-6-2-5zm-53 2v2h2v-2zm76-1-4 2v1l7 1zm-39 2m42 3 1 3h2l-1-3zm-7 4v2h2v-2zm-240 2m3 1 1 8 4 6 6-1-2-4-5-4-2-5zm-10 1-2 2 1 4 2-2zm186 5-3 7 1 3 2-1v-2l2 1 2 9 3 3 4-1 5-4 2-1v-6l-3-5-10-2zm45 0v2h2v-2zm23 0v3l3-1v-2zm-95 3-1 3h3v-3zm89 0v2l3 1-1-3zm-216 1m49 0-1 2h3v-2zm142 0v2h2v-2zm28 3v9l4-2-1-5zm-188 1v2l2-1zm8 0v2h2v-2zm28 0-6 5 1 5 6 1 2-4-1-7zm20 0-4 4 1 10 4 8 5 1 1-7v-4l-4-4 1-5 1-3zm112 0 1 3 2-2zm-215 3-1 2h2zm195 1 1 2 1-2zm23 1-1 5 4 4 5 1 1-4 2-1-10-5zm-95 2m28 0-1 3 3 1 3-1v-2zm-136 1v3l3 3 4-1 3-3h-4zm43 0-5 1h-4v2h-2l-3 6 3 3 3-1v-4h5v-3l4-1 1-3zm-72 3 1 3h3l-1-3zm156 0 1 3h3v10l-2 2h5l1-3v-8l-3-4zm24 0-2 1 1 3 4 2v-5zm23 0-1 2h3v-2zm14 0-5 4 1 4 4 6h2l-1-6h-2l4-7zm33 0-1 3 3-1zm-209 1-1 3 3 2v-4zm135 0m-3 1-1 6-3 1 3 1 4-4v-4zm-76 2-2 5 3 2h3l-2-6zm144 0v6h5v-2h-3zm11 0-1 5-3 1-1 5h-6l-2 2 3 3 5-2 4-5 1-3 3-2-1-4zm-114 1v2h2v-2zm128 0v2l3-1zm-181 1v4h-2v2l10-1 2 1-1-3-7-1v-2zm-74 2v3h4v-3zm93 1 1 2 3-1zm6 1-3 3 1 3-1 4-3 1-1-4h-3l-2 6 2 3v5l5 2-1 6 1 3 4 4 3-1v-5l-4-4 1-8-3-1v-3l9-1-1-6 2-3zm90 0-5 5 3 5 3 3 5-2 2-1 1-5-4-4zm-12 1 1 6 3-3-1-3zm41 1-3 5-5 9-1 1 1 7 5 3 8-3 1-4 3-3v-3l-5-3-1-3 1-5zm-184 1v2h2v-2zm33 0v2l4 1-1-3zm5 0m70 0m116 0 1 4 1-4zm-31 2m-218 1-2 1v2l3 1 2-1-1-3zm117 0v3h3v-3zm-76 1v2h2v-2zm84 0m-76 1 1 2 1-2zm60 0m51 0m-1 1-2 3 3-1zm-140 1v2l5 2 1 2h2v-5zm45 0 1 3 1-3zm-31 1 1 4 2 3 3-3zm217 0m-149 1 1 2zm-40 3-3 2 2 4h4l-1-6zm109 0m-136 3v3zm39 0v3h2l-1-3zm28 0v3h2v-3zm13 0-1 4h2l2 4 5-1-2-4zm115 1v2h2v-2zm-43 2-1 1v6h3l1-2-2-5zm45 0m-58 1 1 3v-3zm59 0v2l2-1zm-67 2 1 2zm69 0 2 4 1 6h2l2 4 4-4-1-2h-3l-4-8zm-210 3 1 3h2v-3zm52 0v2l3 1-1-3zm86-1-5 2-1-1h-10v2l10 1 7 4h10l1-3-4-3h-2v-2zm-101 2-1 2 3 1 1 3 4-1-1-3zm-3 2-1 4 3-4zm155 0-2 7 4-1v-6zm-16 1v3l3-1-1-2zm28 0v4l4-1v-3zm22 0-1 2h4v-2zm-42 3v2l3-1zm-124 1 1 7h2l-1-7zm-20 2v4l5 3v-2l5 1 2 2h5l-3-3-6-3zm96 0-4 2 1 5 3 3h5l6-7v-2l-7-1zm58 0 2 4h6l-1 5-8 6-2 2-2 4-7 3 2 5 3 3 4-1 2-5h3l-2 7 2 4 7 3v-15l-4-1h-3v-8l3-1v-2l4-1 3-4 2-7-2-1v2zm-77 1-1 3 3-1v-2zm-26 1-1 3 1 5 3-3v-5zm86 0m-77 4 2 2v-2zm112 0 3 2 2-1zm8 0-2 6 5-2 6-3v-1zm-32 1-1 7 4 1-1-7zm-126 2v6l4 1 1-5-1-2zm118 0-2 5h-2l-3-1-1 5 4 3 5-2 1-3 3-1-4-6zm-104 1 1 2h2v-2zm-35 0-2 1v4h3v-5zm123 3-4 4-2 1v2l5-2 3-4zm48 1-1 5-1 2 5-1 8 7h3l-4-6-6-5-1-2zm16 1-2 7 4 3v3l-3 3v7h4l1-1 7-1-4-7v-4h-3v-6l1-3zm-176 6v3h5v-3zm29 0v3h2l-1-3zm159 1v3l3-1v-2zm-63 6v2l2-1zm-41 2v2h2v-2zm29 0-1 2h4v-2zm79 7-1 6 4-3-1-3zm-101 2 2 2v-2zm25 0 1 4 1-2zm-30 6 2 4 2-3zm34 1 4 6 3-1-1-4-1-1zm72 0m-97 2v3h3v-2z" fill="#4CB8E9"/>
<path transform="translate(744,881)" d="m0 0 10 6 9 6 1 5 4 2 5 2h9 2l4-2 4 4h-7v6l5-1 3 8v4h-2v2l5 1 3 4h-4l-1 5v4 2l5 2 3 3-7 1 2 12h-3v2l14-1 3-1 2-2v5l-3 3 5 1-5 5-1 10 2 1-3 2 1 5 2 2 1 6h-3l-2 4-6-1v6l6-1-3 7-4 3v-2h-3v3l3 2-3 1-2 4h-2v7l3 2v5h-3v4h3l2 4v-4l-1-3 5 2 1-3h3v-2h12l2-4 6 1 3-2v3l-2 1-1 3h2l4 10 1 3-1 4 10 1-1 3 4 4 1 3-1-6h3l1 3v-6l-1-4 3-1 3 1-1-6h2v2l2 1 1 4 2 1-1-6h2l1-2 1 3h-2l2 6 2-1 9 3 1 2-2 4h-2l1 2 4 2-1 2-5 3-5 1v-2h2v-4l-5 1-1 7-4 1-2 2-9 2-4 1-2 6-26-1h-3l2 6-1 2-8 1 1 2 1 3-1 2-12 1-1 5-3 2-9 1-5-2-1 1-7 1-4 1-5-1 1 2 2-1 5 3-1 3h-6l-1-2h-5l-3-2h-7l1-5 2-1-2-1-1-5 1-2 5 1 3 2 5-1 2-1v2h6l3-1h9l4 1 1-1-2-2 2-5h-2l-1 2-4-2-5-1v-2l-5-1-3-3-2 1v-2h-7l-8-3 3-1 3 1v-5h-2l1-2 1-5-2-3 4-4 3 1 1 3h2l-4-8v-2h3l1-2 5-1 1-3 10-2 3-2-4-1-1-3-3-4v-2h-2l-5-10-4-3-6 1h-3l-4 3h-3l-3-7-6-2-1 4h-3l-1 2-2-1-1 2-9-1-2-6h-3l-3 2 3 1-4 4-6 1v4l5 4 10 1 1 4h-5v2h-2l2 5-4 2-3-4-1-3-2 5-5 2-5-1-2-5 1-5-5-2v-2h5v-2l-3-1v-2h-4l-1-5-4-3h3l1-3-3-2-5-1-2 1-1-1v3h-3l-5 5h-2v-2h-2v4l5 2v1l-5 1-2 3h-3l-1-4 5-1-1-5h-7v2l-4-1v-2h-7l-2-4v-8l4-2v-2h2l-1-6h2l-1-3-2 2v-2l-6-2-4-2h-3l2-10 4-2v-2l5 1-2 1v3l9 1v-2l4 1 1 7h3l-2-5 1-4h7l3 1 4-5h5v4h2l-1-4 1-3h-3l-3 1h-3l-3-1v-6l-2-1h4l-1-4 4-2h3v-7l2 4 4 3v2l5 2 2 1h10l5 1v-2l-7-1-6 1-3-1-2-8-5-1-2-2h11l5-1v-2l-5-3-1-3 2-3 1 2-1 2 8 1 3-1 7 6 5 3 4 1 2-4 1-3-5-2h-3l-1 2h-5l-6-8-2-1v-3l-2-1 6-4 2-4-3-9 3 2v2l4 2 10 3h4v2l6-1 2 1 2-2-1 5-5 2 14 2 10 6h2v-3h2l-2-3-5-3-7 1-3-7v-3l2-4 3 1-1 5 5 1-3-6-1-8h-2l-1 2v-3h6v-4l-2-1 4-2 4 2-2-5-5 1-4-1 1-2 8-1 1-5v-4l-3-2v-2h-2v-4zm1 3v2l4-1zm7 4-1 4-2 2 2 1h11v-2l-6-2zm5 12-1 3-2 2 2 3 5 1 3-5-1-3zm-10 1m22 4 1 3v-3zm-20 4 2 5v4l5-1 2-1-1-4zm16 4v2h2v-2zm10 2-3 1v3l4 2 2 4 3 3 3-1v-2l-3-1v-3l3-2-2-4zm-29 2v2h2v-2zm11 6 2 4v-4zm10 2-1 2v7l1 2 5-1 4-1 1 4 3-1v-6l-5-5zm21-1-3 3 4-1zm-38 3 1 5 5-1 1-3zm30 1m-73 0-3 3v7h4l3-2h5v-3l-8-5zm75 5 5 7 3 1-2-7zm-24 3-2 3-1 5-3 3 5 7 4-2-1-5-2-3 2-2v-5zm-36 4-2 3 3 3 1 4 6 1-2-4-4-3zm68 1m-9 2-2 3 3 9 2-4h2l1-5zm8 0v2l2-1zm-70 2-1 2h2zm72 0m-52 1-3 3v3h2l1 3 4 2 2 5h3v-9l-4-4-3 2 1-5zm34 3-5 4-1 6 2 8-2 4 4 1 6-9v-4h-2l-1-7 1-3zm-78 4-2 2 4 3 2-1-1-4zm89 3-1 4h8v-2l-5-2zm-63 3-9 5-1 5 4-1 1-3 7 1 1-5-1-2zm13 2 2 5 3 1-1-5zm47 1-2 15-1 2-4 2 4 4 5 2h3v-3l7-1-1 5 2 2v-2l7-2v-3l2-1-1-1h-6l1-5-5-1-3 4-4-4v-10zm-24 2-1 6 4 1 3-2-3-5zm-56 4 1 6 2-1-1-4zm100 1m-59 3v3l2 3v2l-3 1 1 4 3-3 4-5-5-5zm-17 1v2l4-1zm-15 0-3 3 3 3h4l-1-4h-2zm51 3-2 1v4l4-1v-4zm-83 1-2 5 5 2 2-3-3-4zm52 1-4 4 5 5 4-4-1-4zm-42 2 2 5h2l-1-5zm14 1-1 3 3-1v-2zm68 0 1 2 1-2zm-16 3-1 2 3-1zm-87 2-5 4 7 1 1-4zm50 0v2h4v-2zm44 0v4h2v-4zm-127 2v3h5l4 2 4-2v-3zm139 0v3l3-1-1-2zm-41 1 1 4 2-4zm-50 1-3 4h4l2-4zm12 1v4l5 1 4 3h4l-1-5-3-3-3 1v2zm88 1-1 4 5 4 7-1v-4h2v-2l-5 1-5-2zm-133 1-1 6h4l-1-6zm92 1 1 5h1v-5zm20 2-1 3 1 3h2v-2l5-1v-2zm-38 0-3 1v2h5l-1-3zm19 4 1 6h4l3 6 2-1-1-4-5-6zm52 4-1 3 4 2-2-5zm-149 1-1 2h4v-2zm48-1-3 2v7l5-3v-2l7-1v-2zm88 0-5 1v2l5 1 3-1v-2zm-14 2-2 2 1 3 3-5zm-53 2-1 3h3v-3zm11 0v3h2l1-3zm15 0-3 3-5 3 2 4 7 1v-3l4-1 1-2zm-82 1-1 1v5l2 1 1-7zm19 0v2h2v-2zm-35 4-1 4 4 2v-3zm47 1-1 4 4 1-1-5zm98 0v3l3-3zm-68 1-2 1v5l5-1-2-5zm49 1v3l3 2-1 3-2 1v2l7 1 1-6-1-5-1-1zm-11 1 1 2 1-2zm27 0-3 2 1 4 3-1 1-5zm-35 1 1 2zm-56 2 1 3v-3zm-35 8-1 3h2zm115 3-1 4 3 1v-4zm34 3v2h3v-2zm4 2-1 4 1 4v2l5-1 8-3 1-5h-3l-3-1zm-97 1m64 0 1 4 5-1-2-3zm-78 2-3 3v4l5-1 1-5zm84 1m1 1m3 1m-3 7v2h2v-2zm-16 4 4 4 2-1-4-3zm60 0v3l3 1v-4zm36 3v3h2l-1-3zm-90 1-4 3-6-1 1 4 6 5 3-1 2-5 2-2v-3zm14 0 1 4 4 3 4-1-1-3-6-2zm25 5-1 5h3l2-2 2 2h3l-1-3zm33 2 3 3 3-1zm-10-1-1 1-7 1v3h2v-2h3v2h-2l-3 5v2l3-1v-2l5-1 2-4 3-2zm-47 4-1 7v9h5l1-3h-2l3-9-1-3zm-37 2m85 4v2l3-1zm3 0m-80 4v3l3-1v-2zm41 0-1 2h4v-2zm11 0 1 5 4 1 1-2h-3l-1-4zm8 1m4 2v2l3-1zm-47 1m7 8 1 2 4-1zm20 1m-15 1 4 8 2-2-1-4zm10 6 1 2h2v-2zm-14 4-5 5 6 1 3-5zm4 0m-33 1-2 5-2 4 4-2v-2l3-1-1-4zm7 2v3h3v-3zm9 1 1 2zm-28 4v2h2v-2zm17 3-2 1v2h4l-1-3z" fill="#4CB8E9"/>
<path transform="translate(974,600)" d="m0 0h40l36 3 29 5 30 7 14 4 1 3-1 4 2 1v-5l1-1 7 1 16 6 1 5-1 2 4-2v-2l6 1 21 10 39 22 17 12 10 8 26 22 13 13 7 6 9 11 11 13-1 4h-2l1 2 4-1 5 4 6 10 1 3 6 5 8 13v3l-9 2-3-3 1-4 2-1v-5h-8l-5-5-10-14-11-13-2-4 6-2v-2h-7l-9-6-7-6-16-16-11-9-11-10-15-11-14-9v-3l3-1-3-3-2 4-5-2-27-15-11-6-19-9-37-13-29-7-31-5-27-3h-50l-27 3-24 4-18 4h-2l-6 3-13 3-6 2-12 5-20 8-30 14-27 16-20 14-13 10-10 9-8 7-7 7h-2l-1 3-7 6-7 8-13 14-15 20-11 16-5 1 1 5-13 23-9 16-4 8-4 9-2 2-5-7 1-7 12-25 13-23 11-16 12-17 8-10 11-13 11-12 14-14 11-9 10-9 12-9 19-14 21-13 23-12 21-10 7-3h6l5-4 10-3 7-3 24-7 29-6 21-3zm166 27m1 1m1 1 1 2zm124 79-2 1v3l4-1-1-3z" fill="#359CCF"/>
<path transform="translate(1370,1054)" d="m0 0 4 3 1 6-3 1 3 5-5 25-5 15h-2l1 5-8 24-12 27-12 23-10 16-4 1-3 9-3 2-3-6-1-9 1-2 6-1 3 1 3-14 3-5-8 1-3-1 3 3-1 5-3 1 2 7-9 1-1-5 1-3h-4l1 7 1 3-6 1-5-5v-6l-3-1 1 7-4 2-5-2v4l-3 1-3-3-5-8-2 1 4 3 1 6-1 3 2 9-2 2h-3l-1 2-4-1 2-4-3 1-1 3-3-6-4-3h2l-1-6h-2l3-10 3-5-4-2-3-3 1-5-3-3 5 1 4 6 1 6h2l2-11 5-4h2v5h2v-2h7l10 2 3-10 4-1 5 3 2 6 1 4-3 6h4v-5l5-2v-3l-4-2v-2l-4-2-1-3h7v-2l-10-2-4-5 1-6 1-5h-5l2-7-2 1-2 5h-5v-3h-4l1-2 3 1 1-6 8-1-2-5 1-5 1 2 4-1v-5l4-4-4 3h-9l2-7 2-3h-2l1-2 4-3h3l1 5h2v-5l4-2v-3l-4 1v3l-3-1-1-6 5-5h5l3 3 3-1 3-3h5l2-4 2-1-3-2-7 1-2 4-3 2-9-1-6 6h-4l-1-4h-2l-3-11h-2v6l-3 5 1 4-7-1v-5-1h-2v-2h-2l1-3h3l-6-7 4-1 6 2 7-4-7-2 2-4 5-1 5 1 1-2h3l3-2 4 1-4 2-1 3 5-3-1 5v3 2h2v-2l5-1 5 4 4 2v-2h3v-2h2v-8h4l6 2 3 2-1-4 3-2-5-2v-3l5 2 2 1 1-2 6 3 7-2h5 2l7-2zm-30 6m1 1v2h2v-2zm9 0-2 4 3 3 1-4 3-1v-2zm11 0 2 2v-2zm-79 4 1 2 1-2zm43 0v2h2v-2zm-31 3v3l2-3zm47 1-4 4v2l3 3 1 2h2v-11zm-34 4-5 4v3l4-1 3-4v-2zm35 11-1 3h2zm-13 1-1 2-3 1v4l5-1 4 2-2-5zm-6 2m42 2-1 3 4-1v-2zm-3 3m-28 1m26 0m-19 3-1 3h3l-1-3zm-27 8 2 4 1 3 5-2 2-4zm22 6m-20 1m18 0-1 1v6h2l1-7zm-20 1-3 3 4-1 1-2zm40 0-2 4 3-1zm-3 4-6 5v2l-4 1-2-1-4 2v6l1 2-1 8 1 5 6 2 1-7 1-1v-5l4-2-4-2 5-7 3-3v-5zm-10 1v3h2v-3zm-23 6m31 6-1 4 3-3zm-17 3-2 3 4-1v-2zm-8 8-3 1v2l5-1v-2zm20 8-3 4-14 1v3h13l2 2 5-9zm-32 13-1 2 5 1v-3zm17 3-3 4h-10v6l5-2 7 5 3-1-1-4h-2v-4l6-1 1-3zm-56 20-1 3h3l-1-3zm-9 5m0 4-1 4 2 3h3l-2-5z" fill="#30ACE2"/>
<path transform="translate(1087,958)" d="m0 0 2 1v2l3 1v2l4 2v3l-5-1v3h8l1 3v-8l2-1v11l-4 1-1 2 5 1v13l-8 3 3 4 1 2h4l1 9v40l-3-1v-2h-5l-1 5-7 1-4-1 3-2h2l-1-4-6 2-1 4-2 1h-17l-4 1-2-1v-2l6-3 3-1-1-5-3-1 1 3-2 3h-8l2 7-6 4h-3l1-3 2-2v-2h-3l-1 5-7-1-2 2-7-1-4-1v4l-3-1-1-3h-2l-4 7h6l2 1 2 6-13 12h-2l-1-5-4-1-2-1 6 8-2 6h-1v-5h-5l1-5-3-5-4 1v-6l-1-2 5-1h2l-2-5 1-2h2l1-4 5-6 1-4 7-2 3-9h2l1-7-8 2h-5l-1 2-3-3-1 2-2-5-1-3-4 3-7 1-3 1-1 3-6-5-4-1v3l-7-2h-4l1-6 6 1-1-4-8-1-3-3 3-1-2-2-5-4 1-2 4 1 7-2-1-2h2l1-4 2 4-1 2 1 5h-3v-2h-2l-1 6 1 4 2-1 1-4 2-1v3h2l1-2 6 4 5-2h2l1-3h3l1 2h2v-3h2v-2h2v-2l-6 1-2-3v-5l4-1 4 3 3-3h8 3 5v2l11-3h2v-2l-7-2 2-3 3 1h3l1 4h3v-3l8-2 1 1 1-2 6-1-1-2h3v-2h-2l-2-5-4 1v-3l-10 4-4-3 1-4 5-1v-2h-2v-2l4-1 6 2v3h7l1 2 1-2 4 1-1 7 5 1 1 6 7-1-2-4-8-5-1-5h2v2h3v4h2v-2l7-1 1 2h-4l5 1 5-1 1-4 9-3-5 1-2-1 2-6h-3l1-4zm-46 13v3h2l-1-3zm-8 2v2h2v-2zm60 0-1 3-3 1v2l7-2-1-4zm-9 1-3 2v3h3l3-4zm4 2m-1 7-3 1-1 7-2 4 5 1 1-7 3-1v-5zm-16 1v3l1 1h5l-1-4zm-28 8 1 3h2v-2zm11 1-1 5h2l1-5zm6 0m1 1 1 5 1-4zm-68 6 1 3 1-3zm15 1-4 4 2 6 2-1 1-2 7-1-1-5-1-1zm37 0 1 4 1-3zm24 0v2l4-1zm26 2-2 1v4h2l1-5zm-11 2v3h3v-3zm-39 2 1 5 3 2h3l-1-5-2-2zm17 0-2 4 6 5h2v2l4-1 5-1h3v-3l-5-3h-6l-5-3zm-38 1-3 3-4 2-1 4 1 2 10 1v2h3l-1-5-2-4 1-4zm-16 3-3 7-1 4 1 1h6l1-7-3-5zm34 1-5 2v12l8 4 4 5h2l-2-11-4-5-5-1 4-5zm-49 1-4 3v2h-4v-2l-5-1-3 1-1 4h4l1 4 5 2 3-6 6-5v-2zm105 3-3 2v2l-4 1v2l-4 1v3l5 2h4v-8l4-3v-2zm-123 4-2 3 3-1zm-10 1v3h2v-3zm95 2-2 4 1 1h5v-5zm20 1-7 2v4h4v-2h3l1 2 4-1-1-5zm-16 8v3h4v-3zm-32 0-4 2v1l8 2 4 4 1 4 7-2-4-5-8-4zm43 4v3h6l-3-3zm-50 4 1 2h2v-2zm48 3 1 4 1-4zm-56 1-3 3-1 3 4 2 13-1v-2l-8-2-3-3zm21 4-1 3h7l-3-3zm-28 5-4 3v3h5v-6zm2 10m-2 1-5 4 1 3 5-4 1-3zm-13 5v2h2v-2z" fill="#4CB8E9"/>
<path transform="translate(1102,1218)" d="m0 0 3 1h-2l2 4h2l1-3-1 6 3-2h3v4l-3 2 1 3 4-4-1-5 6-2 2 6 2-5 3 1-1 1v5l3 1 1-6 2 1 2 6-2 1 1 5h2v-5l9 1 5-4 5 2v3l-3 3v-2l-4 1 1 4-4-1-2 1-2 4-3-5-2 5 1 6h2l1 3-1 2h-3v-6h-2l-2 5-6-2 3 5 1 6 2 1 1 5 3 1 1-3 5 1 7 6 2-1-3-3 2-4 2-1-6-3-1-3h-7l-1-3 5 1v-3l5-2 1-1-1-7 3-2 2 1h8l4 2-2 6h2l1 2h3l-4-3v-2h8l3-1v4l-1 3h10l-1 5-7 1 6 4v5l-7 7h-3l-1-7v8l3 1h9l3-1v3l-7 1h-11v-5l-4 1-6 3h-3l-2-3h-3v3l-1 2-1 5-4 1-3-1-4 2v2l4-1-1 4-2 1 2 3 4 1 1-2h2v3h4 2v2h3l1-3 6 4-4 1 1 1 4 1 1-2v3l-8 1v8l-2 1 4 3-1 2-7-1-1-2-5 3-7-1-2-2-3-1v-3h-2l-2-3-6-1-1 5-7 2-10 2 3 3v3l-2 1 3 3-4 3-6-1-2 5-2-3 1-6-3-3 1-3h2l-1-4-4-1-2-5 4-1v-2l-2-1 2-2h4l1-3 4-3 3-5 2-1 1-3-14 1-5-2-3-3 2-5 3-3 4-2-9-1-2-1v-2l-2-1 1-2-8-1h-9l-6-2 4-3-3 1-2-5-1-2 10 1 4-10 5-2-1-3-5 2-3 4h-4v-2l-4 1-2 1 2-4h4v-2l-3-1v-2l-6-1v-4l-2-1 1 4h-2l-1-3h-5l-1 2 2 1-3 1-9-1-2-3 1-4 2 4 2-3 11-2 6-1v2h2l1-2 6 1v-2l11-3v-2l4 1 7-2 3 4-5 1 2 3h5l-1 4-1 2v4l5-2 5 1 2-3-2-2 1-4 4-2v-3h-2l-3-7zm1 6m14 0v3l3-1-1-2zm-39 5-1 2h3v-2zm-13 2-1 3h3l1-3zm-8 2v5h3l-1-5zm55 4-1 8v3l2 7h5l1-2-1-10-3-6zm13 1-2 3 1 4 4-1v-5zm-20 2v3l3-1-1-2zm-29 9v2h3v-2zm81 8-1 9-1 5h4l1-13zm-57 1-6 4 1 5 4-1 6-4-2-4zm21 0v2h-3l2 5h2l1 3 4 1-2-5-3-6zm-53 3m13 0v2h2v-2zm-12 1v3l2-1zm22 3 1 2zm-1 3-1 4h2zm8 12 1 2 7 1-1-2zm47 1 1 2 1-2zm-9 1-3 4 1 1h5l1-2-1-3zm-23 3m-20 4v2h2v-2zm11-1-3 1v2h6l-1-3zm26 3-9 2-1 5 1 5-4 1h-2l-1-3-5 1v8h2l1-5 8 2v2h2v2l5-1 1-9 3-5v-5zm-31 14v4l2 3h2l-1-6zm47 4v2h2v-2zm6 1-1 2 2 3h2v-4zm-9 2-3 4-3 1v3h10l1-2-3-6zm-38 5 2 2 4-1v-1zm-4 12-1 2h3v-2z" fill="#4CB8E9"/>
<path transform="translate(1181,973)" d="m0 0 9 2 5 5 2 4-4 6v2l2 1 2-4 5 1 2 2 2 4 4-2v-3-6l5-2 6 3 2 3 6-1 2 1v2l3 1-4 2 3 2 9-1 1-4h2l1-4 5-3 10-2 6 2v4l-8 2-1 2h2v2h-2l1 6-8 1-1 2v-2h-2l-1 3h-2v2l6 2h4v3l5 1-1 4-3 2v5h-2v2l3-1 1 4 2 1-1 4h-2v2l6-1 1-2 6 2v-2l3-1 1 3 2 1 1 5-3 1 1 3h4v2h-2l1 4 5-4v3l-3 3-8 4h-5l-1-1v6l-7 2-5 3h-3l-1 3-1-2 1-2h-2v2l-2 1-1 4h-8l1-3 6 2-2-6-4 2-1-4-6-2-1-5h-6l-2-1-4-1 2-6 1 3 4 2v2h6l-3-2 3-1-1-4 1-4h-8l-2 1-4-1v-3l-7-2-3-3 1-5h2l-2-3 1-5 4-2 2-3-6-1-2 5-11 4-3 1-1 4-1-3h-3l-2-2-4 2-2-5 5-1 1-2 1 1 3-4h2l-1-4-4-1-1-4 7-2h7l-6-1-3 1-1-4-1 1-4 1v2l-4-1v-7l-6-3 2-3 5-1v-2l-4-1-2 1-1-7-5 1-2-1-1 3-4-3-1-5 1-2h11 3l3 1zm-16 4 1 4 2-1v-3zm20 3v3h2v-3zm27 5v3l3 1 1 2h3l-1-5-1-1zm41 0v2h2v-2zm11 0 1 2 1-2zm-45 6m4 2 1 2h2v-2zm22 0-6 6 2 4 3-1 1-2h7l4-3-4-1h-2l-1-3zm-60 3-3 5 1 2 5-1-1-6zm13 4-1 3 4-1-1-2zm15 0-1 4 4-1v-3zm-24 8-1 3 4-1-1-2zm12 0-1 2 4 3 4-1v-4zm13 1-1 2h2zm7 3v2h2v-2zm8 1-1 3 3 3 2-1-2-5zm17 0-9 9 5 1 5-8zm11 0v2h2v-2zm-64 3v4l7-1v-3zm24 13 1 2zm39 1m-42 2-1 4 3 3 8 2 12-2-1-3-4-1v-2l-6 2-3-3h-2v4h-4zm27 1 1 2zm4 4 2 2v-2zm7 0 1 4 3 2h3v-2l-3-1-1-3zm-30 4 1 2zm43 0 2 2v-2zm-10 2m-6 2v3l3 3 6 3 3 4 2-1-5-8-4-4zm21 4-1 1v5l3-1-1-5zm-29 4-4 3v3l4-2 3-1-1-3zm3 3 1 3 4-1-3-2z" fill="#4DB9EA"/>
<path transform="translate(878,750)" d="m0 0 5 2v3l4 2-14 3 3 4 8-1 5 4h6v12l3 4-1 5h-6l-5 5-2 1v-2h-2l-2 5h-2l-1 4h-3l-1-2h-6v-2l-3 2v9l-4 1 1-7-4-2h-2l2 7-7 6v2l3 3h2l4-7 6 5v3l5 1v4l-1 2v9l-1 3 7 1 1 4v4l7-1-1-15-1-6 3-1h3l5 6h5l1-6 3-1v10l-1 2 2 1-5 1-2 4h-2l1 3h-2l1 4 2 1-1 3-2 1h-10l1-4h-2l-1 2v-2l-5 1 6 2-1 4-4 2 1 9-7-7-2 3-3 1-2 2h-4l-3 1-1-1h-7l-10-2v-2l-6-1-1-4h-5l2-2h4l1-3h4l-1-2h-8l-1-2 3-5h2l-2-2-3 3-3-1h2v-4h-2v2l-6 1-2-3h6l3-6-5-2 1-4 3-1 1-2 5-2 2-2 10-1 2-4-3 1-3-5 1-3v2l4-2 2 1v-4l6 2h3v-16h2v-3h-5-2l-1 5-7-1-2-3v-3l-4-4 1-9-1-4-3-1 1-5h2l-1 3 9 1 2-3 4 1 1 4 6-1 1 4 7-1 1-5h-8l-4-4 2-1v2l9-4v-6l5 1 5-3zm-5 3v2l3 1-1-3zm-18 23-7 4 1 4h7l3-1 4 4h4l-1-4-2-3h-6l-2-4zm4 1m13 0v3l3-1v-2zm9 0-1 3 3 1v-4zm-44 3 1 3 6-1-2-2zm53 0-1 2 3 5h3v-6zm-46 7-3 2v2h5zm30 1-1 4h3l-1-4zm-17 4 1 4 4-1 1-2zm-14 18 1 2zm-11 11-3 5v2h3l1-3 9-1v-3zm32 0-4 2-11 1-2 2 6 3 7 2v-3l4-1 3-3v-3zm-35 10-1 4h4l-2-4zm31 0-3 5-1 3 5-1 3-3-1-3zm-11 2-2 4-3 2v4l4-1 4-6v-3zm40 0-1 3 1 3h3l-1-5zm-52 1 1 4 5 2v-2l-4-4zm29 10-3 2v3l9-2v-3zm23 4v3h2v-3zm-38 1-1 3 6-1v-2zm11 0-1 1v5l3-1-1-5zm-14 1m-1 1-2 2 1 4 2-3zm27 1-3 1v2h5l1-3zm-30 5-1 4h-2l1 3 5-1v-3h-2zm18 5 2 2v-2z" fill="#4CB9E9"/>
<path transform="translate(1101,882)" d="m0 0h1l1 83-2 1v9l-3-1v-2l-7-1v-3l5 1-2-4-5-4-1-3h3v2h3v2l4 1 2-7-5-1v-3l-5-1-3-5-4 2-1 2 2 2h-11-3l-1-3v-2l-3 1-2 2-1-2h-6l-1-3 2-2-2-1v-8l-4-1-2 1v-2h-2l-1-5 1-2h-5l-2 4 2 1h-8l1-3-6 1-1 2-2-5h-2l-1-4-2 3h-10v-3l-3-1 17-7 12-4 5-3 12-5 1-1h5v3l3-1-2-4 32-13zm-7 26-1 3h6v-3zm-41 5-1 3 2 3 3-1-2-5zm12 4 1 2 4-1v-1zm11 12 1 4 3-3zm13 0 1 2 1-2zm-10 8m0 2-2 4-3 1v2l9-3v-3zm19 4-2 3h4l-1-3z" fill="#30ABE2"/>
<path transform="translate(935,1298)" d="m0 0 1 3-1 2h7v7 4l-1 3-2-1-1 1-4 2-3 1v3l-7 1 3 2v4l5 1 5-2 5 1 3 2h2l1 7 1 3 8 1 2 2 2-1 1 1 3-2 2 2-2 1 1 3-4 2h-1v3l8 1 1 7 2 2 2 8-1 3 2 1-1 4-4-1-5 1-51-8-2-1-1-11h-2v-2l-3-1-7-7-10 1-6 4h-2l-2 6-7-2v-4l7-1 5-7 1-6h2l2-5 3-2 14 1 3-1 5-9 5-4-1-1v-5l9-9 1-3 2 1v2l3-3v-3h2zm-26 43v2h2v-2zm29 0-1 2h4v-2zm-22 9 2 2v-2zm25 0 1 4 1-2zm-30 6 2 4 2-3zm34 1 4 6 3-1-1-4-1-1zm-25 2v3h3v-2z" fill="#2FABE2"/>
<path transform="translate(1361,1109)" d="m0 0h2l1 5-8 24-12 27-12 23-10 16-4 1-3 9-3 2-3-6-1-9 1-2 6-1 3 1 3-14 3-5-8 1-3-1 3 3-1 5-3 1 2 7-9 1-1-5 1-3h-4l1 7 1 3-6 1-5-5v-6l-3-1 1 7-4 2-5-2v4l-3 1-3-3-5-8-2 1 4 3 1 6-1 3 2 9-2 2h-3l-1 2-4-1 2-4-3 1-1 3-3-6-4-3h2l-1-6h-2l3-10 3-5-4-2-3-3 1-5-3-3 5 1 4 6 1 6h2l2-11 5-4h2v5h2v-2h7l10 2 3-10 4-1 5 3 2 6 1 4-3 6h4v-5l5-2v-3l-4-2v-2l-4-2-1-3h7v-2l-10-2-1-3 10 3 7 1 5 2h2v-2h-2l1-3 2 1 1-6 7-5 3 1 1-3 5 2 3-12 2-1-3-3 6-8 2-2 1-5 2-1 2-4h3zm-12 20-1 4 3-3zm-5 19-3 4-14 1v3h13l2 2 5-9zm-32 13-1 2 5 1v-3zm17 3-3 4h-10v6l5-2 7 5 3-1-1-4h-2v-4l6-1 1-3zm-56 20-1 3h3l-1-3zm-9 5m0 4-1 4 2 3h3l-2-5z" fill="#4AB7E8"/>
<path transform="translate(1126,621)" d="m0 0 7 1 16 6 1 5-1 2 4-2v-2l6 1 21 10 39 22 17 12 10 8 26 22 13 13 7 6 9 11 11 13-1 4h-2l1 2 4-1 5 4 6 10 1 3 6 5 8 13v3l-9 2-3-3 1-4 2-1v-5h-8l-5-5-10-14-11-13-2-4 6-2v-2h-7l-9-6-7-6-16-16-11-9-11-10-15-11-14-9v-3l3-1-3-3-2 4-5-2-27-15-11-6-19-9-28-10v-3h-2v-2l4-2 2 1v3l2 1v-5zm14 6m1 1m1 1 1 2zm124 79-2 1v3l4-1-1-3z" fill="#33ABE1"/>
<path transform="translate(610,1088)" d="m0 0h2v3l5-1 4 2 5 18 1 8-3 2 1 6 7 3 8 19 8 18 13 26 8 13 9 14 13 18 3 10 4-1 8 11 6 5 3 6-1 3 7 1 6 5 5 5 6 7 11 9 6 5 2 3v4l9 1 3 2-4 8-5-1-6-4v-2l-5-2-6-5-3-6-4-3-6-2-7-7 1-8-1-1h-10l-10-11-2-5 2-4-6 1-7-7-7-10-8-10-1-4-5-4-10-16-7-11v-7h-2v-2l-3-1-9-17-10-24v-5h2v-2l-4-1-5-10-10-33zm31 78 1 2zm20 38v3h3l-1-3zm35 48 1 3 3-1-1-2zm9 11v3h2l-1-3zm45 42v2l2-1z" fill="#369ED2"/>
<path transform="translate(1333,1057)" d="m0 0 5 2 2 1 1-2 6 3 3 1-1 3 1 7v2h-4l-2 6v8h-2l1 9h-2l-1 2 2 1-6 2-4 1-1 3-4 2-4-1 1-2h-9l2 3-1 4-4 2 2 2-4 2-4 3h-3l-1-1-3 2v-5l4-4-4 3h-9l2-7 2-3h-2l1-2 4-3h3l1 5h2v-5l4-2v-3l-4 1v3l-3-1-1-6 5-5h5l3 3 3-1 3-3h5l2-4 2-1-3-2-7 1-2 4-3 2-9-1-6 6h-4l-1-4h-2l-3-11h-2v6l-3 5 1 4-7-1v-5-1h-2v-2h-2l1-3h3l-6-7 4-1 6 2 7-4-7-2 2-4 5-1 5 1 1-2h3l3-2 4 1-4 2-1 3 5-3-1 5v3 2h2v-2l5-1 5 4 4 2v-2h3v-2h2v-8h4l6 2 3 2-1-4 3-2-5-2zm7 3m1 1v2h2v-2zm-59 4 1 2 1-2zm43 0v2h2v-2zm-31 3v3l2-3zm47 1-4 4v2l3 3 1 2h2v-11zm-34 4-5 4v3l4-1 3-4v-2zm35 11-1 3h2zm-13 1-1 2-3 1v4l5-1 4 2-2-5z" fill="#4CB9E9"/>
<path transform="translate(1153,800)" d="m0 0 3 1v2h5l1 8-2 3h-2l3 4-3 1v7 3l-2 6v27l-1 4h2l2 5v3h8l4-3 4 1-3 1v3l4 2-7 1h-2l-1 3-8 4-3 3v25l3 7 6 2 2 4-2 4h-2l1 4-2 7h-2l-2 6v14l9 2 1 4-6 2 2 2 1 10 3 2 1-2h5 3l1 5-1 8 6 3v7l3 1v-2l3-1 3-3 1 2h-2l2 3 6-1 3 3h-8l-6 1 1 4 3 1 1 4-1 2h-3l-1 5-2-2-6 1v5h-2l-1-3v-3l-2-5h-3v2h-3l-3-5-2 6-5-3-3-6-1-3 1-2 5-1v-5h-6l-1-1v-27l1-2 3 1v-1l-4-2 1-7-1-9 1-3-1-2v-12l3-6-3-1v-44l5-1h2v-3l-6 1-1-1v-68l2-1zm8 78m0 47-3 3 5-1 1-2zm0 40-1 2h3v-2z" fill="#31ACE2"/>
<path transform="translate(1169,1351)" d="m0 0h5l4 7-5 3-6 3-5 2-11 5-40 14-31 7-21 4h-8v-3h-2l-1 4-19 2h-20v-2l8-7 1-1 31-3 16-2 1 5 2-6 35-8 20-6 33-13h4l2 5v-7zm-64 29v4h2v-4zm-28 4v3h2v-3z" fill="#369DD1"/>
<path transform="translate(1360,830)" d="m0 0 3 1 10 23 12 36 7 28 4 22v8l-3 2 4 2 2 10 1 18-1 2-9-1-2-5 1-10-2-4-6-38-7-30-9-28-8-20-5-11v-3zm34 131-1 2h2z" fill="#369ED2"/>
<path transform="translate(716,1182)" d="m0 0 4 3h6l-3 2-2 1 1 2 8 1 4 4 8 1-1 3h2v2h-3v2l3 1-2 2 4 4 3 1 1-2v3h-9l-1 4h2l3 7-9 2-6-1-1 2-2-3-2 2h-8l-1 2-3 1-1 2-1-3h-3v-2h-4v2l-7 1h-2l-7-9-7-11-5-8 4-2 1 5 4 2 1 3 2 1-3 1 1 2 2-2 3 1 2 1-1-4h4l2-4 4 2 5-2v-2l-4 2h-3v-2l9-1-1-2h-7l-2 1-1-3h3l1-2h3l-3-2v-3l3-1 5-5 3 1v3l3-3zm-7 4-4 4v2l6-1v-4zm9 0m-9 11 1 3 1-3zm10 3-2 2 1 1h5v-2zm14 1v2h2v-2zm-53 4 2 2v-2zm2 2m24 2-1 2 5 1-3-3zm7 0-1 5 3 1v-5zm-23 4v2l3 1 2-1v-2zm25 2m-18 1-4 5 1 4 3-5 2-1-1-3zm23 2-3 1v4l4-1 2-3zm9 3v2l4-2z" fill="#48B7E8"/>
<path transform="translate(1126,621)" d="m0 0 7 1 16 6 1 5-1 2 4-2v-2l6 1 21 10 39 22 17 12 3 3-2 2-4-3-2 1 3 5v2l3 1-4 2-14-10-9-6 2-3h2l-3-3-2 4-5-2-27-15-11-6-19-9-28-10v-3h-2v-2l4-2 2 1v3l2 1v-5zm14 6m1 1m1 1 1 2z" fill="#33ACE2"/>
<path transform="translate(923,675)" d="m0 0 4 1 1 2 6-1 2 5v5l-3 1 1-9-4 2-1 6 2 1-1 1-8-1-5 4-9 2 1 3-3 1v-2h-2l1 5-4 3-7 3-4 2-1 9h-7l-3-2-3-3-3-1-1 3-2-2-2 3 1-5h3v-7l1-5-5-1-3-3h2l1-5 1-2h4l1 3-1 4h5l4-4h2v-2l-7 1-3-3-2-8 8-1 8 1 8-2 3-1 1 2 5 3v3l4 1 1 3-8 3-3 4 6-2 6-3 2-3 3-1 2-7h2l1-3zm-33 6-3 5 3-1 1-4zm27 8m-28 2-1 8h3v-8zm-16 14 1 4 3 3h2l-2-4h-2l-1-3zm6 7m4 1 1 3 2-1v-2z" fill="#4FB9E9"/>
<path transform="translate(923,1209)" d="m0 0h6v2l3 1 3 3 4 2-4 4h-2l-1 5-7 9 6-4h6l-1 5-7 5h-3l1 2h5l2-4 4-3h3v-5h2v-3l7 1-2 3 2 4h2l3 3v-2l4 1v5l-5 5-3 2v2l1 3h-2v2l-7-1-3-1-1-2-4 1-1-2h-2l-1-4-12-1-3-3 2-3-4-1 1-4 4-1-1-4h-3v-7l-9 3-2-1-1 3h-1v-5l10-7 9-7zm-3 10-2 3 5-1v-2z" fill="#4AB8E9"/>
<path transform="translate(1299,769)" d="m0 0 1 2 4 1 1-2 6 9 7 10 9 15 4 7-3 9-2 2 5-4 4 2 5 8 4 7-1 2-2-3-3-1-2-3v-4h-13v5h-2l-1-5-12-2-4-3-6-1-2-9h-2v3h-2v-6l4-1 2 1v-4h-6l-3-5 5-2v4l4 1 2-4 2 2 8-4h2l3 6 5 1-1-8-7-6-1-4h-2v-3h-2v-2h-2v2l-9 2v2l-4 1v-2h3l-1-4-3-1 1-4 5-2zm-7 8v2l4-1zm10 0-5 3 1 2 9-4v-1zm8 20 1 2zm3 8v5h10l-3-3-4-2zm-12 11v3h2v-3zm8 5 2 2 3-2zm6 0v2l3-1z" fill="#4CB9EA"/>
<path transform="translate(896,1276)" d="m0 0 3 1 1 6 4-1 2-2v3l2 1v4l5 1 2-1 2 1v2h-2l-1 8-13 1-4 2 1 2 10 1-2 4v2l-4 2h-3v-2h-8v-2l-5 1-2 1-2-1-1 3-1-3-9-3-1-5 2-2h3l-1-4h3l1-2-1-1-1-5 5-3 2 1-1-4 4 2v2l3-1 2-2 1 1z" fill="#2EABE2"/>
<path transform="translate(1390,995)" d="m0 0h8l2 2v23l-1 19-3 17-3 4-3 1-1 3v7l4 2-1 6-3 3 3 4-3 8-9-1-1-4 3-9 2-22 3-18 1-11 1-4v-18l4-5-3-3zm5 37-5 5v2l5-1 1-6zm-7 13v2h3v-2z" fill="#46B3E5"/>
<path transform="translate(625,926)" d="m0 0 2 3 1 4 2 1h3l9 1 2 2h3l-1 4h-3v7l2 2h6l-2 1v5l3 1-2 3 2 3-2 3 5-3 6 2 1 2h-4l1 3-11 1-4-4v-1l-11-2v10h-2v2h-10l-1 4-1-4 1-3v-9l2-5 4 1-1 12-2 2h2l1-2 1-10 3-2h2v-2l-7-3h-4l2-17zm7 10 1 2 2-1zm6 21-3 2 1 3h4l3-4z" fill="#4BB8E9"/>
<path transform="translate(637,851)" d="m0 0 1 4-11 33-9 34-2 7h-9l-1-5 9-36 11-33 2-2z" fill="#369DD0"/>
<path transform="translate(650,1093)" d="m0 0 1 4 3 3 11-2v3h2v2h2v3l6 2-2 6-4 9 7-2-1 3-7 1-2 2-9-2-3-1-3 6-4-2-1-3-5-1-1-4h-2l-4-11 2-3v-3l1-1h-3l1-3h2v-2l3-1 3 6h6l-1-5zm7 10v7l-1 2-3 1v2l5 3 3-8-1-4-1-3zm-12 11-3 5 2 1 3-1v-5z" fill="#4CB8E9"/>
<path transform="translate(1153,800)" d="m0 0 3 1v2h5l1 8-2 3h-2l3 4-3 1v7 3l-2 6v27l-1 4h2l2 5v3h8l4-3 4 1-3 1v3l4 2-7 1h-2l-1 3-8 4-3 3v25l3 7 6 2 2 4-2 4h-2l1 4-2 7h-2l-2 6v14l9 2 1 4-6 2 2 2-1 3-4-1-1-4-4-2 1-7-1-9 1-3-1-2v-12l3-6-3-1v-44l5-1h2v-3l-6 1-1-1v-68l2-1zm8 78m0 47-3 3 5-1 1-2zm0 40-1 2h3v-2z" fill="#4CB9EA"/>
<path transform="translate(692,1243)" d="m0 0 3 4h4l7 10 6 5 3 6-1 3 7 1 6 5 5 5 6 7 11 9 6 5 2 3v4l9 1 3 2-4 8-5-1-6-4v-2l-5-2-6-5-3-6-4-3-6-2-7-7 1-8-1-1h-10l-10-11-2-5 2-4-3-1 3-2-3-3-1-2-4-1-5-1 1-4-2-1h3zm13 20v3h2l-1-3zm45 42v2l2-1z" fill="#31A7DD"/>
<path transform="translate(1247,1256)" d="m0 0 5 2h5l4 2 4 1-1 2 4 2-1 3-2 1-1 6-8 8-13 10-6 1 1-5-4-8-5-1-1 7-3 1-7-5 2-6 4-4 7 1 1-2v-13h5l1 4 1 11 2 5 2-1-1-7-1-6 4-4h2l2 11 2 1v2h7l1-10-4-1 1 7-4-2-2-8-4-3zm-12 14m-2 2v2l2-1z" fill="#49B7E9"/>
<path transform="translate(610,1088)" d="m0 0h2v3l5-1 4 2 5 18 1 8-3 2 1 6 7 3 8 19 8 18 1 6-6-3v-4h-2l-1 2v-2h-2l-1 2-4-6-5-13v-5h2v-2l-4-1-5-10-10-33z" fill="#369ED2"/>
<path transform="translate(908,1379)" d="m0 0 7 2 23 3 30 4 8 5v6l-21-1-42-6-4-1 1-7-3 6-10-3v-2l9-4z" fill="#359DD1"/>
<path transform="translate(1024,920)" d="m0 0 1 3v2h2l3 3 7-2 1 2-2 1h5l2-5 5 1-1 2-2-1v2h4l-1 4 3 1 2-4v5h3v8l3 1-2 5 6-1h2v-1h5v5l4-1v1h8v-3l3-3 4 2 2 4 4 1v3h3v2l-3 1 4 1-1 5-4-2v-2h-3v-2h-3v-2h-6l-2 4h-5l-2-3h2v-4l-4 2-8-3v-2h-2v6h-2l-1-5-4 2-1 5h-3l-1-5 3-5h3l-1-10-2 7-2-1v-4l-3 1h-3l1 2h-2v2l-7-1-1-6-5-2-2-4-13 1-4-2-2-7 3 1 4 4v-5l6-1v-2zm1 8v2l2-1zm8 5v2h3v-2zm4 7v3h2l-1-3zm40 13v5h2l1-5zm6 0 2 2 4-1zm10 3m-37-1 3 1-3 1z" fill="#4CB8E9"/>
<path transform="translate(1270,1169)" d="m0 0h2v5h2v-2l4 1-2 1 2 4-1 7 1 3h2v2h8l1-2 1 7-4 2-5-2v4l-3 1-3-3-5-8-2 1 4 3 1 6-1 3 2 9-2 2h-3l-1 2-4-1 2-4-3 1-1 3-3-6-4-3h2l-1-6h-2l3-10 3-5-4-2-3-3 1-5-3-3 5 1 4 6 1 6h2l2-11zm3 15-1 3h3l-1-3zm-9 5m0 4-1 4 2 3h3l-2-5z" fill="#4BB8E9"/>
<path transform="translate(1132,1293)" d="m0 0 4 1v3l2 1 5 2 1-2h2v3h4 2v2h3l1-3 6 4-4 1 1 1 4 1 1-2v3l-8 1v8l-2 1 4 3-1 2-7-1-1-2-5 3-7-1-2-2-3-1v-3h-2l-2-3-6-1-1 5-7 2-3-1-3-3-1-3 4-4 1-3 6 1 2 1v2h2v2l4-1 1-9 4-5zm14 16v2h2v-2zm6 1-1 2 2 3h2v-4zm-9 2-3 4-3 1v3h10l1-2-3-6z" fill="#4AB8E9"/>
<path transform="translate(1084,1224)" d="m0 0 4 4-5 1 2 3h5l-1 4-1 2v5h5l-1 5-6 2-3-4-10-1-5 5-5 1v-2l-4 1-2 1 2-4h4v-2l-3-1v-2l-6-1v-4l-2-1 1 4h-2l-1-3h-5l-1 2 2 1-3 1-9-1-2-3 1-4 2 4 2-3 11-2 6-1v2h2l1-2 6 1v-2l11-3v-2l4 1zm-6 5-1 2h3v-2zm-13 2-1 3h3l1-3zm-8 2v5h3l-1-5z" fill="#4CB9EA"/>
<path transform="translate(1048,1277)" d="m0 0 1 2h2l1-2v2l6 1v3l11 1 7-1 3-3 1 5h3v3l2 1 1 4h-2v2l6-2 1 2-2 1h-10l-4 2-4-4v-4l-2-1h-6l1 6 1 1 3 1v3l-6 1-5-1-2-2v-6l-4-1 1 2v6l-2 1 1-6h-2v5l-2-4-4 3-4-1-1 3-9 1v2l2 1-4-1 2-12-1-3 3-3 4 1v2l3 2 1-5 2 3 3-1 2-2 2 1-1-3h2z" fill="#4BB8E9"/>
<path transform="translate(912,1328)" d="m0 0h1l-1 7h3v2l3 1-4 1-1 4-1 3 7 3 2 10-1 3 3 1h-6l-3-1v3l-3-1v-4h-2v-2l-3-1-7-7-10 1-6 4h-2l-2 6-7-2v-4l7-1 5-7 1-6h2l2-5 3-2 14 1 3-1zm-3 13v2h2v-2zm7 9 2 2v-2zm-5 6 2 4 2-3z" fill="#49B7E9"/>
<path transform="translate(1293,732)" d="m0 0 2 1v2l2 1-1 2h2v-5l5 5 9 11-1 4h-2l1 2 4-1 5 4 6 10 1 3 6 5 8 13v3l-9 2-3-3 1-4 2-1v-5h-8l-5-5-10-14-11-13-2-4 6-2v-2h-7l-7-4 4-2z" fill="#39A0D4"/>
<path transform="translate(1126,621)" d="m0 0 7 1 16 6 1 5-1 2 4-2v-2l6 1 17 8 1 4-1 2 5 2v3l2 1-7 1-16-8-21-9-20-7v-3h-2v-2l4-2 2 1v3l2 1v-5zm14 6m1 1m1 1 1 2z" fill="#35ABE0"/>
<path transform="translate(1378,1094)" d="m0 0 5 2 5-1v7l-2 3h-5l-1 3 4 3-3 12-9 26-6 13-2-1-3-9-1-5 1-3 4 2 4 1 1-3-6-2 1-7 5-9-1-4 5-13 3-13zm3 4 1 2z" fill="#359ED2"/>
<path transform="translate(715,1228)" d="m0 0 3 1-5 3h-2l2 2 5 1 8 2 4 2-1 6 4-2 6 9v2l-7 1 2 3 1-2h5l-1 3-7 2-3 1 1-4-4 1-3 4-9-10-12-14v-2l6-3 4-4z" fill="#48B7E8"/>
<path transform="translate(1377 1e3)" d="m0 0h2l1 4v28l-2 6h-7l-2 10h-1v-6l-9-1v-1l7-1-3-2-2-4-3 7-1-3v-2l-1-2 4-3 1-7 1 3h2v2h2l1-2h2l-3-6v-2l3-1 1-2-10-2v-1l8-1-2-2 2-2 1-4 7-2zm-6 12m1 1 1 3h2l-1-3zm-2 9 1 2h5v-2z" fill="#49B7E8"/>
<path transform="translate(678,1090)" d="m0 0 1 2 5 1v3l4 1 4-1 6 4 2-3 5 1 2 4h4l1 4-4 5 5-1v2h-6l-6 2 5 2v3l-4-2-1 5h-2v-2l-5-1-1 2-2-4 1-4-2-3h4l-5-1-5 1v6l-4 1-2-8 2-4-3-1-1-4 3-3h-5l3-6zm0 3v2l3-1zm23 6-1 4 3 1 2-1-2-4zm-9 5v3l4-1-1-2zm4 3m1 1m1 1 4 2 2-2z" fill="#49B7E8"/>
<path transform="translate(1361,1109)" d="m0 0h2l1 5-8 24-11 25-4 1-2-2 2-1 3-9 2-2h-2l-3 3-4-2 2-4 2-1 2-6 1-5 2-1-3-3 6-8 2-2 1-5 2-1 2-4h3zm-12 20-1 4 3-3z" fill="#49B6E8"/>
<path transform="translate(601,1033)" d="m0 0h10l1 1 5 37 2 8-4-1v-2h-2l-1 5-1 2-3-1-5-26-2-17z" fill="#379ED2"/>
<path transform="translate(1358,874)" d="m0 0 1 2h2l9 31 2 8v5l-1 1v5l-2 3h-3l2 3v3l-4-2v-6l-4-1-3-7-1-15 2-8 4-1v-8l-6-2 2-6z" fill="#3599CD"/>
<path transform="translate(1114,1262)" d="m0 0 1 2 4 1v2l4 2 1 3 4 1 6-2h4l-1 6-2 3-1 3-4 2v-2l-7 1-2-1v2l-3 1-9-2-2-4h-4l1-9h2v-2h3l-3-2 6-4 1 1z" fill="#2EABE2"/>
<path transform="translate(1234,1083)" d="m0 0 5 1-4 1v3l4-1-2 4 3 1 4 6 3 2-1 2-6-2-2-7-3 1 2 5 4 4v2l2 1-2 5-1 10h-3v5h-1l-1-7h-6l-1-3-5-1-3-3h-2l-2 6 4 2-6 2v-2l-2-1 3-6v-7l2-3 10 7 2 4h2v-6l3-1-1-7-4-2v-2l-8-1v-2l3-3 6-1 4-2z" fill="#4FBAEA"/>
<path transform="translate(1296,1163)" d="m0 0 6 2 3 7 1 4-2 4h-2v-2l-5 1-1 4-6 2-2 5-4 1-4-1v-2l-3 1-1-4 1-8-2-4 6-1 10 2 3-10z" fill="#33ADE2"/>
<path transform="translate(943,1228)" d="m0 0 7 1-2 3 2 4h2l3 3v-2l4 1v5l-5 5-3 2v2l1 3h-2v2l-7-1-3-1-1-2-4 1-1-2h-2l-2-5 4-3 1-4 3-1 2-3 1-5h2z" fill="#2FABE2"/>
<path transform="translate(1390,995)" d="m0 0h8l2 2v23l-2 18-2 3-1-7-3 2h-4v-7l1-4v-18l4-5-3-3z" fill="#359ED2"/>
<path transform="translate(1101,882)" d="m0 0h1v12h-2l-1 7-3 1-3-1-1 5h-14l-2-1v-2l-3-1 1-2 3-1 1-5 4-4z" fill="#359ACE"/>
<path transform="translate(1334,1107)" d="m0 0h3v2h2l1 5 10 3-3 4h-2v2l-4 2-2-1-3 2v5l1 2-2 11-2 3-2-2v-4h-2l-2 4-6-1 4-2 1-2-2-1 3-5 2-2v-2l-1-5-4-1-1-4 4-2v-3l4-4 2-3zm2 3m-2 1-1 1v6h2l1-7zm7 6v3h2v-3zm-9 15-2 3 4-1v-2z" fill="#4CB9EA"/>
<path transform="translate(934,1031)" d="m0 0h1v5l13-3 4 1h2l2 2 2-1 5 2 2 7h-3l-2-1 1-4-2-1-3 3-3-3h-7l-4 5-4 1-2-3h-1l1 9 1 2 10 4 1 2-8 2v3l-3 1-1-2-1 8v23l-1 23-2-1v-82zm6 5-4 2 6 2 1-4zm-2 18 1 2 1-2z" fill="#44B0E2"/>
<path transform="translate(1336,1164)" d="m0 0 1 2 3 1-1 1h1l-1 7-13 23-5 7h-3l-3 9-3 2-3-6-1-9 1-2 6-1 3 1 2-7h2v-2h2v-5l4-4 1-4 3-1 1-3-4-2v-2l6-2z" fill="#33AADF"/>
<path transform="translate(1038,622)" d="m0 0h14l35 6 23 6 24 8v2h-3l-2 3h-5l-4-3-3-1v-2l-9-2v-2h3l-4-1v2h-8l-5-3 1-2h-4l-4-1-2 1-5-2-1-2h-14l-6-2-4-2-6 1-2 1h-7z" fill="#3A9ED1"/>
<path transform="translate(1356,1157)" d="m0 0 3 1v4l5 2-1 5-10 21-3 3-9-2 1-5 6-10h2l1-8z" fill="#3AA2D5"/>
<path transform="translate(1153,914)" d="m0 0h2l3 7 6 2 2 4-2 4h-2l1 4-2 7h-2l-2 6v14l9 2 1 4-6 2 2 2-1 3-4-1-1-4-4-2 1-7-1-9 1-3-1-2v-12l3-6-3-1zm8 11-3 3 5-1 1-2zm0 40-1 2h3v-2z" fill="#4CB9EA"/>
<path transform="translate(793,903)" d="m0 0 3 1h11v2l9-1 3 3-6 3-1 5-3 2 3 2-3 1-2-1v2h-3l-1 5h-4l-3-3-3-13v-3h2l-3-4zm9 4-1 4h2l1-3zm7 0v5h2l1-4z" fill="#4BB8E9"/>
<path transform="translate(741,1292)" d="m0 0 8 6 6 5 2 3v4l9 1 3 2-4 8-5-1-6-4v-2l-5-2-6-5-3-6-4-3-6-2-2-3 10 2zm9 13v2l2-1z" fill="#4BB8E9"/>
<path transform="translate(610,1088)" d="m0 0h2v3l5-1 4 2 5 18 1 8-4 2-2-1-1 2h-2l-8-28z" fill="#38A2D6"/>
<path transform="translate(1202,1248)" d="m0 0 2 2h-2v2l3 1 5 3 4 1v2l4-2 8 1 2 1-1 3-9 2h-5l-3-3-1 2 4 2v3l-6-1-4-6h-6l-5 1-4-2 1-7 9 1v-5z" fill="#52BAEA"/>
<path transform="translate(908,1379)" d="m0 0 7 2 17 2-3 2-2 1 5 2 2 2-2 4-12-1-11-2 1-7-3 6-10-3v-2l9-4z" fill="#36A2D7"/>
<path transform="translate(1293,732)" d="m0 0 2 1v2l2 1-1 2h2v-5l5 5 9 11-1 4h-2l1 2 4-1 3 3h-3v2l2 1-1 2-4-1h-3l-5-5-8-9v-2l6-2v-2h-7l-7-4 4-2z" fill="#37A7DC"/>
<path transform="translate(1126,621)" d="m0 0 7 1 16 6 1 5-3 3h-8l-20-7v-3h-2v-2l4-2 2 1v3l2 1v-5zm14 6m1 1m1 1 1 2z" fill="#35AAE0"/>
<path transform="translate(880,890)" d="m0 0h1v161l-1 4-5 1 4-7 1-25-7-1 4-4h2l-2-6h3l-1-112h-10l-1-4 1-1h11z" fill="#4CB9EA"/>
<path transform="translate(1304,1212)" d="m0 0 4 1 1 2 3 1-1 4-8 12-5 6-5-3-4-3h-2l-2 3-2-2v-5l-4 1 1-10h3l2 9 5 1 2 2h5l4-6-1-6z" fill="#48B3E4"/>
<path transform="translate(1101,922)" d="m0 0h1l1 43-2 1v9l-3-1v-2l-7-1v-3l5 1-2-4-5-4-1-3h3v2h3v2l4 1 2-7-5-1v-6l-3-1 1-5h4v-3l-2-1 5-3v-11zm-3 21-2 3h4l-1-3z" fill="#47B6E8"/>
<path transform="translate(967,996)" d="m0 0 3 3-1 3 1 5h-3v-2h-2l-1 6 1 4 2-1 1-4 2-1v3h2l1-2 6 4 1 2h-3l-1 4-2 3v4l-7-2h-4l1-6 6 1-1-4-8-1-3-3 3-1-2-2-5-4 1-2 4 1 7-2-1-2h2zm-2 25v3h2v-3z" fill="#4DB9EA"/>
<path transform="translate(946,947)" d="m0 0h3v2h-2l-2 4-5 9h-2l1 3-1 3-1 7h-2v2h2l1 3-6 2v-27l1-3z" fill="#369DD1"/>
<path transform="translate(1262,1288)" d="m0 0 8 2-2 5-8 6-5 3-4 7-4 1-3-3 4-9 11-10z" fill="#3DA6D9"/>
<path transform="translate(1337,1195)" d="m0 0 3 2 2 10-7 14-4 1h-10l2-6 5-3 2 4 2-4-2-2 1-5z" fill="#3DA4D7"/>
<path transform="translate(1084,1224)" d="m0 0 4 4-5 1 2 3h5l-1 4-1 2-1 4-3-3v-2h-2v-2l-7 2-5 1-1-2 1-4-5-1 1 3 2-1v3h-9v-4l4-1 2-2 9-2v-2l4 1zm-6 5-1 2h3v-2z" fill="#4EB9E9"/>
<path transform="translate(923,675)" d="m0 0 4 1 1 2 6-1 2 5v5l-3 1 1-9-4 2-1 6 2 1-1 1-8-1-5 4-9 2 1 3-3 1v-2l-4-1 6-4 3-1 2-3 3-1 2-7h2l1-3z" fill="#51BBEA"/>
<path transform="translate(1233,677)" d="m0 0 4 3h4l7 6 4 8h-2l1 5-4-1-5-2-7-6 1-3-4-4v-3l-3-1z" fill="#349BCF"/>
<path transform="translate(1193,1296)" d="m0 0 7 4 6 1 3-1v3l-2 5-4 4-10-1-1-3h-4l-1-3 2-7z" fill="#359CD0"/>
<path transform="translate(1097,1029)" d="m0 0h5l1 9-1 5-4 1-5 2v-3l1-2-6 1-4-4v-6l10-1z" fill="#2FABE2"/>
<path transform="translate(1348,805)" d="m0 0 4 4 7 15v3l-6 3-4-1-5-11 2-9z" fill="#48B4E5"/>
<path transform="translate(841,653)" d="m0 0 5 3 7 1v2h10l1 2h-7l-1 3h-4l-2-4h-4v3l5 1 1 2h14l-1-3h6l2 4-2 2h-21v-2l-15-2v-1h6l-2-9z" fill="#51BBEA"/>
<path transform="translate(1e3 1090)" d="m0 0 3 2-3 6-2 6-4 1-5-1v2l7 1v5l-9-5-7-2-7-3-2-1 1-3 13 1 3-2 1 2h3l7-8zm-23 11v2l4-1z" fill="#49B6E7"/>
<path transform="translate(1247,1256)" d="m0 0 5 2h5l4 2 4 1-1 2 4 2-1 3-2 1-1 6-7 7-1-2h-2v2l-2-1 4-5 2-1 1-10-4-1 1 7-4-2-2-8-4-3z" fill="#4DB9EA"/>
<path transform="translate(692,1243)" d="m0 0 3 4h4l7 10 6 5 3 6-1 3 7 1-3 3-2-1v-2l-3 1v-3h-5l-2 2-5-6 2-6-3-1 3-2-3-3-1-2-4-1-5-1 1-4-2-1h3zm13 20v3h2l-1-3z" fill="#45B5E7"/>
<path transform="translate(1361,1109)" d="m0 0h2l1 5-3 8-1-2 1-2h-2v2h-5l-1 9 2-3 2 1-2 4-3 7-2-1 1-2-5 2-2 2v-4l2-1-3-3 6-8 2-2 1-5 2-1 2-4h3zm-12 20-1 4 3-3z" fill="#4BB7E8"/>
<path transform="translate(1085,945)" d="m0 0 4 2 2 4 4 1v3h3v2l-3 1 4 1-1 5-4-2v-2h-3v-2h-3v-2h-6l-2 4h-5l-2-3h2v-4l-4 2-1-3 4-2v1h8v-3zm-8 8v5h2l1-5zm6 0 2 2 4-1z" fill="#4BB8E9"/>
<path transform="translate(1153,1020)" d="m0 0 4 1 3 2v2l-4 1v40l-1 18v33l-2 3z" fill="#4CB9EA"/>
<path transform="translate(642,867)" d="m0 0 14 1 4-1-1 2h-2l1 7-6 4-9 1-4 2v2h-3l1-6 2-3h2v2h6l-6-7z" fill="#4BB8E9"/>
<path transform="translate(1398,1029)" d="m0 0h1v10l-3 17-3 4h-2l1-4 2-1-1-2v-1l-4 2h-2l-2 2 2-16 1-4 3 1-1 2 5-1h2zm-10 16v2h3v-2z" fill="#49B7E8"/>
<path transform="translate(1378,1094)" d="m0 0 5 2 5-1v7l-2 3h-5l-1 3 4 3-2 9h-2l1-7-2-1-1 2h-2l-1 4-2-1 1-4-1-2 4-15zm3 4 1 2z" fill="#48B6E7"/>
<path transform="translate(1367,1131)" d="m0 0h1v5 3l2-2 1 2-1 2h4l-3 10-5 11-2-1-3-9-1-5 1-3 4 2 4 1 1-3-6-2 1-7z" fill="#42B0E3"/>
<path transform="translate(1245,1270)" d="m0 0 2 3 2 6h2l1-3 5 1-4 4 1-1h2v3l-13 10-6 1 2-7 2-5 4-2v-3z" fill="#33A7DC"/>
<path transform="translate(638,1165)" d="m0 0h2 1 2l2 5 1-2 2 3 2-1 1 4-3 1v2h2v2l-4 2 4 1 3 7-1 3h-2v-2l-3-1-9-17-2-6z" fill="#35A5DA"/>
<path transform="translate(1018,945)" d="m0 0 4 1h3l1 3-1 3 10 2v3h-3l-2 2-3-2v2l4 1v4l-4 1-2-1 1 3-2 1v-2l-3-1 1-5 1-4 3-2-4-1-1 4h-3v-2l-5-2 4-2zm3 3-1 4h3l1-3z" fill="#4BB8E9"/>
<path transform="translate(728,1046)" d="m0 0 4 1 6 3 2 4h3l1 2h11l-4 3-2 1v7l-4-2-3-3v-2l-5 1-1 2h-2v-2h-3l1-5 3-2-7-1h-6l1-2 4-1zm1 2 1 3 3-2zm8 4-1 6 1 1h6l-2-4z" fill="#4BB8E9"/>
<path transform="translate(1076,1234)" d="m0 0 6 1v2h2l4 5 5 1-1 5-6 2-3-4-5-1-4-2v-2l-4-1v-2l5-2z" fill="#2EABE2"/>
<path transform="translate(1312,1234)" d="m0 0 4 1 1 3-4 5h2l-1 5-4 5-6-1-1-4 4-9z" fill="#41A4D6"/>
<path transform="translate(1299,769)" d="m0 0 1 2 4 1 1-2 6 9 1 3h-2l-1-1-2 1v-2h-2v2l-9 2v2l-4 1v-2h3l-1-4-3-1 1-4 5-2zm-7 8v2l4-1zm10 0-5 3 1 2 9-4v-1z" fill="#4BB8E9"/>
<path transform="translate(1356,1157)" d="m0 0 3 1v4l5 2-1 5-3 7-1-3-4 1 1 3-4 2 1-7-3 4 1-8z" fill="#369ED2"/>
<path transform="translate(1312,1198)" d="m0 0 6 1 2-1v2l4 1-3 4h-3l-3 9-3 2-3-6-1-9 1-2z" fill="#339ED2"/>
<path transform="translate(934,1031)" d="m0 0h1v5l13-3 4 1h2l2 2 2-1 5 2 2 7h-3l-2-1 1-4-2-1-3 3-3-3h-7l-4 5-4 1-2-3-3-1-1 3v-10zm6 5-4 2 6 2 1-4z" fill="#54BCEA"/>
<path transform="translate(1169,1351)" d="m0 0h5l4 7-5 3-6 3-5 1v-11z" fill="#3BA1D4"/>
<path transform="translate(1112,1305)" d="m0 0 6 1 2 1v2h2l1 3-2 5-7 2-3-1-3-3-1-3 4-4z" fill="#48B7E9"/>
<path transform="translate(1359,1118)" d="m0 0h2l-1 9-5 13h-3l-1 2-4-2v3l-3-1 1-5 4-2h2l1 1 3-6 2-3h-2l-3 3v-5l2-6 5 1z" fill="#37ACE1"/>
<path transform="translate(987,930)" d="m0 0 4 1 2-1 3 1v3l3 1-4 2h-3l1 3-5 5-2-1-1-6-4-1 1 5 3 2v2h-2v-2l-5 1 1-4-4 1v-4l3-1 5-2 3 1v-4l-5 1 2-2zm3 5-4 2 1 4 4-2 1-4z" fill="#4FBAEA"/>
<path transform="translate(902,730)" d="m0 0 10 2v-2h6v3h3v4l4-3v5h-8v2l-8-1-2-3-6-1v-2h-2v-2zm1 2 1 3 7 2v-4z" fill="#4BB8E9"/>
<path transform="translate(1092,1010)" d="m0 0h9l2 1v23l-2-3 1-2-7 1v-9l4-3 1-3-7-1z" fill="#4CB8E8"/>
<path transform="translate(708,1269)" d="m0 0 5 1 1 2h2l2 2 4-1 5 4 5 5 1 2-8-1-2-3h-10l-6-7z" fill="#45AEDF"/>
<path transform="translate(732,1243)" d="m0 0 3 3 4 6v2l-7 1 2 3 1-2h5l-1 3-7 2-3 1 1-4-4 1-3 1v-2h2v-2l-3-1v2l-3-1v-2h2v-2h6l3 2 6-2-2-3-1 2h-6l1-3 5-1z" fill="#2EABE2"/>
<path transform="translate(627,1019)" d="m0 0 2 3 7 3 1 5 5 1 1-2 7-1v2l-4 1-2 3-4 2-3 4-1-6-3-2 1 6 1 2-4-1v-6l-3-1 1-3h-2l1-2 2 1v2h2l-4-6z" fill="#4DB9EA"/>
<path transform="translate(664,854)" d="m0 0 8 1 4-1 1 2-7 2 10 2 4 3-10 2-4 2-5-4-2-2-2 1 2-4z" fill="#4DB8E8"/>
<path transform="translate(1360,830)" d="m0 0 3 1-1 6 5 8-1 3-4-5-3 2 2 5-1 3-8-18v-3z" fill="#3BB0E4"/>
<path transform="translate(1015,1364)" d="m0 0h10l2 6-1 6 2 2h-5v-5l-3 1v-3l-2 2-1 2-4-2-1-1v-5z" fill="#349CD1"/>
<path transform="translate(1297,1249)" d="m0 0 1 4-3 7 7-3h3l-2 5-11 11h-2l2-15z" fill="#4DB3E3"/>
<path transform="translate(1192,1016)" d="m0 0 1 4 5 1 4 1v2l-9 3-1 4-1-3h-3l-2-2-4 2-2-5 5-1 1-2 1 1z" fill="#49B7E9"/>
<path transform="translate(684,1169)" d="m0 0h2v2h8l-2 4-5 2-3-1 3-2-4 2-4 1 1 2h3l-1 4h-2l-1 4h-5v2h-4l-1 2-2-6 9-1h3l-3-3 2-6 3-2 1-3z" fill="#4BB8E9"/>
<path transform="translate(1293,732)" d="m0 0 2 1v2l2 1-1 2h2v-5l5 5 2 4-2 4 2 4h-2l-3-3 2 6-7-6v-2l6-2v-2h-7l-7-4 4-2z" fill="#48B5E6"/>
<path transform="translate(1226,672)" d="m0 0 7 2 6 4-2 3-4-3-2 1 3 5v2l3 1-4 2-12-9-1-3 5-1h2z" fill="#34A2D6"/>
<path transform="translate(1055,946)" d="m0 0h2v2l6-1h2v-1h5v8l-4-1-3-1v-2h-2v6h-2l-1-5-4 2-1 5h-3l-1-5 3-5h3zm16 4m-1 1m-14 4 3 1-3 1z" fill="#52BBEA"/>
<path transform="translate(1199,1335)" d="m0 0h5l3 4-2 4-6 4-4-1-4-4 1-3z" fill="#40A9DB"/>
<path transform="translate(1271,997)" d="m0 0h2l1 4 4-2h3l-1 3-3 3-6 3h-8v-2h-2v-3l3-2-2-2zm-6 8v2h2v-2z" fill="#4DB9EA"/>
<path transform="translate(1038,622)" d="m0 0h14l25 4 2 2-14 1-6-2-4-2-6 1-2 1h-7z" fill="#379ED2"/>
<path transform="translate(1362,832)" d="m0 0 3 3 4 10 1 8 1 5h-2l-1 2-3-3-2-5-2-7 1-3 4 3-5-8z" fill="#31AAE0"/>
<path transform="translate(1111,636)" d="m0 0 9 1 14 5v2h-3l-2 3h-5l-4-3-3-1v-2l-9-2v-2z" fill="#369BCF"/>
<path transform="translate(967,1344)" d="m0 0 2 3 6 3 1 2h-2l3 9v2l-3 1-3-4v-7h-8l-4-4 4 1 2-2-1-3zm10 5 2 2-3-1z" fill="#4AB7E9"/>
<path transform="translate(1020,967)" d="m0 0 4 1 5 1-1 2-7 1-1 3-2-2-1 3-1 2-7 1-2-2-1-4h-2l-1-4h2v2h2v-2h3v2l4 1v-2h4v-2zm1 2v2h2v-2zm-9 5-1 2 3-1z" fill="#4CB9EA"/>
<path transform="translate(957,1352)" d="m0 0h4v2l8 1 1 7 2 2 2 8-1 3 2 1-1 4-4-1-5 1-6-1v-1l12-1-2-12-1-5h-5l-4-4h-3z" fill="#4CB9EA"/>
<path transform="translate(1370,1054)" d="m0 0 4 3 1 6-3 1 3 5-1 7h-1v-6l-3 1-1-3-3-1-3-4v-2h-2v-2l7-2z" fill="#4CB9E9"/>
<path transform="translate(1069,1238)" d="m0 0 6 3v3l-6 4-2 3h-4v-2l-4 1-2 1 2-4h4v-2l-3-1 2-4h5z" fill="#51BBEA"/>
<path transform="translate(1333,1155)" d="m0 0h7l2 3-1 5h3l-2 5-2 2-2-1-1-3-3 3h-5v2l4 1 1 2-2 3-2-1v-3l-2-1v-4l6-2 1-2-2-1 1-5 3 1-1-2z" fill="#4DB9EA"/>
<path transform="translate(998,1349)" d="m0 0 5 4v6l-5 1h-9l-1-1v-6l5-1h2l3-1z" fill="#37AADF"/>
<path transform="translate(742,1296)" d="m0 0 4 1 1 3 4 2 2 3h-3v2l4 1 1 4-3 2-9-7v-7l-3-2z" fill="#3CABDE"/>
<path transform="translate(1336,1021)" d="m0 0h1l2 7 1-4 6-1h3l4 2h-4l-1 7-4 2h-4l-3-3v-2h-5v-2l4 1z" fill="#4FBAE9"/>
<path transform="translate(1262,1288)" d="m0 0 8 2-2 5-8 6-3-1-1-7z" fill="#3BA1D5"/>
<path transform="translate(712,1200)" d="m0 0 2 1 1 3h5l1 5h-2v3l4 1v-2h5l1 6-2 2-6-3-5-3v-4l-4-1h-4l2-4h2z" fill="#2FABE2"/>
<path transform="translate(1390,995)" d="m0 0h8l2 2v23l-1 8-2-4v-18l-1-7-4 2-2-2z" fill="#36A3D7"/>
<path transform="translate(853,1340)" d="m0 0 1 4 1 5 5 2 3 2v2l-6-1-7-4-4-2-2-3v-4z" fill="#38A1D4"/>
<path transform="translate(1267,1123)" d="m0 0 2 1-1 5-1 3h-2l-1 4-1 2 2 1-13 1v-3l4 1 1-2h3v-2l-6 1v-3l6-2 4-5z" fill="#4BB6E7"/>
<path transform="translate(904,827)" d="m0 0 5 1-1 8 7-1 1 5-7 1-1 6-4 2 1-9 5-2-5-2h-3l1-3-1-3z" fill="#52BBEA"/>
<path transform="translate(1278,788)" d="m0 0 10 2 7 2-2 1v4h-5l-1 2-3-1-1-1-7-2v-3h2zm3 2-1 3h2z" fill="#4BB8E9"/>
<path transform="translate(789,860)" d="m0 0 3 1 2 5 5 5 7 4v3l-6-4-2 2-6-4-7-3 1-4 4-3z" fill="#4DB9EA"/>
<path transform="translate(700,1097)" d="m0 0 5 1 2 4h4l1 4-4 5 5-1v2h-6l-2 1-3-2 1-1-6-2-2-3 6 1 2-1v-2h2l-2-3h-4z" fill="#4DB9EA"/>
<path transform="translate(934,1058)" d="m0 0h1v35l-1 23-2-1v-33l1-23z" fill="#49B5E7"/>
<path transform="translate(776,1320)" d="m0 0 4 2 5 5h3l5 3 1 4-6-2-2 3-4-1-6-12z" fill="#3BA3D6"/>
<path transform="translate(967,996)" d="m0 0 3 3-1 3 1 5h-3v-2h-2l-1 6 2 5-7-2-1-3h3l-2-2-5-4 1-2 4 1 7-2-1-2h2z" fill="#56BDEB"/>
<path transform="translate(1245,1261)" d="m0 0h2l2 11 2 1v2l4 2h-3v3l-4-1-2-4v2h-2l-3-12z" fill="#49B6E7"/>
<path transform="translate(1342,795)" d="m0 0 4 4 2 3v3l-7 3h-3l-3-6 1-5 5-1 2 4zm1 7 1 2z" fill="#4DB9E9"/>
<path transform="translate(780,753)" d="m0 0h3l1 6h5v2l4 2v3l-2-2-6-1-1 4-5 1-2-1 2-5 2-3h2l-3-3-1 3-2-1z" fill="#5ABEEB"/>
<path transform="translate(1131,622)" d="m0 0 11 3 7 3 1 5-3 3h-8l2-3-2-4v-2h-6zm9 5m1 1m1 1 1 2z" fill="#48B6E8"/>
<path transform="translate(1026,1273)" d="m0 0h2v2h4l1-2 2 4-1 2 1 3-1 2-9 3-2 3h-2v-3l3-3-5 1 2-4 4 2 2-4 3-1v2h2v-3l-6-2z" fill="#4FBAEA"/>
<path transform="translate(919,1211)" d="m0 0h7l4 1-1 3-2-1-3 4v-4l-5 3-2 2-3-1v2l-5 3-1 2-2-1v2h-2l-1 3h-1v-5l10-7z" fill="#34A2D7"/>
<path transform="translate(1013,1065)" d="m0 0h4 3l1 7-5 4-7 2-1-3 1-4 4-4z" fill="#31A0D5"/>
<path transform="translate(1055,791)" d="m0 0 2 2v3l-6 2 1 3 7-1-2 2-12 4-3-2-2-3 2-2 3 3 4-2-1-5-4-1 5-1 3 1z" fill="#52BBEA"/>
<path transform="translate(1322,771)" d="m0 0 6 1 5 6 7 11-1 2-4-1-4-10-2-1-5 1 1-4h-2z" fill="#3BA1D4"/>
<path transform="translate(1155,962)" d="m0 0 8 1 4 2v3l-6 2 2 2-1 3-4-1-1-4-4-2zm6 3-1 2h3v-2z" fill="#4BB8E9"/>
<path transform="translate(1153,631)" d="m0 0 6 1-2 1 1 7-1 3-13-5-3-3h6l6-2z" fill="#3BADE2"/>
<path transform="translate(1007,921)" d="m0 0 2 1-4 2v2l3-1-1 4-4 2 4 3h-2l-1 3-1-4-4 1v-3l-3-1 1-4z" fill="#3EB1E5"/>
<path transform="translate(908,1379)" d="m0 0 6 2-2 4 4 1-6 2v-4l-3 6-10-3v-2l9-4z" fill="#42AFE2"/>
<path transform="translate(1394,1049)" d="m0 0 1 2v3l-3 3-2 4-2 2-1 6-1-2h-2v-9l3-6 3 1 3-1zm-10 20 2 1-2 1z" fill="#369FD4"/>
<path transform="translate(820,1044)" d="m0 0 7 2 2 5-9-1-4 3h-5l-2-3h2l1-3h7z" fill="#2EABE2"/>
<path transform="translate(1396,962)" d="m0 0 2 1-1 4-1 5h1v9l-5-1-2-11 3-6z" fill="#329DD2"/>
<path transform="translate(785,870)" d="m0 0 4 2 2 2 5 2v2l-8 1h-3l-1 7-2-2 1-5 1-2-4-1 3-2z" fill="#50BAEA"/>
<path transform="translate(1055,1032)" d="m0 0 3 2 2-2v2h2v2l3 1v-2l4 1v2l2 1-3 2v-2l-6 1h-3l-1 6-4-2 2-1-2-4 3-3-4-1v-2z" fill="#35ADE3"/>
<path transform="translate(884,1347)" d="m0 0 4 1-2 5-5 2-2 6-7-2v-4l7-1z" fill="#42AEE0"/>
<path transform="translate(1385,1081)" d="m0 0 2 3 1-1 4 2-3 9-9-1-1-4 2-2 2-1 2 1z" fill="#4CB9EA"/>
<path transform="translate(1088,958)" d="m0 0h3v2h3v2l4 1 1-3h2v15l-3-1v-2l-7-1v-3l5 1-2-4-5-4z" fill="#30A4D9"/>
<path transform="translate(1077,927)" d="m0 0 2 2h-3l2 3 2-1 1 5h2l1 5-5-1-3 3v-3l-4-3 2-1 2 1-2-5-2-1-1 2v-2h-3v-2z" fill="#4CB9EA"/>
<path transform="translate(1047,1232)" d="m0 0m-15 1 3 4 2-3 10-1 4 2-6 2-1 2 2 1-3 1-9-1-2-3z" fill="#4BB8E9"/>
<path transform="translate(1154,970)" d="m0 0 3 1 1 3-2 7v5h-2l2 8v4l4 1-4 1-3-1v-27z" fill="#4BB8E9"/>
<path transform="translate(1329,777)" d="m0 0 4 4 2 9 5 1-4 2-5 1-3-3 1-4 2-1v-5h-8l-2-2 3-1v2l5-1z" fill="#48B4E6"/>
<path transform="translate(741,1128)" d="m0 0h10l-2 2 2 2h-5v2h-6l2 3h-2l-1 3h-7v-1l6-1 1-2h-6l2-2 2 1v-2h-2l2-4 1 2h3z" fill="#4CB9EA"/>
<path transform="translate(1022,915)" d="m0 0 2 1v3l-2 5h-10v-3l-3-1z" fill="#39B0E4"/>
<path transform="translate(1289,753)" d="m0 0 4 2v3 2h-2v-3h-2l-1 9-1 2-6 1-1-4 1-6 6-2zm-6 11-2 3 5-1 1-2z" fill="#53BBE9"/>
<path transform="translate(716,1245)" d="m0 0h2l1 3-4 4 7-2 2 2h-3v2h-2l3 3v-2l4 1-1 2h-2v2l2 1-2 2-9-10-3-4z" fill="#4CB9EA"/>
<path transform="translate(744,881)" d="m0 0 10 6 8 5v1h-5l-4-4-2 4h-3l-2-4-2-1v-2h-2v-4zm1 3v2l4-1z" fill="#4EB9EA"/>
<path transform="translate(1076,989)" d="m0 0 3 1 1 5 8 3h4v4l-7-1v-2l-2 2v2h-2l-1-2-6-2 2-4z" fill="#2EAAE1"/>
<path transform="translate(1396,952)" d="m0 0 2 4 2 21-1 5h-4l1-6h-1v-8l2-2-1-3-2-3 2-2z" fill="#3FAFE2"/>
<path transform="translate(622,959)" d="m0 0 4 1-1 12-4 2-1-1v-9zm-2 15h1v5l-2 1z" fill="#47B3E4"/>
<path transform="translate(910,665)" d="m0 0 1 4 1 3v7l-6 2-4-4-3-2h5l3-2z" fill="#4AB6E8"/>
<path transform="translate(761,1312)" d="m0 0 8 1-4 8-5-1-6-4v-2l7 1z" fill="#3BA5D8"/>
<path transform="translate(1286,1264)" d="m0 0 1 3-5 15h-4l-3-1-1-3 6-4h2l1-5z" fill="#44AEE0"/>
<path transform="translate(1328,1187)" d="m0 0 2 1-1 5-5 7h-4l-1-4 1-4h2v-2h2v2l2-1v-2h2z" fill="#36A2D6"/>
<path transform="translate(1226,1275)" d="m0 0 7 1-1 3-3-1-2 2v3l-1 3-5-1-3-2 2-6 2-1v2h2v-2z" fill="#359ED2"/>
<path transform="translate(1287,953)" d="m0 0 2 1 1 5 4 2h2v-3h3l1-2-1 4-5 6-4-1 1-4h-5l-2-6z" fill="#53BBEA"/>
<path transform="translate(1311,782)" d="m0 0 4 2 10 16v2l-4-1-2-6-7-6-1-4h-2v-2z" fill="#42B3E6"/>
<path transform="translate(1260,1268)" d="m0 0 5 1-1 6-7 7-1-2h-2v2l-2-1 4-5 2-1z" fill="#45B0E2"/>
<path transform="translate(714,1240)" d="m0 0h4l1 2 3 2-1 4 3 1v2l-9 1 2-4 1-3-5 4h-2v-2l2-1 1-4-3-1z" fill="#2EABE2"/>
<path transform="translate(1336,1164)" d="m0 0 1 2 3 1-1 1h1v5l-7 7v-7l-4-2v-2l6-2z" fill="#329ED3"/>
<path transform="translate(1072,950)" d="m0 0 7 1 4 1v2l5 1v1h-6l-2 4h-5l-2-3h2v-4l-4 2-1-3zm5 3v5h2l1-5z" fill="#4CB9EA"/>
<path transform="translate(879,1017)" d="m0 0h2v34l-1 4-5 1 4-7 1-25-7-1 4-4h2z" fill="#60C1EC"/>
<path transform="translate(1174,1265)" d="m0 0h7v5l-6 6-3-1 1-9z" fill="#3FAFE3"/>
<path transform="translate(607,930)" d="m0 0h3l-1 6-1 3 6 2 1 5-4-1-3-3v-2l-3-1-1-4z" fill="#4BB4E4"/>
<path transform="translate(1248,827)" d="m0 0 2 1-3 1 4 4v-4l2-1 4 3 1 5h-10l-1-2-4-1 1-4z" fill="#4EBAEA"/>
<path transform="translate(932,748)" d="m0 0h2l1 3-3 5 7 1-3 2h-11v-7l3-2 2 2 3-1z" fill="#50BAEA"/>
<path transform="translate(1287,1132)" d="m0 0h6v3l2 1-2 1-2 5h-5v-3h-4l1-2 3 1z" fill="#43B1E3"/>
<path transform="translate(1252,1154)" d="m0 0 4 1 10 1 1 3v4h-2l-4-6-3 1 2 2-1 5h-2l-1-6h-3z" fill="#5EBFEB"/>
<path transform="translate(878,1063)" d="m0 0 3 1v28l-2-1v-8l-3-3v-6h2l1-6z" fill="#50BAEA"/>
<path transform="translate(1e3 1090)" d="m0 0 3 2-3 6-2 6h-3l2-1v-2l-5-1 3-5z" fill="#4CB4E4"/>
<path transform="translate(641,1103)" d="m0 0 9 1-2 3h-2l1 4-5 1-1-4-1 3-1-2h-4l1-3z" fill="#2EABE2"/>
<path transform="translate(1295 1e3)" d="m0 0 4 1 2 2 2 7-3 1 2 6-5-1v-5l-2-6zm2 2v2h2v-2z" fill="#4CB9EA"/>
<path transform="translate(1174,641)" d="m0 0 3 3-1 2 5 2v3l2 1-7 1-3-2v-3h-2l1-5z" fill="#3499CD"/>
<path transform="translate(934,1031)" d="m0 0h1v5l6-1-1 2-3 1 7 1-2 4-4 1-2-3-3-1-1 3v-10z" fill="#4CB9EA"/>
<path transform="translate(658,1163)" d="m0 0h2l1 3h-2l1 2 4 1v2l3-2 3-1 1 4h-9l2 5-1 3-7-14 2-1z" fill="#4CB9EA"/>
<path transform="translate(1225,849)" d="m0 0 4 2 8 1 1 3-16 2v-2l2-2z" fill="#4CB9EA"/>
<path transform="translate(856,1365)" d="m0 0 13 4v2l-5 1h-8l-2-2 1-4z" fill="#41AADD"/>
<path transform="translate(1307,807)" d="m0 0 3 1v10l-7-2v-3-3l1-2z" fill="#2EABE2"/>
<path transform="translate(1085,1205)" d="m0 0 6 2-2 1v3h5l1-2v3l-7 2-2 1v-2l-6 2-2 1-2-2 3-3 8-1z" fill="#4FBAEA"/>
<path transform="translate(972,1179)" d="m0 0m-4 1 3 1 1 2 4 2v2 6l-4-1-3-5z" fill="#83CEF0"/>
<path transform="translate(1356,1129)" d="m0 0 1 2-2 9h-3l-1 2-4-2v3l-3-1 1-5 4-2h2l1 1 3-6z" fill="#2FA7DD"/>
<path transform="translate(624,934)" d="m0 0 2 1v15l-3 5h-2l2-17z" fill="#37ADE1"/>
<path transform="translate(1314,763)" d="m0 0h3l1 4 6-1 1 5h-3l1 5h2v2l-4-2v-3l-4-2-3-5z" fill="#35ADE3"/>
<path transform="translate(1024,1059)" d="m0 0 4 1 2 3v4l-5 2-3-3v-5z" fill="#48B1E1"/>
<path transform="translate(621,1027)" d="m0 0h6v2h2v3l2 1-1 5-3-3-3-1v-3l-4 1z" fill="#3DABDE"/>
<path transform="translate(1038,622)" d="m0 0h14l3 2-8 3h-7z" fill="#359ACE"/>
<path transform="translate(722,826)" d="m0 0 9 1h6l2 2-12 2 2 7-4-3z" fill="#4CB9EA"/>
<path transform="translate(868,806)" d="m0 0h7l2 2v4l-14 2 2-6zm2 2-1 3h5v-3z" fill="#4CB9EA"/>
<path transform="translate(1327,1213)" d="m0 0 3 4 3 3v2h-12l2-6z" fill="#4AB3E3"/>
<path transform="translate(730,1074)" d="m0 0 3 2v3h-2v2h4l1 4-12-1v-5l4-3 2 1zm-2 4-1 4h3l-1-4z" fill="#4CB9EA"/>
<path transform="translate(1225,679)" d="m0 0 7 1 2 6 3 1-4 2-10-7z" fill="#33AAE0"/>
<path transform="translate(708,1269)" d="m0 0 5 1 1 2h2l2 4-2 2h-3l-6-5z" fill="#33A0D4"/>
<path transform="translate(984,932)" d="m0 0h2v4l-7 1v2h-7l-1 2h-2l1-4 9-4z" fill="#35A4D8"/>
<path transform="translate(1303,739)" d="m0 0 2 3-2 4 2 4h-2l-3-3 2 6-7-6v-2l6-2v-2h2z" fill="#4EBAEA"/>
<path transform="translate(1083,716)" d="m0 0 2 4h2v-2h2l-1 9-1-2h-5v-2h-2v-2h-3v-2l6-1z" fill="#5FC0EC"/>
<path transform="translate(1218,1251)" d="m0 0h21l5 1-2 4h-2l-2-3-3-1v2l-11-1h-6z" fill="#5FC0EC"/>
<path transform="translate(1159,1164)" d="m0 0 2 1-2 5 1 4 1 6 3 1v5l-5-5-3-2 1-12z" fill="#57BCEA"/>
<path transform="translate(1169,811)" d="m0 0 5 2v3l-6-3-1 3-2 1 7 5-3 3-2-4-4-1-1-5h3v-2z" fill="#55BCEB"/>
<path transform="translate(1018,730)" d="m0 0 5 1 2 1-1 4-4 1 1 2-4 2h-5l1-4v3l4-3-1-2zm3 2-2 3 4-2z" fill="#4CB9EA"/>
<path transform="translate(1079,627)" d="m0 0 12 2 5 1v2l-8 1-5-1-3-1z" fill="#3CA0D2"/>
<path transform="translate(741,1292)" d="m0 0 2 4-2 2 3 2-1 4-5-5-8-3-2-3 10 2z" fill="#43B1E4"/>
<path transform="translate(1242,1285)" d="m0 0 3 1v2h2l-2 4-4 2h-4l2-7z" fill="#37A2D5"/>
<path transform="translate(1068,1232)" d="m0 0h2v6l-3 4v-2l-7 2v-7l8 1z" fill="#2EAAE1"/>
<path transform="translate(1366,1148)" d="m0 0h4v2h-2v8l-2 4-2-1-1-9 1-2h2z" fill="#3BA4D7"/>
<path transform="translate(1367,1131)" d="m0 0h1v5 3l2-2 1 2-1 2h4l-1 5-3-2-6-2 1-7z" fill="#48B7E8"/>
<path transform="translate(717,1047)" d="m0 0h2v2h-2v2l2 1-5 4-2 3h-3l-1-6 4-2h3z" fill="#4CB9EA"/>
<path transform="translate(1054,795)" d="m0 0h11l-2 4-7 2h-4l-2-4h4z" fill="#35A2D7"/>
<path transform="translate(1335,1145)" d="m0 0 4 3-1 5h-11l4-6 4 1z" fill="#47B6E8"/>
<path transform="translate(610,1088)" d="m0 0h2v3l5-1 3 2h-2l-1 4 1 3-4 1v-5h-2l-1 2z" fill="#47B6E8"/>
<path transform="translate(1358,874)" d="m0 0 1 2h2l3 12-6-2-2-1 2-6z" fill="#369CD0"/>
<path transform="translate(904,827)" d="m0 0 5 1v9l-4-1h-3l1-3-1-3z" fill="#5BBBE7"/>
<path transform="translate(837,1353)" d="m0 0 2 1 1 9-1 1h-5v-4l2-6z" fill="#48ADDD"/>
<path transform="translate(1310,1244)" d="m0 0v3 2h2l-2 4-6-1-1-4 1-2z" fill="#48B4E5"/>
<path transform="translate(721,1192)" d="m0 0h6l1 3 6 1v3l-6 1v-2h-2l-1-2-6-1-2-2z" fill="#2EA9E0"/>
<path transform="translate(1251,1171)" d="m0 0 5 1 4 6 1 7-5-3-3-3 1-5z" fill="#52BBEA"/>
<path transform="translate(1059,1039)" d="m0 0h9l1 4-5 1-4-2 1 3-2 3h-2v-6z" fill="#56BDEB"/>
<path transform="translate(1023,959)" d="m0 0h6l2 1v4l-4 1-2-1 1 3-2 1v-2l-3-1 1-5z" fill="#4CB9EA"/>
<path transform="translate(1255,693)" d="m0 0 4 2 11 9v3l-6-2-3-3-4-6z" fill="#369BCF"/>
<path transform="translate(936,1225)" d="m0 0 4 1h2l4-1 2 3-4 1-1 3-3 4-2-8h-3z" fill="#4FBAEA"/>
<path transform="translate(1328,1156)" d="m0 0h10l-1 4h-3v3l-4-1-3-1z" fill="#3AA9DD"/>
<path transform="translate(934,1058)" d="m0 0h1v26l-2 3-1-5 1-23z" fill="#4CB9EA"/>
<path transform="translate(993,1036)" d="m0 0 3 1h-2v3l3-2 3 1-1 5h-10l1-6zm4 4-1 3h3v-3z" fill="#4BB8E9"/>
<path transform="translate(1174,797)" d="m0 0h3v2l4 2 2 2-3 1-1-2-7-1-1 3-4-2v2l-4-1 1-3h9z" fill="#4FBAEA"/>
<path transform="translate(1012,1358)" d="m0 0h7l-2 1-1 4-3 2h-5v-5z" fill="#48B7E9"/>
<path transform="translate(694,1252)" d="m0 0 3 1v2h3l1-2 3 5-4 1v2l-4-1-2-6z" fill="#3BA9DD"/>
<path transform="translate(1327,1176)" d="m0 0 2 1-1 5-3 4v6l-1-2h-2l-1 2v-7l5-6z" fill="#4CB9EA"/>
<path transform="translate(1354,1126)" d="m0 0 3 1-2 4-3 7-2-1 1-2-5 2-2 2v-4l9-6z" fill="#4AB8E9"/>
<path transform="translate(1312,754)" d="m0 0 5 2-3 1v2l2 1-1 2-4-1h-3l-3-4z" fill="#3FB2E6"/>
<path transform="translate(853,1344)" d="m0 0 2 2v3l5 2 3 2v2l-6-1-7-4 2-1-2-4z" fill="#46AFE1"/>
<path transform="translate(732,1243)" d="m0 0 3 3 4 6v2l-7 1 1-2 3-1-2-3-1 2h-6l1-3 5-1z" fill="#2EABE2"/>
<path transform="translate(741,1235)" d="m0 0 4 1-1 2 7-1v2l-8 2-3-2-1 3-4-1 1-2 3-3z" fill="#47B6E8"/>
<path transform="translate(769,1193)" d="m0 0 1 2-1 2 3-1 1 4-5 1-7 1-1-5h8z" fill="#4CB9EA"/>
<path transform="translate(1196,959)" d="m0 0 5 1v2l2 1v2l-6-1v3l3 1v6l-2-1v-4l-2-1v-5l-3-1z" fill="#53BBEA"/>
<path transform="translate(1278,740)" d="m0 0 7 6 3 5-3 1-2 5-3 2 1-6h2l-1-4v-3l-4-4z" fill="#53BBEA"/>
<path transform="translate(1086,1319)" d="m0 0 1 4 4 2v3h-11l1-2 3-1-2-1 2-4z" fill="#4FBAEA"/>
<path transform="translate(1023,1249)" d="m0 0 4 1-3 3 3-1 1 4-5 1-2 1-3-3v-3l5-1z" fill="#49B6E8"/>
<path transform="translate(1312,1198)" d="m0 0 4 1 2 2-2 1-5-2v2l3 1-4 7h-1l-1-9 1-2z" fill="#49B5E6"/>
<path transform="translate(1351,1168)" d="m0 0 1 2 5 1v-2l2 1-1 2 3-1-1 5-1-3-4 1 1 3-4 2 1-7-3 4z" fill="#3DB2E6"/>
<path transform="translate(1373,1124)" d="m0 0 2 1-1 6h-2v-3l-1 3v5l-4 4-1-3 3-9z" fill="#3AACE0"/>
<path transform="translate(1354,1024)" d="m0 0 3 1h-2l4 7-8 1-2-2z" fill="#52B8E7"/>
<path transform="translate(794,965)" d="m0 0 3 1 1 5-1 2-9-2v-3l1-2z" fill="#2EABE2"/>
<path transform="translate(918,1382)" d="m0 0 14 1-3 2-2 1 3 3-2 1-4-2-1-2-5-2z" fill="#36ABE0"/>
<path transform="translate(843,1356)" d="m0 0 4 2 6 5v2l-8-1-2-2z" fill="#49B1E1"/>
<path transform="translate(955,802)" d="m0 0 4 1-1 5-3 9-4-1 2-10 1 2 4-4-4 1zm-1 9-1 5 2-1z" fill="#5BBFEB"/>
<path transform="translate(1262,1288)" d="m0 0 8 2-2 5-2 1v-2l-5-2-3 1 1-3z" fill="#47AFE0"/>
<path transform="translate(1027,952)" d="m0 0 9 3-1 2h-3l-2 2-3-2-1 3-3-1v-3l3-1z" fill="#48B7E9"/>
<path transform="translate(1288,724)" d="m0 0 6 4 4 4v6h-2l-2-5-3-3h-3z" fill="#339FD4"/>
<path transform="translate(801,1336)" d="m0 0 4 1 1 3h-2l1 5-5-1-1-5z" fill="#4DB4E4"/>
<path transform="translate(1188,1255)" d="m0 0 7 1v3h2v2l-5 1-4-2z" fill="#3EA8DB"/>
<path transform="translate(678,1198)" d="m0 0 2 3v2l4 2 1 3 2 1-3 1v2h-2l-6-10-1-2zm2 7 2 2v-2z" fill="#54BCEA"/>
<path transform="translate(1384,1079)" d="m0 0 4 1v8l-2-4-1 3-3 1-2 3 1-9 3-1z" fill="#36A4D9"/>
<path transform="translate(1193,900)" d="m0 0 6 1 1 5-1 2h-7l-2-3 1-4zm0 2 1 4 5-1-2-3z" fill="#60C0EC"/>
<path transform="translate(1252,783)" d="m0 0h5l-1 2-4 1v4l5 1v2l-8-1-1-4 2-4zm7 4m-2 2 2 1-2 1z" fill="#64C2EC"/>
<path transform="translate(1356,1157)" d="m0 0 3 1v4l5 2-2 2-5 1-2-3-2-1z" fill="#49B7E9"/>
<path transform="translate(728,1027)" d="m0 0 3 4-1 5h-5l-1-4 1-4z" fill="#4CB9EA"/>
<path transform="translate(1224,958)" d="m0 0 6 1 6 3-1 3-6-1-5-2zm3 3 3 2 4-1z" fill="#4CB9EA"/>
<path transform="translate(1194,950)" d="m0 0 3 1 1 2 3 1 1 6-2-2-8-1v-5zm0 3-1 2 4-1z" fill="#4CB9EA"/>
<path transform="translate(1137,645)" d="m0 0 7 1 11 6-2 1-13-5-3 2v-2l-3-1z" fill="#389FD2"/>
<path transform="translate(742,1296)" d="m0 0 4 1 1 3 4 2 2 3-9-2-1-3-3-2z" fill="#319ED3"/>
<path transform="translate(1097,1293)" d="m0 0 5 4-6 2-2 4-2 2-2-3h2l2-5-1-2h3z" fill="#49B8E9"/>
<path transform="translate(1218,1257)" d="m0 0 8 1 2 1-1 3-8 1-1-5z" fill="#4CB9EA"/>
<path transform="translate(935,1055)" d="m0 0h1l1 9-1 3 3 1-2 5 1 2-3 1-1-11z" fill="#31A0D5"/>
<path transform="translate(1069,1041)" d="m0 0 2 2v4l8-1 1 2-10 3-3-4 1-2h-3v-2h3z" fill="#2EABE2"/>
<path transform="translate(639,876)" d="m0 0h2v2l6 1-8 4v2h-3l1-6z" fill="#4FBAEA"/>
<path transform="translate(787,1327)" d="m0 0 5 2 2 5-6-2-2 3-4-2 3-3z" fill="#49B1E1"/>
<path transform="translate(1279,1242)" d="m0 0 4 2-6 7-4 1 2-6z" fill="#3398CC"/>
<path transform="translate(938,1236)" d="m0 0 2 1-3 4-2-1-1 4 2 1-5 2h-3l1-2-2-1 5-1 2-4z" fill="#4CB9EA"/>
<path transform="translate(1153,1020)" d="m0 0 4 1 3 2v2l-4 1v7h-2z" fill="#4AB8E9"/>
<path transform="translate(1248,1017)" d="m0 0 3 1 1 5-9 2 1-5h3z" fill="#2EABE2"/>
<path transform="translate(1364 1e3)" d="m0 0 1 2h2v3l-2 2 1 2-5 1-2 2 1-5 2-6zm-2 2 1 2z" fill="#4AB8E9"/>
<path transform="translate(932,991)" d="m0 0 5 2 3-2 4 1-5 1v2l3 1-9 2z" fill="#4AB8E9"/>
<path transform="translate(1389,983)" d="m0 0h6l2 1-2 5h-5l-1-1z" fill="#42B1E4"/>
<path transform="translate(624,986)" d="m0 0 3 1v5h-2l3 6-1 2-4-7-4-5v-1z" fill="#4CB9EA"/>
<path transform="translate(970,979)" d="m0 0h2l1 8-4 2-2 6-2 1-1-7 3-1 2-3 1 1 1-3-3-1h2z" fill="#4CB9EA"/>
<path transform="translate(723,1285)" d="m0 0 7 1 1 5v3l-5-2-3-3z" fill="#379FD3"/>
<path transform="translate(1317,1204)" d="m0 0 4 1h-3l-3 9-3 2-2-6h3v-2h2v-3z" fill="#3EACDF"/>
<path transform="translate(1388,1083)" d="m0 0 4 2-3 9h-3l-2-6h4zm-2 7 1 2z" fill="#46B3E5"/>
<path transform="translate(1390,995)" d="m0 0h8v11h-1l-1-7-4 2-2-2z" fill="#43B2E4"/>
<path transform="translate(982,935)" d="m0 0m-3 1 3 1v5l3 2v2h-2v-2l-5 1 1-4-4 1v-4l3-1z" fill="#59BEEB"/>
<path transform="translate(1352,833)" d="m0 0 5 5 2 3 2 12-2-2-7-16z" fill="#44AADB"/>
<path transform="translate(899,1384)" d="m0 0h8l-2 1 2 1v4l-10-3v-2z" fill="#3DA4D7"/>
<path transform="translate(773,1196)" d="m0 0 5 2h3l3 7-4-1-5-3z" fill="#4CB9EA"/>
<path transform="translate(777,1138)" d="m0 0 4 2-2 6h-5l1-5z" fill="#3498CC"/>
<path transform="translate(642,1129)" d="m0 0h5v3h-2v3l4 1-1 2h-2l1 6-2-3-3-11z" fill="#70C7EE"/>
<path transform="translate(1304,742)" d="m0 0 4 2 4 5-1 4-3-1v-2h-2v-5h-2z" fill="#36A0D4"/>
<path transform="translate(1242,707)" d="m0 0 3 2-1 3v4l-3 3h5l1-2-1 4h-6l-1-3 2-3v-7z" fill="#4CB9EA"/>
<path transform="translate(865,663)" d="m0 0h6l2 4-2 2-7-1z" fill="#4AB8E9"/>
<path transform="translate(863,1257)" d="m0 0 5 2-1 4-3 2-1-4h-2l1 3h-2l1-5z" fill="#33ADE3"/>
<path transform="translate(1312,1234)" d="m0 0 4 1 1 3-4 2-6 1 2-4z" fill="#49ADDD"/>
<path transform="translate(976,1149)" d="m0 0 1 2 2 1-4 6-4-1-3-3 6 1-1-4z" fill="#55BCEB"/>
<path transform="translate(1362,832)" d="m0 0 3 3 3 7-1 4-6-9z" fill="#3AA4D8"/>
<path transform="translate(790,768)" d="m0 0 3 1v6l3 1-4 1v-2h-6l3-6z" fill="#68C3ED"/>
<path transform="translate(717,727)" d="m0 0 4 1-9 10-4-3 4-2 1-2 4-1z" fill="#34ADE3"/>
<path transform="translate(760,1291)" d="m0 0 4 2 1 4 2 1-3 1-6-4-1-3z" fill="#4CB6E6"/>
<path transform="translate(723,1275)" d="m0 0 4 2 5 5 1 2-8-1-2-3z" fill="#40AFE2"/>
<path transform="translate(1226,1277)" d="m0 0h3l1 2 3 1h-4l-1 7-3 1-2-2 2-3v-3z" fill="#50BAEA"/>
<path transform="translate(897,1228)" d="m0 0h4l-1 6-3 3-3-4 1-4z" fill="#31A5DA"/>
<path transform="translate(1083,1218)" d="m0 0v3l-2 3h-10l1-4v2z" fill="#50BAEA"/>
<path transform="translate(949,1059)" d="m0 0 2 3-4 5-7 1-4-1 1-3v2l7-2 4-1z" fill="#50BAEA"/>
<path transform="translate(1165,847)" d="m0 0 4 1-1 2-3-1v5l3 1v-3l2 1-1 3h-6l-3-3 2-4z" fill="#54BCEA"/>
<path transform="translate(741,697)" d="m0 0 2 1-3 3h-2v2l-5 2-4 1 5-6z" fill="#32ABE1"/>
<path transform="translate(1057,693)" d="m0 0 6 2 2 3-1 5-3 1-2-7-3-1zm4 4v5h2v-5z" fill="#4CB9EA"/>
<path transform="translate(998,1349)" d="m0 0 5 4v4l-4 1-2-4-2-2 3-1z" fill="#35AEE4"/>
<path transform="translate(915,1325)" d="m0 0h4v2l2 1-3 5-4-2z" fill="#4BB8E9"/>
<path transform="translate(692,1243)" d="m0 0 3 4h4v4l-9-1 1-4-2-1h3z" fill="#40ADE0"/>
<path transform="translate(1353,1059)" d="m0 0h6l3 3v2l-10 1 3-4h-5z" fill="#49B7E9"/>
<path transform="translate(1160,1025)" d="m0 0 4 2 2 3-4 4-3-4z" fill="#4EB9E9"/>
<path transform="translate(1396,952)" d="m0 0 2 4 1 6v10l-2-1-1-5v-3l-2-3 2-2z" fill="#49B7E9"/>
<path transform="translate(1084,941)" d="m0 0 1 3-6 1-1 4-3 1-2-1v-5l1 2 5-3z" fill="#4CB9EA"/>
<path transform="translate(1092,908)" d="m0 0 2 1-1 2 6-1v-2h3v10h-1v-6l-8 1-2-1z" fill="#4CB9EA"/>
<path transform="translate(1041,799)" d="m0 0 4 3 3-2 3 2v2l-6 2-3-2-2-3z" fill="#4DB6E6"/>
<path transform="translate(912,1217)" d="m0 0 2 3-5 3-1 2-2-1v2h-2l-1 3h-1v-5z" fill="#369ED2"/>
<path transform="translate(1149,1205)" d="m0 0 1 2h6l-1 2h-6l-2 2h-6v-4h2l1 2 1-1z" fill="#56BCEB"/>
<path transform="translate(694,1161)" d="m0 0 5 2 1 4-5 2 2-5-3 1v5l-4-2z" fill="#4CB9EA"/>
<path transform="translate(1346,1153)" d="m0 0h1v6l-2 4-4 1-2-2 2-1 1-3 2-1z" fill="#36A6DA"/>
<path transform="translate(880,1093)" d="m0 0h1v23l-4 1-1-3 3-1z" fill="#4CB9EA"/>
<path transform="translate(711,1018)" d="m0 0h3l3 3-2 5-3-1-1-3-4-1z" fill="#33ADE3"/>
<path transform="translate(1092,1010)" d="m0 0h9l-1 4 2 1-9-1z" fill="#30ABE1"/>
<path transform="translate(1256,965)" d="m0 0h6l3 5-1 2-4-4v-2h-3l1 4 2 1h-5l-1-4z" fill="#51BAEA"/>
<path transform="translate(1155,1300)" d="m0 0 7 4-4 1 1 1 4 1 1-2v3l-7 1-1-4-2-1z" fill="#4CB9EA"/>
<path transform="translate(1259,1274)" d="m0 0 4 2-7 6v-2h-2v2l-2-1 4-5z" fill="#50BAEA"/>
<path transform="translate(707,1265)" d="m0 0 1 2h2v2l4-1v3l7 1-3 3-2-1v-2l-3 1v-3l-6-1-1-3z" fill="#4CB9EA"/>
<path transform="translate(644,1161)" d="m0 0 3 3 2 4-1 4-3-2-2-1v-5z" fill="#359CD0"/>
<path transform="translate(649,1149)" d="m0 0h8l2 3-7 3-3-3z" fill="#49B6E8"/>
<path transform="translate(932,1134)" d="m0 0 1 3 7-3 3 1-3 3-2 4-1-2-4-1z" fill="#50BAEA"/>
<path transform="translate(1389,966)" d="m0 0h1l3 15-4-1-1-9z" fill="#4CB9EA"/>
<path transform="translate(1272,928)" d="m0 0 1 3h2l1-2 3 3v2l-4 3h-2l-1 2 1-4h2v-2l-4-1z" fill="#4CB9EA"/>
<path transform="translate(1007,925)" d="m0 0 1 3-5 3 4 3h-2l-1 3-1-4-4 1v-2h2v-3l5-3z" fill="#4CB9EA"/>
<path transform="translate(915,842)" d="m0 0 1 2-3 8-7 1-2-2 7-1 1-5z" fill="#5BBFEB"/>
<path transform="translate(1360,830)" d="m0 0 3 1-2 6-3-1v-2h-5l-1-2z" fill="#50BAEA"/>
<path transform="translate(1160,1255)" d="m0 0 5 1 4 1-2 7h-1l-1-5-3 1-2 2z" fill="#2EABE2"/>
<path transform="translate(1337,1174)" d="m0 0 2 1-3 6-4 1-1-2-2 1v-4l4-1 1 2z" fill="#38B0E4"/>
<path transform="translate(1372,1051)" d="m0 0 5 2-1 6h-3l-2-3z" fill="#3AADE1"/>
<path transform="translate(1067,1324)" d="m0 0 6 1 2 1 1 4-2 4-3-1 1-3z" fill="#51BBEA"/>
<path transform="translate(1181,1321)" d="m0 0 4 2-1 2 4-2-2 7h-2l-3-5z" fill="#3399CD"/>
<path transform="translate(886,1315)" d="m0 0 4 2v2h-2v4l-2-1 1-2-5 2-2-2 4-2z" fill="#2EABE2"/>
<path transform="translate(1320,1192)" d="m0 0 4 2 2 4-2 2h-4l-1-4z" fill="#3CAEE2"/>
<path transform="translate(1019,1161)" d="m0 0 5 2 4 5-2 2-6-5z" fill="#359CD0"/>
<path transform="translate(1013,1065)" d="m0 0h4 3l-1 4h-4v4l-4-2z" fill="#32A8DD"/>
<path transform="translate(1096,980)" d="m0 0h4l2 9-3 1-2-4 1-4-4 1-2-2z" fill="#2FA6DD"/>
<path transform="translate(801,971)" d="m0 0 3 1 1 2 3 1-1 3h-3v-2l-5-1 1-3z" fill="#2EA8DE"/>
<path transform="translate(932,963)" d="m0 0h2l1 9 1 2-2 1-1 5h-1z" fill="#3EB0E3"/>
<path transform="translate(701,909)" d="m0 0 3 2v4l5 2-1 2-4-1-3-3z" fill="#51BBEA"/>
<path transform="translate(858,683)" d="m0 0h5l1 4-7 2-2 3 1-5h2z" fill="#75C6EB"/>
<path transform="translate(1214,662)" d="m0 0 5 2 11 8-2 1-6-3-3-3-5-3z" fill="#49B7E9"/>
<path transform="translate(1017,1371)" d="m0 0h3l1 9 3 1-5-1-1-3-2-2z" fill="#37AFE4"/>
<path transform="translate(692,1249)" d="m0 0 4 2-1 7-5-4v-4z" fill="#379CCF"/>
<path transform="translate(736,1088)" d="m0 0h2l2 5-1 3-3 1-4-2 2-6zm0 3-2 4 4-1v-3z" fill="#4CB9EA"/>
<path transform="translate(1157,1013)" d="m0 0h2v2h2v-2l4 1-2 6-5-3z" fill="#51BBEA"/>
<path transform="translate(853,992)" d="m0 0 5 1 1 3-3 1-3-1v2l-5-1 4-3 3 1v-2z" fill="#4CB9EA"/>
<path transform="translate(681,934)" d="m0 0 8 1 2 4h-2v-2h-2l-1 4-4-1h2v-3l-3-1z" fill="#6BC4EC"/>
<path transform="translate(1208,925)" d="m0 0 5 1 2 1 1 4-1 1h-6l-1-3zm1 1 2 4 3 1v-2h-2l-1-3z" fill="#4CB9EA"/>
<path transform="translate(1179,917)" d="m0 0 2 4v4l-2 3h-3l-1-5 2-4h2zm-1 4-1 4 2 1 1-5z" fill="#4CB9EA"/>
<path transform="translate(829,864)" d="m0 0 4 2-1 6-4 1-3-3 3-5zm-1 3v4l3-1v-3z" fill="#51BBEA"/>
<path transform="translate(1257,708)" d="m0 0 7 2 4 6 2 4-7-6-6-5z" fill="#57BDEB"/>
<path transform="translate(970,1390)" d="m0 0 5 2 1 1v6h-6v-1h5l-1-4-6-1z" fill="#39AFE4"/>
<path transform="translate(1022,1373)" d="m0 0 2 1-1 4 6-1v3h-8l-1-5z" fill="#30A4D9"/>
<path transform="translate(757,1311)" d="m0 0h9l2 2h-6l-1 2-8-1 2-2 2 1z" fill="#5DBFEC"/>
<path transform="translate(1286,1264)" d="m0 0 1 3-4 11-3-2v-2h2l1-5z" fill="#57BDEB"/>
<path transform="translate(733,1248)" d="m0 0 2 1v2l2 1-8 3-3-4h7z" fill="#4CB9EA"/>
<path transform="translate(1333,1213)" d="m0 0 4 3-2 5-4-2 1-5z" fill="#40A8DB"/>
<path transform="translate(1148,1176)" d="m0 0 4 2v2l5 2v2l3 1-2 1-8-5z" fill="#57BDEB"/>
<path transform="translate(1371,1135)" d="m0 0h5l-1 6-3 1-2-1v-5z" fill="#37A4D8"/>
<path transform="translate(1287,1117)" d="m0 0h2l-1 7h-7l-2-3 7-2v2z" fill="#4BB8E9"/>
<path transform="translate(1263,1081)" d="m0 0 4 3-1 10h-2v-7h-2z" fill="#51BBEA"/>
<path transform="translate(660,1025)" d="m0 0 4 1 2 2-5 1-2 3h-3l-1-4 5-1zm-2 3-1 3h2z" fill="#4CB9EA"/>
<path transform="translate(1088,958)" d="m0 0h3v2h3v2l4 2v2l-4-1-5-4z" fill="#2EA9E0"/>
<path transform="translate(762,893)" d="m0 0 1 3-1 1h-11l1-3 10 1z" fill="#51BBEA"/>
<path transform="translate(1322,771)" d="m0 0h4l2 6 1 2-5 1 1-4h-2z" fill="#349ACE"/>
<path transform="translate(760,741)" d="m0 0 3 1-2 1v3l4 1-5 2-3-1v-5z" fill="#5DBFEC"/>
<path transform="translate(876,1374)" d="m0 0 4 2 3 3v3l-5-2-2-3z" fill="#42ABDD"/>
<path transform="translate(872,1355)" d="m0 0 5 1 2 5-7-2z" fill="#389ED2"/>
<path transform="translate(752,1241)" d="m0 0 3 1-2 1 1 3 4 1-1 3-4-2-3-2v-4z" fill="#4CB9EA"/>
<path transform="translate(1356,1129)" d="m0 0 1 2-2 9h-3l-1 2 1-7z" fill="#31A8DE"/>
<path transform="translate(674,1115)" d="m0 0 4 1 2 2-6 3-2-1 1-4z" fill="#5CBDEA"/>
<path transform="translate(1017,1068)" d="m0 0h3l1 4-6 4v-7z" fill="#41A5D7"/>
<path transform="translate(1014,1063)" d="m0 0 7 1 2 6h-3l-2-3h-3v-2l-2-1z" fill="#52BBEA"/>
<path transform="translate(728 1e3)" d="m0 0h5l3 2-2 4v-2l-5 1v-2l-2-2z" fill="#2EABE2"/>
<path transform="translate(673,972)" d="m0 0 4 2-1 7h-2l-1-3-3-2z" fill="#2EAAE1"/>
<path transform="translate(811,905)" d="m0 0h5l3 3-6 3-3-5z" fill="#4CB9EA"/>
<path transform="translate(873,712)" d="m0 0 4 1 3 3-4 3-3-3z" fill="#35ADE3"/>
<path transform="translate(892,709)" d="m0 0 3 1 1 7-2-3-1 4 2 1h-3l-1-6z" fill="#4CB9EA"/>
<path transform="translate(1e3 1347)" d="m0 0m-1 1m-4 1h4l6 6-9-2-2-3z" fill="#41B4E7"/>
<path transform="translate(1072,1335)" d="m0 0 6 1 1 6-5-2z" fill="#52BBEA"/>
<path transform="translate(1186,1276)" d="m0 0m-1 1m-1 1 1 3-7 1-6-1 1-2h9z" fill="#6BC5ED"/>
<path transform="translate(699,1248)" d="m0 0 4 4 4 7-2 1-4-6h-2v-2l-3-1h3z" fill="#52BBEA"/>
<path transform="translate(1065,1229)" d="m0 0m-2 1h2l1 4 2-1v3h-9v-4l4-1z" fill="#52BBEA"/>
<path transform="translate(688,1167)" d="m0 0 6 3-4 2h-5l1-4z" fill="#33ADE3"/>
<path transform="translate(828,1113)" d="m0 0 4 1 9-1-2 2-12 2-4 1 3-3h2z" fill="#4BB2E2"/>
<path transform="translate(972,1098)" d="m0 0 9 2-4 1v2l2 1-4-1-4-2z" fill="#4CB9EA"/>
<path transform="translate(855,1093)" d="m0 0 5 1 1 6-5 1-2-4zm2 2-1 4h4l-1-4z" fill="#52BBEA"/>
<path transform="translate(766,1080)" d="m0 0 1 2 3-1 1 5h-6l-1-3z" fill="#2FABE2"/>
<path transform="translate(1065,1035)" d="m0 0 4 1v2l2 1-3 2v-2l-4 1-3-3h4z" fill="#39ADE2"/>
<path transform="translate(1317,997)" d="m0 0 4 1 3 3-1 3h-7v-6zm1 2-1 4h5v-2z" fill="#4CB9EA"/>
<path transform="translate(1241,971)" d="m0 0 4 3 1 4-5 1-2-3 1-4zm0 2v4h2v-4z" fill="#4CB9EA"/>
<path transform="translate(608,940)" d="m0 0 6 1 1 5-4-1-3-3z" fill="#48AEDE"/>
<path transform="translate(750,896)" d="m0 0h13v2l-2 1h-11l-2-2z" fill="#2EABE2"/>
<path transform="translate(819,845)" d="m0 0 2 3v2l6-1v6h-2v-2l-5-2z" fill="#4CB9EA"/>
<path transform="translate(773,766)" d="m0 0 7 6 4 2-2 1-7-3-2-2z" fill="#4CB9EA"/>
<path transform="translate(973,720)" d="m0 0 5 2-1 3h-2v2h-2l-1-6z" fill="#4CB9EA"/>
<path transform="translate(721,1252)" d="m0 0h6l1 3h-6v2l-3-1v-2h2z" fill="#2EA8DE"/>
<path transform="translate(911,1220)" d="m0 0h3l-2 5-6 2v-3l2-1z" fill="#38AEE3"/>
<path transform="translate(1272,1218)" d="m0 0 3 3-1 2-4 1h-7l8-4z" fill="#52BBEA"/>
<path transform="translate(726,1207)" d="m0 0 8 2-2 1v2l3 1-4 1-1-3-5-2z" fill="#2EABE2"/>
<path transform="translate(725,1190)" d="m0 0 7 2 2 4h-6l-1-4h-2z" fill="#52BBEA"/>
<path transform="translate(972,1187)" d="m0 0h4v6l-4-1-2-3z" fill="#50BAEA"/>
<path transform="translate(1330,1179)" d="m0 0 5 2-2 5-4-1v-4z" fill="#38A3D7"/>
<path transform="translate(1336,1164)" d="m0 0 1 2 3 1-1 1h1v5l-4-1v-3l-2-1z" fill="#38A8DD"/>
<path transform="translate(638,1165)" d="m0 0h2 1 2l1 4-1 2-6-2v-3z" fill="#38AFE4"/>
<path transform="translate(1154,1145)" d="m0 0 5 3-1 4-1-3-3-1 2 4-1 4-2-4v-6z" fill="#52BBEA"/>
<path transform="translate(680,1143)" d="m0 0 6 1 1 4-3 1 1-4h-4v4l-3-1z" fill="#66C3EC"/>
<path transform="translate(1220,1048)" d="m0 0 1 3 4 2 1 3-8-1z" fill="#80CDEF"/>
<path transform="translate(1215,1044)" d="m0 0 2 1v3h2l-2 5-1-2h-2l-1-5z" fill="#4CB9EA"/>
<path transform="translate(1028,983)" d="m0 0 8 1 1 4-4 1-3-2z" fill="#4AB8E9"/>
<path transform="translate(739,829)" d="m0 0h1v6l-7 5-4-2 9-4z" fill="#59BEEB"/>
<path transform="translate(1329,777)" d="m0 0 4 4-1 4-1-4h-8l-2-2 3-1v2l5-1z" fill="#4FBAE9"/>
<path transform="translate(939,758)" d="m0 0 5 2 1 4-2 2-4-1-1-4zm2 3v4h2v-4z" fill="#59BEEB"/>
<path transform="translate(1291,1266)" d="m0 0 6 1-5 6h-2z" fill="#7BCBEF"/>
<path transform="translate(708,1262)" d="m0 0 5 2 2 4-5 1v-2h-2v-4z" fill="#3AAADE"/>
<path transform="translate(1072,1252)" d="m0 0 3 2-2 4-3-1-1 3-1-4 4-2z" fill="#35ABE0"/>
<path transform="translate(653,1190)" d="m0 0h2v3h2l-1 3h-2l-1 3h-1v-7z" fill="#35ABE0"/>
<path transform="translate(689,1171)" d="m0 0h5l-2 4-5 2-3-1z" fill="#4CB9EA"/>
<path transform="translate(959,1169)" d="m0 0 3 1v4l4 2h-3l-5-2z" fill="#2FA5DB"/>
<path transform="translate(728,1046)" d="m0 0 4 1-3 1 2 4-9 1 1-2 4-1z" fill="#4CB9EA"/>
<path transform="translate(621,1030)" d="m0 0 3 1v3l4 1-1 3-6-3-1-3z" fill="#3398CC"/>
<path transform="translate(1028,979)" d="m0 0h3l1 3-2 1-4-1-2 2-1-1-2 2-1-2 3-3z" fill="#4AB8E9"/>
<path transform="translate(1058,971)" d="m0 0h2v2h3v4l4 1-4 1-4-3z" fill="#45B5E8"/>
<path transform="translate(1377,949)" d="m0 0h1l1 13-2-3-7-2v-1h7z" fill="#52BBEA"/>
<path transform="translate(1269,859)" d="m0 0 5 3 1 5h-3v-3h-3l-1-3z" fill="#4CB9EA"/>
<path transform="translate(1185,831)" d="m0 0 3 3v5h-4l-1-5zm0 4v3h2v-3z" fill="#4CB9EA"/>
<path transform="translate(1318,763)" d="m0 0 5 1-1 4h-5l-1-3z" fill="#369DD1"/>
<path transform="translate(772,717)" d="m0 0 1 2 4 1v3l-4 1-2-2z" fill="#4CB9EA"/>
<path transform="translate(607,965)" d="m0 0 4 1v6l-3-1z" fill="#63B9E2"/>
<path transform="translate(791,1339)" d="m0 0 6 2v2h-5z" fill="#49B5E6"/>
<path transform="translate(852,812)" d="m0 0 5 1-3 3h-2z" fill="#4CB9EA"/>
<path transform="translate(801,949)" d="m0 0 1 2h2l-1 4-3-1z" fill="#E4F4FB"/>
<path transform="translate(976,1367)" d="m0 0h3v4l-4-1z" fill="#4CB9EA"/>
<path transform="translate(1206,1289)" d="m0 0h5v2l-3 1-2-1z" fill="#65BCE5"/>
<path transform="translate(709,948)" d="m0 0 3 1-1 3-3-1z" fill="#4CB9EA"/>
<path transform="translate(1276,1208)" d="m0 0 3 1v2h-4z" fill="#68BCE5"/>
<path transform="translate(1165,1020)" d="m0 0 3 1-1 3-2-1z" fill="#D6EEF9"/>
<path transform="translate(831,1285)" d="m0 0h4v2h-4z" fill="#4CB9EA"/>
<path transform="translate(1229,1256)" d="m0 0 3 1-1 2-3-1z" fill="#4CB9EA"/>
<path transform="translate(937,1208)" d="m0 0h3l-1 3h-2z" fill="#78CAEF"/>
<path transform="translate(601,979)" d="m0 0h2v4h-2z" fill="#6CB9E0"/>
<path transform="translate(602,966)" d="m0 0h1v5l-2-1z" fill="#74BEE2"/>
<path transform="translate(851,752)" d="m0 0 4 1-4 1z" fill="#CBEAF8"/>
<path transform="translate(1278,1123)" d="m0 0 2 1-1 2h-2z" fill="#A5DBF4"/>
<path transform="translate(796,1332)" d="m0 0 3 3-3-1z" fill="#93D4F2"/>
<path transform="translate(1181,1273)" d="m0 0 1 3h-2z" fill="#93D4F2"/>
<path transform="translate(789,905)" d="m0 0h2v2h-2z" fill="#FEFEFE"/>
<path transform="translate(1183,1253)" d="m0 0 2 1z" fill="#A5DBF4"/>
<path transform="translate(1274,1166)" d="m0 0" fill="#A5DBF4"/>
<path transform="translate(793,1073)" d="m0 0" fill="#FEFEFE"/>
<path transform="translate(1293,744)" d="m0 0 2 1z" fill="#FEFEFE"/>
<path transform="translate(851,1366)" d="m0 0" fill="#FEFEFE"/>
<path transform="translate(813,1341)" d="m0 0" fill="#FEFEFE"/>
<path transform="translate(875,1340)" d="m0 0" fill="#4CB9EA"/>
<path transform="translate(876,1339)" d="m0 0" fill="#4CB9EA"/>
<path transform="translate(789,1335)" d="m0 0" fill="#4CB9EA"/>
<path transform="translate(948,1329)" d="m0 0" fill="#FEFEFE"/>
<path transform="translate(775,1319)" d="m0 0" fill="#4CB9EA"/>
<path transform="translate(1226,1254)" d="m0 0" fill="#4CB9EA"/>
<path transform="translate(701,1236)" d="m0 0" fill="#FEFEFE"/>
<path transform="translate(700,1235)" d="m0 0" fill="#FEFEFE"/>
<path transform="translate(699,1234)" d="m0 0" fill="#4CB9EA"/>
<path transform="translate(698,1233)" d="m0 0" fill="#FEFEFE"/>
<path transform="translate(962,1184)" d="m0 0" fill="#4CB9EA"/>
<path transform="translate(775,1058)" d="m0 0" fill="#FEFEFE"/>
<path transform="translate(1074,1013)" d="m0 0" fill="#4CB9EA"/>
<path transform="translate(964,1010)" d="m0 0" fill="#FEFEFE"/>
<path transform="translate(794,982)" d="m0 0" fill="#FEFEFE"/>
<path transform="translate(609,976)" d="m0 0" fill="#FEFEFE"/>
<path transform="translate(710,933)" d="m0 0" fill="#FEFEFE"/>
<path transform="translate(1341,794)" d="m0 0" fill="#4CB9EA"/>
<path transform="translate(857,781)" d="m0 0" fill="#FEFEFE"/>
</svg>
